%TF.GenerationSoftware,KiCad,Pcbnew,9.0.6*%
%TF.CreationDate,2026-06-22T13:10:47-07:00*%
%TF.ProjectId,STM32 Dev Board,53544d33-3220-4446-9576-20426f617264,rev?*%
%TF.SameCoordinates,Original*%
%TF.FileFunction,AssemblyDrawing,Bot*%
%FSLAX46Y46*%
G04 Gerber Fmt 4.6, Leading zero omitted, Abs format (unit mm)*
G04 Created by KiCad (PCBNEW 9.0.6) date 2026-06-22 13:10:47*
%MOMM*%
%LPD*%
G01*
G04 APERTURE LIST*
%ADD10C,0.150000*%
%ADD11C,0.100000*%
G04 APERTURE END LIST*
D10*
X152584819Y-80014881D02*
X152584819Y-80110119D01*
X152584819Y-80110119D02*
X152632438Y-80205357D01*
X152632438Y-80205357D02*
X152680057Y-80252976D01*
X152680057Y-80252976D02*
X152775295Y-80300595D01*
X152775295Y-80300595D02*
X152965771Y-80348214D01*
X152965771Y-80348214D02*
X153203866Y-80348214D01*
X153203866Y-80348214D02*
X153394342Y-80300595D01*
X153394342Y-80300595D02*
X153489580Y-80252976D01*
X153489580Y-80252976D02*
X153537200Y-80205357D01*
X153537200Y-80205357D02*
X153584819Y-80110119D01*
X153584819Y-80110119D02*
X153584819Y-80014881D01*
X153584819Y-80014881D02*
X153537200Y-79919643D01*
X153537200Y-79919643D02*
X153489580Y-79872024D01*
X153489580Y-79872024D02*
X153394342Y-79824405D01*
X153394342Y-79824405D02*
X153203866Y-79776786D01*
X153203866Y-79776786D02*
X152965771Y-79776786D01*
X152965771Y-79776786D02*
X152775295Y-79824405D01*
X152775295Y-79824405D02*
X152680057Y-79872024D01*
X152680057Y-79872024D02*
X152632438Y-79919643D01*
X152632438Y-79919643D02*
X152584819Y-80014881D01*
X151616033Y-79945833D02*
X151282700Y-79712500D01*
X151616033Y-79545833D02*
X150916033Y-79545833D01*
X150916033Y-79545833D02*
X150916033Y-79812500D01*
X150916033Y-79812500D02*
X150949366Y-79879167D01*
X150949366Y-79879167D02*
X150982700Y-79912500D01*
X150982700Y-79912500D02*
X151049366Y-79945833D01*
X151049366Y-79945833D02*
X151149366Y-79945833D01*
X151149366Y-79945833D02*
X151216033Y-79912500D01*
X151216033Y-79912500D02*
X151249366Y-79879167D01*
X151249366Y-79879167D02*
X151282700Y-79812500D01*
X151282700Y-79812500D02*
X151282700Y-79545833D01*
X151216033Y-80345833D02*
X151182700Y-80279167D01*
X151182700Y-80279167D02*
X151149366Y-80245833D01*
X151149366Y-80245833D02*
X151082700Y-80212500D01*
X151082700Y-80212500D02*
X151049366Y-80212500D01*
X151049366Y-80212500D02*
X150982700Y-80245833D01*
X150982700Y-80245833D02*
X150949366Y-80279167D01*
X150949366Y-80279167D02*
X150916033Y-80345833D01*
X150916033Y-80345833D02*
X150916033Y-80479167D01*
X150916033Y-80479167D02*
X150949366Y-80545833D01*
X150949366Y-80545833D02*
X150982700Y-80579167D01*
X150982700Y-80579167D02*
X151049366Y-80612500D01*
X151049366Y-80612500D02*
X151082700Y-80612500D01*
X151082700Y-80612500D02*
X151149366Y-80579167D01*
X151149366Y-80579167D02*
X151182700Y-80545833D01*
X151182700Y-80545833D02*
X151216033Y-80479167D01*
X151216033Y-80479167D02*
X151216033Y-80345833D01*
X151216033Y-80345833D02*
X151249366Y-80279167D01*
X151249366Y-80279167D02*
X151282700Y-80245833D01*
X151282700Y-80245833D02*
X151349366Y-80212500D01*
X151349366Y-80212500D02*
X151482700Y-80212500D01*
X151482700Y-80212500D02*
X151549366Y-80245833D01*
X151549366Y-80245833D02*
X151582700Y-80279167D01*
X151582700Y-80279167D02*
X151616033Y-80345833D01*
X151616033Y-80345833D02*
X151616033Y-80479167D01*
X151616033Y-80479167D02*
X151582700Y-80545833D01*
X151582700Y-80545833D02*
X151549366Y-80579167D01*
X151549366Y-80579167D02*
X151482700Y-80612500D01*
X151482700Y-80612500D02*
X151349366Y-80612500D01*
X151349366Y-80612500D02*
X151282700Y-80579167D01*
X151282700Y-80579167D02*
X151249366Y-80545833D01*
X151249366Y-80545833D02*
X151216033Y-80479167D01*
X153442857Y-67117319D02*
X153919047Y-67117319D01*
X153919047Y-67117319D02*
X153919047Y-66117319D01*
X153109523Y-66593509D02*
X152776190Y-66593509D01*
X152633333Y-67117319D02*
X153109523Y-67117319D01*
X153109523Y-67117319D02*
X153109523Y-66117319D01*
X153109523Y-66117319D02*
X152633333Y-66117319D01*
X152204761Y-67117319D02*
X152204761Y-66117319D01*
X152204761Y-66117319D02*
X151966666Y-66117319D01*
X151966666Y-66117319D02*
X151823809Y-66164938D01*
X151823809Y-66164938D02*
X151728571Y-66260176D01*
X151728571Y-66260176D02*
X151680952Y-66355414D01*
X151680952Y-66355414D02*
X151633333Y-66545890D01*
X151633333Y-66545890D02*
X151633333Y-66688747D01*
X151633333Y-66688747D02*
X151680952Y-66879223D01*
X151680952Y-66879223D02*
X151728571Y-66974461D01*
X151728571Y-66974461D02*
X151823809Y-67069700D01*
X151823809Y-67069700D02*
X151966666Y-67117319D01*
X151966666Y-67117319D02*
X152204761Y-67117319D01*
X153316666Y-69478533D02*
X153316666Y-68778533D01*
X153316666Y-68778533D02*
X153149999Y-68778533D01*
X153149999Y-68778533D02*
X153049999Y-68811866D01*
X153049999Y-68811866D02*
X152983333Y-68878533D01*
X152983333Y-68878533D02*
X152949999Y-68945200D01*
X152949999Y-68945200D02*
X152916666Y-69078533D01*
X152916666Y-69078533D02*
X152916666Y-69178533D01*
X152916666Y-69178533D02*
X152949999Y-69311866D01*
X152949999Y-69311866D02*
X152983333Y-69378533D01*
X152983333Y-69378533D02*
X153049999Y-69445200D01*
X153049999Y-69445200D02*
X153149999Y-69478533D01*
X153149999Y-69478533D02*
X153316666Y-69478533D01*
X152249999Y-69478533D02*
X152649999Y-69478533D01*
X152449999Y-69478533D02*
X152449999Y-68778533D01*
X152449999Y-68778533D02*
X152516666Y-68878533D01*
X152516666Y-68878533D02*
X152583333Y-68945200D01*
X152583333Y-68945200D02*
X152649999Y-68978533D01*
X149433332Y-84154819D02*
X149433332Y-83154819D01*
X149433332Y-83154819D02*
X149052380Y-83154819D01*
X149052380Y-83154819D02*
X148957142Y-83202438D01*
X148957142Y-83202438D02*
X148909523Y-83250057D01*
X148909523Y-83250057D02*
X148861904Y-83345295D01*
X148861904Y-83345295D02*
X148861904Y-83488152D01*
X148861904Y-83488152D02*
X148909523Y-83583390D01*
X148909523Y-83583390D02*
X148957142Y-83631009D01*
X148957142Y-83631009D02*
X149052380Y-83678628D01*
X149052380Y-83678628D02*
X149433332Y-83678628D01*
X148433332Y-84154819D02*
X148433332Y-83154819D01*
X148433332Y-83154819D02*
X148099999Y-83869104D01*
X148099999Y-83869104D02*
X147766666Y-83154819D01*
X147766666Y-83154819D02*
X147766666Y-84154819D01*
X147099999Y-83154819D02*
X146909523Y-83154819D01*
X146909523Y-83154819D02*
X146814285Y-83202438D01*
X146814285Y-83202438D02*
X146719047Y-83297676D01*
X146719047Y-83297676D02*
X146671428Y-83488152D01*
X146671428Y-83488152D02*
X146671428Y-83821485D01*
X146671428Y-83821485D02*
X146719047Y-84011961D01*
X146719047Y-84011961D02*
X146814285Y-84107200D01*
X146814285Y-84107200D02*
X146909523Y-84154819D01*
X146909523Y-84154819D02*
X147099999Y-84154819D01*
X147099999Y-84154819D02*
X147195237Y-84107200D01*
X147195237Y-84107200D02*
X147290475Y-84011961D01*
X147290475Y-84011961D02*
X147338094Y-83821485D01*
X147338094Y-83821485D02*
X147338094Y-83488152D01*
X147338094Y-83488152D02*
X147290475Y-83297676D01*
X147290475Y-83297676D02*
X147195237Y-83202438D01*
X147195237Y-83202438D02*
X147099999Y-83154819D01*
X146290475Y-84107200D02*
X146147618Y-84154819D01*
X146147618Y-84154819D02*
X145909523Y-84154819D01*
X145909523Y-84154819D02*
X145814285Y-84107200D01*
X145814285Y-84107200D02*
X145766666Y-84059580D01*
X145766666Y-84059580D02*
X145719047Y-83964342D01*
X145719047Y-83964342D02*
X145719047Y-83869104D01*
X145719047Y-83869104D02*
X145766666Y-83773866D01*
X145766666Y-83773866D02*
X145814285Y-83726247D01*
X145814285Y-83726247D02*
X145909523Y-83678628D01*
X145909523Y-83678628D02*
X146099999Y-83631009D01*
X146099999Y-83631009D02*
X146195237Y-83583390D01*
X146195237Y-83583390D02*
X146242856Y-83535771D01*
X146242856Y-83535771D02*
X146290475Y-83440533D01*
X146290475Y-83440533D02*
X146290475Y-83345295D01*
X146290475Y-83345295D02*
X146242856Y-83250057D01*
X146242856Y-83250057D02*
X146195237Y-83202438D01*
X146195237Y-83202438D02*
X146099999Y-83154819D01*
X146099999Y-83154819D02*
X145861904Y-83154819D01*
X145861904Y-83154819D02*
X145719047Y-83202438D01*
X147982700Y-81233333D02*
X147949366Y-81166666D01*
X147949366Y-81166666D02*
X147882700Y-81100000D01*
X147882700Y-81100000D02*
X147782700Y-81000000D01*
X147782700Y-81000000D02*
X147749366Y-80933333D01*
X147749366Y-80933333D02*
X147749366Y-80866666D01*
X147916033Y-80900000D02*
X147882700Y-80833333D01*
X147882700Y-80833333D02*
X147816033Y-80766666D01*
X147816033Y-80766666D02*
X147682700Y-80733333D01*
X147682700Y-80733333D02*
X147449366Y-80733333D01*
X147449366Y-80733333D02*
X147316033Y-80766666D01*
X147316033Y-80766666D02*
X147249366Y-80833333D01*
X147249366Y-80833333D02*
X147216033Y-80900000D01*
X147216033Y-80900000D02*
X147216033Y-81033333D01*
X147216033Y-81033333D02*
X147249366Y-81100000D01*
X147249366Y-81100000D02*
X147316033Y-81166666D01*
X147316033Y-81166666D02*
X147449366Y-81200000D01*
X147449366Y-81200000D02*
X147682700Y-81200000D01*
X147682700Y-81200000D02*
X147816033Y-81166666D01*
X147816033Y-81166666D02*
X147882700Y-81100000D01*
X147882700Y-81100000D02*
X147916033Y-81033333D01*
X147916033Y-81033333D02*
X147916033Y-80900000D01*
X147916033Y-81866666D02*
X147916033Y-81466666D01*
X147916033Y-81666666D02*
X147216033Y-81666666D01*
X147216033Y-81666666D02*
X147316033Y-81599999D01*
X147316033Y-81599999D02*
X147382700Y-81533333D01*
X147382700Y-81533333D02*
X147416033Y-81466666D01*
X140754819Y-75890475D02*
X139754819Y-75890475D01*
X139754819Y-75890475D02*
X139754819Y-76128570D01*
X139754819Y-76128570D02*
X139802438Y-76271427D01*
X139802438Y-76271427D02*
X139897676Y-76366665D01*
X139897676Y-76366665D02*
X139992914Y-76414284D01*
X139992914Y-76414284D02*
X140183390Y-76461903D01*
X140183390Y-76461903D02*
X140326247Y-76461903D01*
X140326247Y-76461903D02*
X140516723Y-76414284D01*
X140516723Y-76414284D02*
X140611961Y-76366665D01*
X140611961Y-76366665D02*
X140707200Y-76271427D01*
X140707200Y-76271427D02*
X140754819Y-76128570D01*
X140754819Y-76128570D02*
X140754819Y-75890475D01*
X140850057Y-76652380D02*
X140850057Y-77414284D01*
X140707200Y-77604761D02*
X140754819Y-77747618D01*
X140754819Y-77747618D02*
X140754819Y-77985713D01*
X140754819Y-77985713D02*
X140707200Y-78080951D01*
X140707200Y-78080951D02*
X140659580Y-78128570D01*
X140659580Y-78128570D02*
X140564342Y-78176189D01*
X140564342Y-78176189D02*
X140469104Y-78176189D01*
X140469104Y-78176189D02*
X140373866Y-78128570D01*
X140373866Y-78128570D02*
X140326247Y-78080951D01*
X140326247Y-78080951D02*
X140278628Y-77985713D01*
X140278628Y-77985713D02*
X140231009Y-77795237D01*
X140231009Y-77795237D02*
X140183390Y-77699999D01*
X140183390Y-77699999D02*
X140135771Y-77652380D01*
X140135771Y-77652380D02*
X140040533Y-77604761D01*
X140040533Y-77604761D02*
X139945295Y-77604761D01*
X139945295Y-77604761D02*
X139850057Y-77652380D01*
X139850057Y-77652380D02*
X139802438Y-77699999D01*
X139802438Y-77699999D02*
X139754819Y-77795237D01*
X139754819Y-77795237D02*
X139754819Y-78033332D01*
X139754819Y-78033332D02*
X139802438Y-78176189D01*
X140707200Y-79033332D02*
X140754819Y-78938094D01*
X140754819Y-78938094D02*
X140754819Y-78747618D01*
X140754819Y-78747618D02*
X140707200Y-78652380D01*
X140707200Y-78652380D02*
X140659580Y-78604761D01*
X140659580Y-78604761D02*
X140564342Y-78557142D01*
X140564342Y-78557142D02*
X140278628Y-78557142D01*
X140278628Y-78557142D02*
X140183390Y-78604761D01*
X140183390Y-78604761D02*
X140135771Y-78652380D01*
X140135771Y-78652380D02*
X140088152Y-78747618D01*
X140088152Y-78747618D02*
X140088152Y-78938094D01*
X140088152Y-78938094D02*
X140135771Y-79033332D01*
X140754819Y-79461904D02*
X139754819Y-79461904D01*
X140754819Y-79890475D02*
X140231009Y-79890475D01*
X140231009Y-79890475D02*
X140135771Y-79842856D01*
X140135771Y-79842856D02*
X140088152Y-79747618D01*
X140088152Y-79747618D02*
X140088152Y-79604761D01*
X140088152Y-79604761D02*
X140135771Y-79509523D01*
X140135771Y-79509523D02*
X140183390Y-79461904D01*
X140754819Y-80509523D02*
X140707200Y-80414285D01*
X140707200Y-80414285D02*
X140659580Y-80366666D01*
X140659580Y-80366666D02*
X140564342Y-80319047D01*
X140564342Y-80319047D02*
X140278628Y-80319047D01*
X140278628Y-80319047D02*
X140183390Y-80366666D01*
X140183390Y-80366666D02*
X140135771Y-80414285D01*
X140135771Y-80414285D02*
X140088152Y-80509523D01*
X140088152Y-80509523D02*
X140088152Y-80652380D01*
X140088152Y-80652380D02*
X140135771Y-80747618D01*
X140135771Y-80747618D02*
X140183390Y-80795237D01*
X140183390Y-80795237D02*
X140278628Y-80842856D01*
X140278628Y-80842856D02*
X140564342Y-80842856D01*
X140564342Y-80842856D02*
X140659580Y-80795237D01*
X140659580Y-80795237D02*
X140707200Y-80747618D01*
X140707200Y-80747618D02*
X140754819Y-80652380D01*
X140754819Y-80652380D02*
X140754819Y-80509523D01*
X140088152Y-81128571D02*
X140088152Y-81509523D01*
X139754819Y-81271428D02*
X140611961Y-81271428D01*
X140611961Y-81271428D02*
X140707200Y-81319047D01*
X140707200Y-81319047D02*
X140754819Y-81414285D01*
X140754819Y-81414285D02*
X140754819Y-81509523D01*
X140088152Y-81700000D02*
X140088152Y-82080952D01*
X139754819Y-81842857D02*
X140611961Y-81842857D01*
X140611961Y-81842857D02*
X140707200Y-81890476D01*
X140707200Y-81890476D02*
X140754819Y-81985714D01*
X140754819Y-81985714D02*
X140754819Y-82080952D01*
X140754819Y-82414286D02*
X139754819Y-82414286D01*
X140373866Y-82509524D02*
X140754819Y-82795238D01*
X140088152Y-82795238D02*
X140469104Y-82414286D01*
X140088152Y-83128572D02*
X140754819Y-83366667D01*
X140088152Y-83604762D02*
X140754819Y-83366667D01*
X140754819Y-83366667D02*
X140992914Y-83271429D01*
X140992914Y-83271429D02*
X141040533Y-83223810D01*
X141040533Y-83223810D02*
X141088152Y-83128572D01*
X144616033Y-79183333D02*
X143916033Y-79183333D01*
X143916033Y-79183333D02*
X143916033Y-79350000D01*
X143916033Y-79350000D02*
X143949366Y-79450000D01*
X143949366Y-79450000D02*
X144016033Y-79516667D01*
X144016033Y-79516667D02*
X144082700Y-79550000D01*
X144082700Y-79550000D02*
X144216033Y-79583333D01*
X144216033Y-79583333D02*
X144316033Y-79583333D01*
X144316033Y-79583333D02*
X144449366Y-79550000D01*
X144449366Y-79550000D02*
X144516033Y-79516667D01*
X144516033Y-79516667D02*
X144582700Y-79450000D01*
X144582700Y-79450000D02*
X144616033Y-79350000D01*
X144616033Y-79350000D02*
X144616033Y-79183333D01*
X143982700Y-79850000D02*
X143949366Y-79883333D01*
X143949366Y-79883333D02*
X143916033Y-79950000D01*
X143916033Y-79950000D02*
X143916033Y-80116667D01*
X143916033Y-80116667D02*
X143949366Y-80183333D01*
X143949366Y-80183333D02*
X143982700Y-80216667D01*
X143982700Y-80216667D02*
X144049366Y-80250000D01*
X144049366Y-80250000D02*
X144116033Y-80250000D01*
X144116033Y-80250000D02*
X144216033Y-80216667D01*
X144216033Y-80216667D02*
X144616033Y-79816667D01*
X144616033Y-79816667D02*
X144616033Y-80250000D01*
X158801190Y-90760057D02*
X158753571Y-90712438D01*
X158753571Y-90712438D02*
X158658333Y-90664819D01*
X158658333Y-90664819D02*
X158420238Y-90664819D01*
X158420238Y-90664819D02*
X158325000Y-90712438D01*
X158325000Y-90712438D02*
X158277381Y-90760057D01*
X158277381Y-90760057D02*
X158229762Y-90855295D01*
X158229762Y-90855295D02*
X158229762Y-90950533D01*
X158229762Y-90950533D02*
X158277381Y-91093390D01*
X158277381Y-91093390D02*
X158848809Y-91664819D01*
X158848809Y-91664819D02*
X158229762Y-91664819D01*
X157039285Y-91664819D02*
X157039285Y-90664819D01*
X157039285Y-90664819D02*
X156658333Y-90664819D01*
X156658333Y-90664819D02*
X156563095Y-90712438D01*
X156563095Y-90712438D02*
X156515476Y-90760057D01*
X156515476Y-90760057D02*
X156467857Y-90855295D01*
X156467857Y-90855295D02*
X156467857Y-90998152D01*
X156467857Y-90998152D02*
X156515476Y-91093390D01*
X156515476Y-91093390D02*
X156563095Y-91141009D01*
X156563095Y-91141009D02*
X156658333Y-91188628D01*
X156658333Y-91188628D02*
X157039285Y-91188628D01*
X156039285Y-91664819D02*
X156039285Y-90998152D01*
X156039285Y-90664819D02*
X156086904Y-90712438D01*
X156086904Y-90712438D02*
X156039285Y-90760057D01*
X156039285Y-90760057D02*
X155991666Y-90712438D01*
X155991666Y-90712438D02*
X156039285Y-90664819D01*
X156039285Y-90664819D02*
X156039285Y-90760057D01*
X155563095Y-90998152D02*
X155563095Y-91664819D01*
X155563095Y-91093390D02*
X155515476Y-91045771D01*
X155515476Y-91045771D02*
X155420238Y-90998152D01*
X155420238Y-90998152D02*
X155277381Y-90998152D01*
X155277381Y-90998152D02*
X155182143Y-91045771D01*
X155182143Y-91045771D02*
X155134524Y-91141009D01*
X155134524Y-91141009D02*
X155134524Y-91664819D01*
X153610714Y-90664819D02*
X153610714Y-91379104D01*
X153610714Y-91379104D02*
X153658333Y-91521961D01*
X153658333Y-91521961D02*
X153753571Y-91617200D01*
X153753571Y-91617200D02*
X153896428Y-91664819D01*
X153896428Y-91664819D02*
X153991666Y-91664819D01*
X153182142Y-91617200D02*
X153039285Y-91664819D01*
X153039285Y-91664819D02*
X152801190Y-91664819D01*
X152801190Y-91664819D02*
X152705952Y-91617200D01*
X152705952Y-91617200D02*
X152658333Y-91569580D01*
X152658333Y-91569580D02*
X152610714Y-91474342D01*
X152610714Y-91474342D02*
X152610714Y-91379104D01*
X152610714Y-91379104D02*
X152658333Y-91283866D01*
X152658333Y-91283866D02*
X152705952Y-91236247D01*
X152705952Y-91236247D02*
X152801190Y-91188628D01*
X152801190Y-91188628D02*
X152991666Y-91141009D01*
X152991666Y-91141009D02*
X153086904Y-91093390D01*
X153086904Y-91093390D02*
X153134523Y-91045771D01*
X153134523Y-91045771D02*
X153182142Y-90950533D01*
X153182142Y-90950533D02*
X153182142Y-90855295D01*
X153182142Y-90855295D02*
X153134523Y-90760057D01*
X153134523Y-90760057D02*
X153086904Y-90712438D01*
X153086904Y-90712438D02*
X152991666Y-90664819D01*
X152991666Y-90664819D02*
X152753571Y-90664819D01*
X152753571Y-90664819D02*
X152610714Y-90712438D01*
X152324999Y-90664819D02*
X151753571Y-90664819D01*
X152039285Y-91664819D02*
X152039285Y-90664819D01*
X154941033Y-87866666D02*
X155441033Y-87866666D01*
X155441033Y-87866666D02*
X155541033Y-87833333D01*
X155541033Y-87833333D02*
X155607700Y-87766666D01*
X155607700Y-87766666D02*
X155641033Y-87666666D01*
X155641033Y-87666666D02*
X155641033Y-87600000D01*
X154941033Y-88533333D02*
X154941033Y-88199999D01*
X154941033Y-88199999D02*
X155274366Y-88166666D01*
X155274366Y-88166666D02*
X155241033Y-88199999D01*
X155241033Y-88199999D02*
X155207700Y-88266666D01*
X155207700Y-88266666D02*
X155207700Y-88433333D01*
X155207700Y-88433333D02*
X155241033Y-88499999D01*
X155241033Y-88499999D02*
X155274366Y-88533333D01*
X155274366Y-88533333D02*
X155341033Y-88566666D01*
X155341033Y-88566666D02*
X155507700Y-88566666D01*
X155507700Y-88566666D02*
X155574366Y-88533333D01*
X155574366Y-88533333D02*
X155607700Y-88499999D01*
X155607700Y-88499999D02*
X155641033Y-88433333D01*
X155641033Y-88433333D02*
X155641033Y-88266666D01*
X155641033Y-88266666D02*
X155607700Y-88199999D01*
X155607700Y-88199999D02*
X155574366Y-88166666D01*
X149754819Y-81252975D02*
X148754819Y-81252975D01*
X148754819Y-81252975D02*
X148754819Y-81491070D01*
X148754819Y-81491070D02*
X148802438Y-81633927D01*
X148802438Y-81633927D02*
X148897676Y-81729165D01*
X148897676Y-81729165D02*
X148992914Y-81776784D01*
X148992914Y-81776784D02*
X149183390Y-81824403D01*
X149183390Y-81824403D02*
X149326247Y-81824403D01*
X149326247Y-81824403D02*
X149516723Y-81776784D01*
X149516723Y-81776784D02*
X149611961Y-81729165D01*
X149611961Y-81729165D02*
X149707200Y-81633927D01*
X149707200Y-81633927D02*
X149754819Y-81491070D01*
X149754819Y-81491070D02*
X149754819Y-81252975D01*
X149850057Y-82014880D02*
X149850057Y-82776784D01*
X149707200Y-82967261D02*
X149754819Y-83110118D01*
X149754819Y-83110118D02*
X149754819Y-83348213D01*
X149754819Y-83348213D02*
X149707200Y-83443451D01*
X149707200Y-83443451D02*
X149659580Y-83491070D01*
X149659580Y-83491070D02*
X149564342Y-83538689D01*
X149564342Y-83538689D02*
X149469104Y-83538689D01*
X149469104Y-83538689D02*
X149373866Y-83491070D01*
X149373866Y-83491070D02*
X149326247Y-83443451D01*
X149326247Y-83443451D02*
X149278628Y-83348213D01*
X149278628Y-83348213D02*
X149231009Y-83157737D01*
X149231009Y-83157737D02*
X149183390Y-83062499D01*
X149183390Y-83062499D02*
X149135771Y-83014880D01*
X149135771Y-83014880D02*
X149040533Y-82967261D01*
X149040533Y-82967261D02*
X148945295Y-82967261D01*
X148945295Y-82967261D02*
X148850057Y-83014880D01*
X148850057Y-83014880D02*
X148802438Y-83062499D01*
X148802438Y-83062499D02*
X148754819Y-83157737D01*
X148754819Y-83157737D02*
X148754819Y-83395832D01*
X148754819Y-83395832D02*
X148802438Y-83538689D01*
X149707200Y-84395832D02*
X149754819Y-84300594D01*
X149754819Y-84300594D02*
X149754819Y-84110118D01*
X149754819Y-84110118D02*
X149707200Y-84014880D01*
X149707200Y-84014880D02*
X149659580Y-83967261D01*
X149659580Y-83967261D02*
X149564342Y-83919642D01*
X149564342Y-83919642D02*
X149278628Y-83919642D01*
X149278628Y-83919642D02*
X149183390Y-83967261D01*
X149183390Y-83967261D02*
X149135771Y-84014880D01*
X149135771Y-84014880D02*
X149088152Y-84110118D01*
X149088152Y-84110118D02*
X149088152Y-84300594D01*
X149088152Y-84300594D02*
X149135771Y-84395832D01*
X149754819Y-84824404D02*
X148754819Y-84824404D01*
X149754819Y-85252975D02*
X149231009Y-85252975D01*
X149231009Y-85252975D02*
X149135771Y-85205356D01*
X149135771Y-85205356D02*
X149088152Y-85110118D01*
X149088152Y-85110118D02*
X149088152Y-84967261D01*
X149088152Y-84967261D02*
X149135771Y-84872023D01*
X149135771Y-84872023D02*
X149183390Y-84824404D01*
X149754819Y-85872023D02*
X149707200Y-85776785D01*
X149707200Y-85776785D02*
X149659580Y-85729166D01*
X149659580Y-85729166D02*
X149564342Y-85681547D01*
X149564342Y-85681547D02*
X149278628Y-85681547D01*
X149278628Y-85681547D02*
X149183390Y-85729166D01*
X149183390Y-85729166D02*
X149135771Y-85776785D01*
X149135771Y-85776785D02*
X149088152Y-85872023D01*
X149088152Y-85872023D02*
X149088152Y-86014880D01*
X149088152Y-86014880D02*
X149135771Y-86110118D01*
X149135771Y-86110118D02*
X149183390Y-86157737D01*
X149183390Y-86157737D02*
X149278628Y-86205356D01*
X149278628Y-86205356D02*
X149564342Y-86205356D01*
X149564342Y-86205356D02*
X149659580Y-86157737D01*
X149659580Y-86157737D02*
X149707200Y-86110118D01*
X149707200Y-86110118D02*
X149754819Y-86014880D01*
X149754819Y-86014880D02*
X149754819Y-85872023D01*
X149088152Y-86491071D02*
X149088152Y-86872023D01*
X148754819Y-86633928D02*
X149611961Y-86633928D01*
X149611961Y-86633928D02*
X149707200Y-86681547D01*
X149707200Y-86681547D02*
X149754819Y-86776785D01*
X149754819Y-86776785D02*
X149754819Y-86872023D01*
X149088152Y-87062500D02*
X149088152Y-87443452D01*
X148754819Y-87205357D02*
X149611961Y-87205357D01*
X149611961Y-87205357D02*
X149707200Y-87252976D01*
X149707200Y-87252976D02*
X149754819Y-87348214D01*
X149754819Y-87348214D02*
X149754819Y-87443452D01*
X149754819Y-87776786D02*
X148754819Y-87776786D01*
X149373866Y-87872024D02*
X149754819Y-88157738D01*
X149088152Y-88157738D02*
X149469104Y-87776786D01*
X149088152Y-88491072D02*
X149754819Y-88729167D01*
X149088152Y-88967262D02*
X149754819Y-88729167D01*
X149754819Y-88729167D02*
X149992914Y-88633929D01*
X149992914Y-88633929D02*
X150040533Y-88586310D01*
X150040533Y-88586310D02*
X150088152Y-88491072D01*
X153616033Y-84545833D02*
X152916033Y-84545833D01*
X152916033Y-84545833D02*
X152916033Y-84712500D01*
X152916033Y-84712500D02*
X152949366Y-84812500D01*
X152949366Y-84812500D02*
X153016033Y-84879167D01*
X153016033Y-84879167D02*
X153082700Y-84912500D01*
X153082700Y-84912500D02*
X153216033Y-84945833D01*
X153216033Y-84945833D02*
X153316033Y-84945833D01*
X153316033Y-84945833D02*
X153449366Y-84912500D01*
X153449366Y-84912500D02*
X153516033Y-84879167D01*
X153516033Y-84879167D02*
X153582700Y-84812500D01*
X153582700Y-84812500D02*
X153616033Y-84712500D01*
X153616033Y-84712500D02*
X153616033Y-84545833D01*
X153149366Y-85545833D02*
X153616033Y-85545833D01*
X152882700Y-85379167D02*
X153382700Y-85212500D01*
X153382700Y-85212500D02*
X153382700Y-85645833D01*
X129704761Y-85138152D02*
X129704761Y-85804819D01*
X129942856Y-84757200D02*
X130180951Y-85471485D01*
X130180951Y-85471485D02*
X129561904Y-85471485D01*
X129180951Y-85709580D02*
X129133332Y-85757200D01*
X129133332Y-85757200D02*
X129180951Y-85804819D01*
X129180951Y-85804819D02*
X129228570Y-85757200D01*
X129228570Y-85757200D02*
X129180951Y-85709580D01*
X129180951Y-85709580D02*
X129180951Y-85804819D01*
X128799999Y-84804819D02*
X128133333Y-84804819D01*
X128133333Y-84804819D02*
X128561904Y-85804819D01*
X127323809Y-85138152D02*
X127323809Y-85804819D01*
X127752380Y-85138152D02*
X127752380Y-85661961D01*
X127752380Y-85661961D02*
X127704761Y-85757200D01*
X127704761Y-85757200D02*
X127609523Y-85804819D01*
X127609523Y-85804819D02*
X127466666Y-85804819D01*
X127466666Y-85804819D02*
X127371428Y-85757200D01*
X127371428Y-85757200D02*
X127323809Y-85709580D01*
X126514285Y-85281009D02*
X126847618Y-85281009D01*
X126847618Y-85804819D02*
X126847618Y-84804819D01*
X126847618Y-84804819D02*
X126371428Y-84804819D01*
X128416666Y-83749366D02*
X128449999Y-83782700D01*
X128449999Y-83782700D02*
X128549999Y-83816033D01*
X128549999Y-83816033D02*
X128616666Y-83816033D01*
X128616666Y-83816033D02*
X128716666Y-83782700D01*
X128716666Y-83782700D02*
X128783333Y-83716033D01*
X128783333Y-83716033D02*
X128816666Y-83649366D01*
X128816666Y-83649366D02*
X128849999Y-83516033D01*
X128849999Y-83516033D02*
X128849999Y-83416033D01*
X128849999Y-83416033D02*
X128816666Y-83282700D01*
X128816666Y-83282700D02*
X128783333Y-83216033D01*
X128783333Y-83216033D02*
X128716666Y-83149366D01*
X128716666Y-83149366D02*
X128616666Y-83116033D01*
X128616666Y-83116033D02*
X128549999Y-83116033D01*
X128549999Y-83116033D02*
X128449999Y-83149366D01*
X128449999Y-83149366D02*
X128416666Y-83182700D01*
X127749999Y-83816033D02*
X128149999Y-83816033D01*
X127949999Y-83816033D02*
X127949999Y-83116033D01*
X127949999Y-83116033D02*
X128016666Y-83216033D01*
X128016666Y-83216033D02*
X128083333Y-83282700D01*
X128083333Y-83282700D02*
X128149999Y-83316033D01*
X156980057Y-74674405D02*
X156932438Y-74722024D01*
X156932438Y-74722024D02*
X156884819Y-74817262D01*
X156884819Y-74817262D02*
X156884819Y-75055357D01*
X156884819Y-75055357D02*
X156932438Y-75150595D01*
X156932438Y-75150595D02*
X156980057Y-75198214D01*
X156980057Y-75198214D02*
X157075295Y-75245833D01*
X157075295Y-75245833D02*
X157170533Y-75245833D01*
X157170533Y-75245833D02*
X157313390Y-75198214D01*
X157313390Y-75198214D02*
X157884819Y-74626786D01*
X157884819Y-74626786D02*
X157884819Y-75245833D01*
X156884819Y-76150595D02*
X156884819Y-75674405D01*
X156884819Y-75674405D02*
X157361009Y-75626786D01*
X157361009Y-75626786D02*
X157313390Y-75674405D01*
X157313390Y-75674405D02*
X157265771Y-75769643D01*
X157265771Y-75769643D02*
X157265771Y-76007738D01*
X157265771Y-76007738D02*
X157313390Y-76102976D01*
X157313390Y-76102976D02*
X157361009Y-76150595D01*
X157361009Y-76150595D02*
X157456247Y-76198214D01*
X157456247Y-76198214D02*
X157694342Y-76198214D01*
X157694342Y-76198214D02*
X157789580Y-76150595D01*
X157789580Y-76150595D02*
X157837200Y-76102976D01*
X157837200Y-76102976D02*
X157884819Y-76007738D01*
X157884819Y-76007738D02*
X157884819Y-75769643D01*
X157884819Y-75769643D02*
X157837200Y-75674405D01*
X157837200Y-75674405D02*
X157789580Y-75626786D01*
X156884819Y-76817262D02*
X156884819Y-76912500D01*
X156884819Y-76912500D02*
X156932438Y-77007738D01*
X156932438Y-77007738D02*
X156980057Y-77055357D01*
X156980057Y-77055357D02*
X157075295Y-77102976D01*
X157075295Y-77102976D02*
X157265771Y-77150595D01*
X157265771Y-77150595D02*
X157503866Y-77150595D01*
X157503866Y-77150595D02*
X157694342Y-77102976D01*
X157694342Y-77102976D02*
X157789580Y-77055357D01*
X157789580Y-77055357D02*
X157837200Y-77007738D01*
X157837200Y-77007738D02*
X157884819Y-76912500D01*
X157884819Y-76912500D02*
X157884819Y-76817262D01*
X157884819Y-76817262D02*
X157837200Y-76722024D01*
X157837200Y-76722024D02*
X157789580Y-76674405D01*
X157789580Y-76674405D02*
X157694342Y-76626786D01*
X157694342Y-76626786D02*
X157503866Y-76579167D01*
X157503866Y-76579167D02*
X157265771Y-76579167D01*
X157265771Y-76579167D02*
X157075295Y-76626786D01*
X157075295Y-76626786D02*
X156980057Y-76674405D01*
X156980057Y-76674405D02*
X156932438Y-76722024D01*
X156932438Y-76722024D02*
X156884819Y-76817262D01*
X155916033Y-75795833D02*
X155582700Y-75562500D01*
X155916033Y-75395833D02*
X155216033Y-75395833D01*
X155216033Y-75395833D02*
X155216033Y-75662500D01*
X155216033Y-75662500D02*
X155249366Y-75729167D01*
X155249366Y-75729167D02*
X155282700Y-75762500D01*
X155282700Y-75762500D02*
X155349366Y-75795833D01*
X155349366Y-75795833D02*
X155449366Y-75795833D01*
X155449366Y-75795833D02*
X155516033Y-75762500D01*
X155516033Y-75762500D02*
X155549366Y-75729167D01*
X155549366Y-75729167D02*
X155582700Y-75662500D01*
X155582700Y-75662500D02*
X155582700Y-75395833D01*
X155449366Y-76395833D02*
X155916033Y-76395833D01*
X155182700Y-76229167D02*
X155682700Y-76062500D01*
X155682700Y-76062500D02*
X155682700Y-76495833D01*
X132014285Y-93654819D02*
X132014285Y-92654819D01*
X132014285Y-92654819D02*
X131680952Y-93369104D01*
X131680952Y-93369104D02*
X131347619Y-92654819D01*
X131347619Y-92654819D02*
X131347619Y-93654819D01*
X130300000Y-93559580D02*
X130347619Y-93607200D01*
X130347619Y-93607200D02*
X130490476Y-93654819D01*
X130490476Y-93654819D02*
X130585714Y-93654819D01*
X130585714Y-93654819D02*
X130728571Y-93607200D01*
X130728571Y-93607200D02*
X130823809Y-93511961D01*
X130823809Y-93511961D02*
X130871428Y-93416723D01*
X130871428Y-93416723D02*
X130919047Y-93226247D01*
X130919047Y-93226247D02*
X130919047Y-93083390D01*
X130919047Y-93083390D02*
X130871428Y-92892914D01*
X130871428Y-92892914D02*
X130823809Y-92797676D01*
X130823809Y-92797676D02*
X130728571Y-92702438D01*
X130728571Y-92702438D02*
X130585714Y-92654819D01*
X130585714Y-92654819D02*
X130490476Y-92654819D01*
X130490476Y-92654819D02*
X130347619Y-92702438D01*
X130347619Y-92702438D02*
X130300000Y-92750057D01*
X129871428Y-93654819D02*
X129871428Y-92654819D01*
X129871428Y-92654819D02*
X129490476Y-92654819D01*
X129490476Y-92654819D02*
X129395238Y-92702438D01*
X129395238Y-92702438D02*
X129347619Y-92750057D01*
X129347619Y-92750057D02*
X129300000Y-92845295D01*
X129300000Y-92845295D02*
X129300000Y-92988152D01*
X129300000Y-92988152D02*
X129347619Y-93083390D01*
X129347619Y-93083390D02*
X129395238Y-93131009D01*
X129395238Y-93131009D02*
X129490476Y-93178628D01*
X129490476Y-93178628D02*
X129871428Y-93178628D01*
X128347619Y-93654819D02*
X128919047Y-93654819D01*
X128633333Y-93654819D02*
X128633333Y-92654819D01*
X128633333Y-92654819D02*
X128728571Y-92797676D01*
X128728571Y-92797676D02*
X128823809Y-92892914D01*
X128823809Y-92892914D02*
X128919047Y-92940533D01*
X127776190Y-93083390D02*
X127871428Y-93035771D01*
X127871428Y-93035771D02*
X127919047Y-92988152D01*
X127919047Y-92988152D02*
X127966666Y-92892914D01*
X127966666Y-92892914D02*
X127966666Y-92845295D01*
X127966666Y-92845295D02*
X127919047Y-92750057D01*
X127919047Y-92750057D02*
X127871428Y-92702438D01*
X127871428Y-92702438D02*
X127776190Y-92654819D01*
X127776190Y-92654819D02*
X127585714Y-92654819D01*
X127585714Y-92654819D02*
X127490476Y-92702438D01*
X127490476Y-92702438D02*
X127442857Y-92750057D01*
X127442857Y-92750057D02*
X127395238Y-92845295D01*
X127395238Y-92845295D02*
X127395238Y-92892914D01*
X127395238Y-92892914D02*
X127442857Y-92988152D01*
X127442857Y-92988152D02*
X127490476Y-93035771D01*
X127490476Y-93035771D02*
X127585714Y-93083390D01*
X127585714Y-93083390D02*
X127776190Y-93083390D01*
X127776190Y-93083390D02*
X127871428Y-93131009D01*
X127871428Y-93131009D02*
X127919047Y-93178628D01*
X127919047Y-93178628D02*
X127966666Y-93273866D01*
X127966666Y-93273866D02*
X127966666Y-93464342D01*
X127966666Y-93464342D02*
X127919047Y-93559580D01*
X127919047Y-93559580D02*
X127871428Y-93607200D01*
X127871428Y-93607200D02*
X127776190Y-93654819D01*
X127776190Y-93654819D02*
X127585714Y-93654819D01*
X127585714Y-93654819D02*
X127490476Y-93607200D01*
X127490476Y-93607200D02*
X127442857Y-93559580D01*
X127442857Y-93559580D02*
X127395238Y-93464342D01*
X127395238Y-93464342D02*
X127395238Y-93273866D01*
X127395238Y-93273866D02*
X127442857Y-93178628D01*
X127442857Y-93178628D02*
X127490476Y-93131009D01*
X127490476Y-93131009D02*
X127585714Y-93083390D01*
X127014285Y-92750057D02*
X126966666Y-92702438D01*
X126966666Y-92702438D02*
X126871428Y-92654819D01*
X126871428Y-92654819D02*
X126633333Y-92654819D01*
X126633333Y-92654819D02*
X126538095Y-92702438D01*
X126538095Y-92702438D02*
X126490476Y-92750057D01*
X126490476Y-92750057D02*
X126442857Y-92845295D01*
X126442857Y-92845295D02*
X126442857Y-92940533D01*
X126442857Y-92940533D02*
X126490476Y-93083390D01*
X126490476Y-93083390D02*
X127061904Y-93654819D01*
X127061904Y-93654819D02*
X126442857Y-93654819D01*
X125585714Y-92988152D02*
X125585714Y-93654819D01*
X125823809Y-92607200D02*
X126061904Y-93321485D01*
X126061904Y-93321485D02*
X125442857Y-93321485D01*
X125109523Y-93607200D02*
X124966666Y-93654819D01*
X124966666Y-93654819D02*
X124728571Y-93654819D01*
X124728571Y-93654819D02*
X124633333Y-93607200D01*
X124633333Y-93607200D02*
X124585714Y-93559580D01*
X124585714Y-93559580D02*
X124538095Y-93464342D01*
X124538095Y-93464342D02*
X124538095Y-93369104D01*
X124538095Y-93369104D02*
X124585714Y-93273866D01*
X124585714Y-93273866D02*
X124633333Y-93226247D01*
X124633333Y-93226247D02*
X124728571Y-93178628D01*
X124728571Y-93178628D02*
X124919047Y-93131009D01*
X124919047Y-93131009D02*
X125014285Y-93083390D01*
X125014285Y-93083390D02*
X125061904Y-93035771D01*
X125061904Y-93035771D02*
X125109523Y-92940533D01*
X125109523Y-92940533D02*
X125109523Y-92845295D01*
X125109523Y-92845295D02*
X125061904Y-92750057D01*
X125061904Y-92750057D02*
X125014285Y-92702438D01*
X125014285Y-92702438D02*
X124919047Y-92654819D01*
X124919047Y-92654819D02*
X124680952Y-92654819D01*
X124680952Y-92654819D02*
X124538095Y-92702438D01*
X127916033Y-88166666D02*
X128482700Y-88166666D01*
X128482700Y-88166666D02*
X128549366Y-88200000D01*
X128549366Y-88200000D02*
X128582700Y-88233333D01*
X128582700Y-88233333D02*
X128616033Y-88300000D01*
X128616033Y-88300000D02*
X128616033Y-88433333D01*
X128616033Y-88433333D02*
X128582700Y-88500000D01*
X128582700Y-88500000D02*
X128549366Y-88533333D01*
X128549366Y-88533333D02*
X128482700Y-88566666D01*
X128482700Y-88566666D02*
X127916033Y-88566666D01*
X127916033Y-88833333D02*
X127916033Y-89266666D01*
X127916033Y-89266666D02*
X128182700Y-89033333D01*
X128182700Y-89033333D02*
X128182700Y-89133333D01*
X128182700Y-89133333D02*
X128216033Y-89199999D01*
X128216033Y-89199999D02*
X128249366Y-89233333D01*
X128249366Y-89233333D02*
X128316033Y-89266666D01*
X128316033Y-89266666D02*
X128482700Y-89266666D01*
X128482700Y-89266666D02*
X128549366Y-89233333D01*
X128549366Y-89233333D02*
X128582700Y-89199999D01*
X128582700Y-89199999D02*
X128616033Y-89133333D01*
X128616033Y-89133333D02*
X128616033Y-88933333D01*
X128616033Y-88933333D02*
X128582700Y-88866666D01*
X128582700Y-88866666D02*
X128549366Y-88833333D01*
X133804819Y-94204761D02*
X133804819Y-93633333D01*
X133804819Y-93919047D02*
X132804819Y-93919047D01*
X132804819Y-93919047D02*
X132947676Y-93823809D01*
X132947676Y-93823809D02*
X133042914Y-93728571D01*
X133042914Y-93728571D02*
X133090533Y-93633333D01*
X133138152Y-95061904D02*
X133804819Y-95061904D01*
X133138152Y-94633333D02*
X133661961Y-94633333D01*
X133661961Y-94633333D02*
X133757200Y-94680952D01*
X133757200Y-94680952D02*
X133804819Y-94776190D01*
X133804819Y-94776190D02*
X133804819Y-94919047D01*
X133804819Y-94919047D02*
X133757200Y-95014285D01*
X133757200Y-95014285D02*
X133709580Y-95061904D01*
X133281009Y-95871428D02*
X133281009Y-95538095D01*
X133804819Y-95538095D02*
X132804819Y-95538095D01*
X132804819Y-95538095D02*
X132804819Y-96014285D01*
X131749366Y-94683333D02*
X131782700Y-94650000D01*
X131782700Y-94650000D02*
X131816033Y-94550000D01*
X131816033Y-94550000D02*
X131816033Y-94483333D01*
X131816033Y-94483333D02*
X131782700Y-94383333D01*
X131782700Y-94383333D02*
X131716033Y-94316667D01*
X131716033Y-94316667D02*
X131649366Y-94283333D01*
X131649366Y-94283333D02*
X131516033Y-94250000D01*
X131516033Y-94250000D02*
X131416033Y-94250000D01*
X131416033Y-94250000D02*
X131282700Y-94283333D01*
X131282700Y-94283333D02*
X131216033Y-94316667D01*
X131216033Y-94316667D02*
X131149366Y-94383333D01*
X131149366Y-94383333D02*
X131116033Y-94483333D01*
X131116033Y-94483333D02*
X131116033Y-94550000D01*
X131116033Y-94550000D02*
X131149366Y-94650000D01*
X131149366Y-94650000D02*
X131182700Y-94683333D01*
X131182700Y-94950000D02*
X131149366Y-94983333D01*
X131149366Y-94983333D02*
X131116033Y-95050000D01*
X131116033Y-95050000D02*
X131116033Y-95216667D01*
X131116033Y-95216667D02*
X131149366Y-95283333D01*
X131149366Y-95283333D02*
X131182700Y-95316667D01*
X131182700Y-95316667D02*
X131249366Y-95350000D01*
X131249366Y-95350000D02*
X131316033Y-95350000D01*
X131316033Y-95350000D02*
X131416033Y-95316667D01*
X131416033Y-95316667D02*
X131816033Y-94916667D01*
X131816033Y-94916667D02*
X131816033Y-95350000D01*
X156978571Y-69887319D02*
X157169047Y-69887319D01*
X157169047Y-69887319D02*
X157264285Y-69934938D01*
X157264285Y-69934938D02*
X157311904Y-69982557D01*
X157311904Y-69982557D02*
X157407142Y-70125414D01*
X157407142Y-70125414D02*
X157454761Y-70315890D01*
X157454761Y-70315890D02*
X157454761Y-70696842D01*
X157454761Y-70696842D02*
X157407142Y-70792080D01*
X157407142Y-70792080D02*
X157359523Y-70839700D01*
X157359523Y-70839700D02*
X157264285Y-70887319D01*
X157264285Y-70887319D02*
X157073809Y-70887319D01*
X157073809Y-70887319D02*
X156978571Y-70839700D01*
X156978571Y-70839700D02*
X156930952Y-70792080D01*
X156930952Y-70792080D02*
X156883333Y-70696842D01*
X156883333Y-70696842D02*
X156883333Y-70458747D01*
X156883333Y-70458747D02*
X156930952Y-70363509D01*
X156930952Y-70363509D02*
X156978571Y-70315890D01*
X156978571Y-70315890D02*
X157073809Y-70268271D01*
X157073809Y-70268271D02*
X157264285Y-70268271D01*
X157264285Y-70268271D02*
X157359523Y-70315890D01*
X157359523Y-70315890D02*
X157407142Y-70363509D01*
X157407142Y-70363509D02*
X157454761Y-70458747D01*
X156454761Y-70792080D02*
X156407142Y-70839700D01*
X156407142Y-70839700D02*
X156454761Y-70887319D01*
X156454761Y-70887319D02*
X156502380Y-70839700D01*
X156502380Y-70839700D02*
X156454761Y-70792080D01*
X156454761Y-70792080D02*
X156454761Y-70887319D01*
X156026190Y-69982557D02*
X155978571Y-69934938D01*
X155978571Y-69934938D02*
X155883333Y-69887319D01*
X155883333Y-69887319D02*
X155645238Y-69887319D01*
X155645238Y-69887319D02*
X155550000Y-69934938D01*
X155550000Y-69934938D02*
X155502381Y-69982557D01*
X155502381Y-69982557D02*
X155454762Y-70077795D01*
X155454762Y-70077795D02*
X155454762Y-70173033D01*
X155454762Y-70173033D02*
X155502381Y-70315890D01*
X155502381Y-70315890D02*
X156073809Y-70887319D01*
X156073809Y-70887319D02*
X155454762Y-70887319D01*
X155026190Y-70887319D02*
X155026190Y-69887319D01*
X154930952Y-70506366D02*
X154645238Y-70887319D01*
X154645238Y-70220652D02*
X155026190Y-70601604D01*
X156166666Y-72578533D02*
X156399999Y-72245200D01*
X156566666Y-72578533D02*
X156566666Y-71878533D01*
X156566666Y-71878533D02*
X156299999Y-71878533D01*
X156299999Y-71878533D02*
X156233333Y-71911866D01*
X156233333Y-71911866D02*
X156199999Y-71945200D01*
X156199999Y-71945200D02*
X156166666Y-72011866D01*
X156166666Y-72011866D02*
X156166666Y-72111866D01*
X156166666Y-72111866D02*
X156199999Y-72178533D01*
X156199999Y-72178533D02*
X156233333Y-72211866D01*
X156233333Y-72211866D02*
X156299999Y-72245200D01*
X156299999Y-72245200D02*
X156566666Y-72245200D01*
X155533333Y-71878533D02*
X155866666Y-71878533D01*
X155866666Y-71878533D02*
X155899999Y-72211866D01*
X155899999Y-72211866D02*
X155866666Y-72178533D01*
X155866666Y-72178533D02*
X155799999Y-72145200D01*
X155799999Y-72145200D02*
X155633333Y-72145200D01*
X155633333Y-72145200D02*
X155566666Y-72178533D01*
X155566666Y-72178533D02*
X155533333Y-72211866D01*
X155533333Y-72211866D02*
X155499999Y-72278533D01*
X155499999Y-72278533D02*
X155499999Y-72445200D01*
X155499999Y-72445200D02*
X155533333Y-72511866D01*
X155533333Y-72511866D02*
X155566666Y-72545200D01*
X155566666Y-72545200D02*
X155633333Y-72578533D01*
X155633333Y-72578533D02*
X155799999Y-72578533D01*
X155799999Y-72578533D02*
X155866666Y-72545200D01*
X155866666Y-72545200D02*
X155899999Y-72511866D01*
D11*
%TO.C,R8*%
X150500000Y-78862500D02*
X150900000Y-78462500D01*
X150500000Y-81662500D02*
X150500000Y-78862500D01*
X150900000Y-78462500D02*
X152100000Y-78462500D01*
X152100000Y-78462500D02*
X152100000Y-81662500D01*
X152100000Y-81662500D02*
X150500000Y-81662500D01*
%TO.C,D1*%
X151100000Y-67662500D02*
X154500000Y-67662500D01*
X151100000Y-69762500D02*
X152000000Y-70662500D01*
X151100000Y-70662500D02*
X151100000Y-67662500D01*
X154500000Y-67662500D02*
X154500000Y-70662500D01*
X154500000Y-70662500D02*
X151100000Y-70662500D01*
X154050000Y-69162500D02*
G75*
G02*
X151550000Y-69162500I-1250000J0D01*
G01*
X151550000Y-69162500D02*
G75*
G02*
X154050000Y-69162500I1250000J0D01*
G01*
%TO.C,Q1*%
X148250000Y-80175000D02*
X148250000Y-82750000D01*
X146950000Y-82750000D01*
X146950000Y-79850000D01*
X147925000Y-79850000D01*
X148250000Y-80175000D01*
%TO.C,D2*%
X141400000Y-78300000D02*
X141400000Y-81100000D01*
X141400000Y-81100000D02*
X143200000Y-81100000D01*
X141900000Y-79400000D02*
X142700000Y-79400000D01*
X142298980Y-80000000D02*
X141900000Y-79400000D01*
X142300000Y-79400000D02*
X142300000Y-78800000D01*
X142300000Y-80000000D02*
X142300000Y-80600000D01*
X142300000Y-80000000D02*
X142700000Y-79400000D01*
X142700000Y-80000000D02*
X141900000Y-80000000D01*
X143200000Y-78300000D02*
X141400000Y-78300000D01*
X143200000Y-78300000D02*
X143200000Y-81100000D01*
%TO.C,J5*%
X153225000Y-86850000D02*
X153225000Y-87350000D01*
X153225000Y-87350000D02*
X154325000Y-87350000D01*
X154325000Y-86850000D02*
X153225000Y-86850000D01*
X154325000Y-86850000D02*
X155075000Y-86100000D01*
X154325000Y-90100000D02*
X154325000Y-86850000D01*
X154325000Y-90100000D02*
X156325000Y-90100000D01*
X156325000Y-86100000D02*
X155075000Y-86100000D01*
X156325000Y-86100000D02*
X156325000Y-90100000D01*
X156325000Y-88850000D02*
X157425000Y-88850000D01*
X157425000Y-88850000D02*
X157425000Y-89350000D01*
X157425000Y-89350000D02*
X156325000Y-89350000D01*
%TO.C,D4*%
X150400000Y-83662500D02*
X150400000Y-86462500D01*
X150400000Y-86462500D02*
X152200000Y-86462500D01*
X150900000Y-84762500D02*
X151700000Y-84762500D01*
X151298980Y-85362500D02*
X150900000Y-84762500D01*
X151300000Y-84762500D02*
X151300000Y-84162500D01*
X151300000Y-85362500D02*
X151300000Y-85962500D01*
X151300000Y-85362500D02*
X151700000Y-84762500D01*
X151700000Y-85362500D02*
X150900000Y-85362500D01*
X152200000Y-83662500D02*
X150400000Y-83662500D01*
X152200000Y-83662500D02*
X152200000Y-86462500D01*
%TO.C,C1*%
X126700000Y-82700000D02*
X126700000Y-84300000D01*
X126700000Y-84300000D02*
X129900000Y-84300000D01*
X129900000Y-82700000D02*
X126700000Y-82700000D01*
X129900000Y-84300000D02*
X129900000Y-82700000D01*
%TO.C,R4*%
X154800000Y-74312500D02*
X154800000Y-77512500D01*
X154800000Y-77512500D02*
X156400000Y-77512500D01*
X156400000Y-74312500D02*
X154800000Y-74312500D01*
X156400000Y-77512500D02*
X156400000Y-74312500D01*
%TO.C,U3*%
X126450000Y-85350000D02*
X126450000Y-92050000D01*
X129150000Y-85350000D02*
X126450000Y-85350000D01*
X130150000Y-86350000D02*
X129150000Y-85350000D01*
X130150000Y-86350000D02*
X130150000Y-92050000D01*
X130150000Y-92050000D02*
X126450000Y-92050000D01*
%TO.C,C2*%
X130700000Y-93200000D02*
X130700000Y-96400000D01*
X130700000Y-96400000D02*
X132300000Y-96400000D01*
X132300000Y-93200000D02*
X130700000Y-93200000D01*
X132300000Y-96400000D02*
X132300000Y-93200000D01*
%TO.C,R5*%
X154450000Y-71462500D02*
X154450000Y-73062500D01*
X154450000Y-73062500D02*
X157650000Y-73062500D01*
X157650000Y-71462500D02*
X154450000Y-71462500D01*
X157650000Y-73062500D02*
X157650000Y-71462500D01*
%TD*%
M02*
