M48
; DRILL file {KiCad 9.0.6} date 2026-06-22T12:24:42-0700
; FORMAT={-:-/ absolute / metric / decimal}
; #@! TF.CreationDate,2026-06-22T12:24:42-07:00
; #@! TF.GenerationSoftware,Kicad,Pcbnew,9.0.6
; #@! TF.FileFunction,Plated,1,2,PTH
FMAT,2
METRIC
; #@! TA.AperFunction,Plated,PTH,ViaDrill
T1C0.300
; #@! TA.AperFunction,Plated,PTH,ComponentDrill
T2C0.500
; #@! TA.AperFunction,Plated,PTH,ComponentDrill
T3C0.650
; #@! TA.AperFunction,Plated,PTH,ComponentDrill
T4C0.700
; #@! TA.AperFunction,Plated,PTH,ComponentDrill
T5C1.000
; #@! TA.AperFunction,Plated,PTH,ViaDrill
T6C4.000
%
G90
G05
T1
X121.15Y-67.0
X122.85Y-71.85
X122.85Y-85.7
X122.9Y-81.85
X122.9Y-88.55
X122.95Y-91.7
X127.65Y-90.7
X127.8Y-71.5
X127.9Y-94.55
X128.7Y-88.7
X130.4Y-79.8
X131.1Y-84.8
X132.2Y-72.1
X133.6Y-78.45
X133.7Y-82.5
X135.7Y-86.8
X136.1Y-67.9
X136.3Y-89.3
X136.55Y-72.0
X137.0Y-90.75
X137.1Y-88.425
X137.75Y-82.8
X137.8Y-94.0
X138.0Y-74.8
X138.95Y-74.5
X139.0Y-90.75
X140.3Y-80.95
X140.3Y-94.0
X140.9Y-84.8
X141.55Y-90.75
X142.7Y-72.0
X142.7Y-84.7
X142.7Y-94.0
X143.65Y-90.75
X144.4Y-75.4
X144.4Y-82.7
X144.7Y-78.8
X145.0Y-72.2
X145.2Y-94.0
X145.25Y-90.75
X145.3Y-75.3
X146.0Y-86.9
X146.8Y-84.4
X147.5Y-79.6
X149.55Y-81.35
X149.7Y-71.45
X149.85Y-75.8
X149.95Y-79.55
X151.1Y-96.45
X151.2Y-91.5
X151.35Y-85.0
X153.85Y-74.2
X154.1Y-81.6
X155.4Y-80.05
X155.7Y-67.05
X156.65Y-92.05
X157.7Y-74.55
T2
X121.3Y-70.25
X121.3Y-76.5
T5
X130.4Y-67.66
X130.4Y-70.2
X130.4Y-72.74
X130.4Y-75.28
X134.0Y-67.66
X134.0Y-70.2
X134.0Y-72.74
X134.0Y-75.28
X134.1Y-84.41
X134.1Y-86.95
X134.1Y-89.49
X134.1Y-92.03
X134.1Y-94.57
X147.7Y-67.72
X147.7Y-70.26
X147.7Y-72.8
X147.7Y-75.34
X147.7Y-77.88
X148.7Y-84.41
X148.7Y-86.95
X148.7Y-89.49
X148.7Y-92.03
X148.7Y-94.57
T6
X123.6Y-95.6
X155.5Y-95.5
T3
G00X138.955Y-70.485
M15
G01X138.955Y-70.885
M16
G05
G00X143.795Y-70.485
M15
G01X143.795Y-70.885
M16
G05
T4
G00X138.645Y-67.435
M15
G01X138.645Y-67.935
M16
G05
G00X144.105Y-67.435
M15
G01X144.105Y-67.935
M16
G05
M30
