%TF.GenerationSoftware,KiCad,Pcbnew,9.0.6*%
%TF.CreationDate,2026-06-22T13:10:47-07:00*%
%TF.ProjectId,STM32 Dev Board,53544d33-3220-4446-9576-20426f617264,rev?*%
%TF.SameCoordinates,Original*%
%TF.FileFunction,AssemblyDrawing,Top*%
%FSLAX46Y46*%
G04 Gerber Fmt 4.6, Leading zero omitted, Abs format (unit mm)*
G04 Created by KiCad (PCBNEW 9.0.6) date 2026-06-22 13:10:47*
%MOMM*%
%LPD*%
G01*
G04 APERTURE LIST*
%ADD10C,0.150000*%
%ADD11C,0.100000*%
%ADD12C,0.120000*%
G04 APERTURE END LIST*
D10*
X138871486Y-95071428D02*
X138871486Y-95642856D01*
X138871486Y-95357142D02*
X137871486Y-95357142D01*
X137871486Y-95357142D02*
X138014343Y-95452380D01*
X138014343Y-95452380D02*
X138109581Y-95547618D01*
X138109581Y-95547618D02*
X138157200Y-95642856D01*
X137871486Y-94452380D02*
X137871486Y-94357142D01*
X137871486Y-94357142D02*
X137919105Y-94261904D01*
X137919105Y-94261904D02*
X137966724Y-94214285D01*
X137966724Y-94214285D02*
X138061962Y-94166666D01*
X138061962Y-94166666D02*
X138252438Y-94119047D01*
X138252438Y-94119047D02*
X138490533Y-94119047D01*
X138490533Y-94119047D02*
X138681009Y-94166666D01*
X138681009Y-94166666D02*
X138776247Y-94214285D01*
X138776247Y-94214285D02*
X138823867Y-94261904D01*
X138823867Y-94261904D02*
X138871486Y-94357142D01*
X138871486Y-94357142D02*
X138871486Y-94452380D01*
X138871486Y-94452380D02*
X138823867Y-94547618D01*
X138823867Y-94547618D02*
X138776247Y-94595237D01*
X138776247Y-94595237D02*
X138681009Y-94642856D01*
X138681009Y-94642856D02*
X138490533Y-94690475D01*
X138490533Y-94690475D02*
X138252438Y-94690475D01*
X138252438Y-94690475D02*
X138061962Y-94642856D01*
X138061962Y-94642856D02*
X137966724Y-94595237D01*
X137966724Y-94595237D02*
X137919105Y-94547618D01*
X137919105Y-94547618D02*
X137871486Y-94452380D01*
X138204819Y-93690475D02*
X138871486Y-93690475D01*
X138300057Y-93690475D02*
X138252438Y-93642856D01*
X138252438Y-93642856D02*
X138204819Y-93547618D01*
X138204819Y-93547618D02*
X138204819Y-93404761D01*
X138204819Y-93404761D02*
X138252438Y-93309523D01*
X138252438Y-93309523D02*
X138347676Y-93261904D01*
X138347676Y-93261904D02*
X138871486Y-93261904D01*
X138347676Y-92452380D02*
X138347676Y-92785713D01*
X138871486Y-92785713D02*
X137871486Y-92785713D01*
X137871486Y-92785713D02*
X137871486Y-92309523D01*
X140516033Y-94116666D02*
X140549367Y-94149999D01*
X140549367Y-94149999D02*
X140582700Y-94249999D01*
X140582700Y-94249999D02*
X140582700Y-94316666D01*
X140582700Y-94316666D02*
X140549367Y-94416666D01*
X140549367Y-94416666D02*
X140482700Y-94483333D01*
X140482700Y-94483333D02*
X140416033Y-94516666D01*
X140416033Y-94516666D02*
X140282700Y-94549999D01*
X140282700Y-94549999D02*
X140182700Y-94549999D01*
X140182700Y-94549999D02*
X140049367Y-94516666D01*
X140049367Y-94516666D02*
X139982700Y-94483333D01*
X139982700Y-94483333D02*
X139916033Y-94416666D01*
X139916033Y-94416666D02*
X139882700Y-94316666D01*
X139882700Y-94316666D02*
X139882700Y-94249999D01*
X139882700Y-94249999D02*
X139916033Y-94149999D01*
X139916033Y-94149999D02*
X139949367Y-94116666D01*
X140182700Y-93716666D02*
X140149367Y-93783333D01*
X140149367Y-93783333D02*
X140116033Y-93816666D01*
X140116033Y-93816666D02*
X140049367Y-93849999D01*
X140049367Y-93849999D02*
X140016033Y-93849999D01*
X140016033Y-93849999D02*
X139949367Y-93816666D01*
X139949367Y-93816666D02*
X139916033Y-93783333D01*
X139916033Y-93783333D02*
X139882700Y-93716666D01*
X139882700Y-93716666D02*
X139882700Y-93583333D01*
X139882700Y-93583333D02*
X139916033Y-93516666D01*
X139916033Y-93516666D02*
X139949367Y-93483333D01*
X139949367Y-93483333D02*
X140016033Y-93449999D01*
X140016033Y-93449999D02*
X140049367Y-93449999D01*
X140049367Y-93449999D02*
X140116033Y-93483333D01*
X140116033Y-93483333D02*
X140149367Y-93516666D01*
X140149367Y-93516666D02*
X140182700Y-93583333D01*
X140182700Y-93583333D02*
X140182700Y-93716666D01*
X140182700Y-93716666D02*
X140216033Y-93783333D01*
X140216033Y-93783333D02*
X140249367Y-93816666D01*
X140249367Y-93816666D02*
X140316033Y-93849999D01*
X140316033Y-93849999D02*
X140449367Y-93849999D01*
X140449367Y-93849999D02*
X140516033Y-93816666D01*
X140516033Y-93816666D02*
X140549367Y-93783333D01*
X140549367Y-93783333D02*
X140582700Y-93716666D01*
X140582700Y-93716666D02*
X140582700Y-93583333D01*
X140582700Y-93583333D02*
X140549367Y-93516666D01*
X140549367Y-93516666D02*
X140516033Y-93483333D01*
X140516033Y-93483333D02*
X140449367Y-93449999D01*
X140449367Y-93449999D02*
X140316033Y-93449999D01*
X140316033Y-93449999D02*
X140249367Y-93483333D01*
X140249367Y-93483333D02*
X140216033Y-93516666D01*
X140216033Y-93516666D02*
X140182700Y-93583333D01*
X135442857Y-91407200D02*
X135585714Y-91454819D01*
X135585714Y-91454819D02*
X135823809Y-91454819D01*
X135823809Y-91454819D02*
X135919047Y-91407200D01*
X135919047Y-91407200D02*
X135966666Y-91359580D01*
X135966666Y-91359580D02*
X136014285Y-91264342D01*
X136014285Y-91264342D02*
X136014285Y-91169104D01*
X136014285Y-91169104D02*
X135966666Y-91073866D01*
X135966666Y-91073866D02*
X135919047Y-91026247D01*
X135919047Y-91026247D02*
X135823809Y-90978628D01*
X135823809Y-90978628D02*
X135633333Y-90931009D01*
X135633333Y-90931009D02*
X135538095Y-90883390D01*
X135538095Y-90883390D02*
X135490476Y-90835771D01*
X135490476Y-90835771D02*
X135442857Y-90740533D01*
X135442857Y-90740533D02*
X135442857Y-90645295D01*
X135442857Y-90645295D02*
X135490476Y-90550057D01*
X135490476Y-90550057D02*
X135538095Y-90502438D01*
X135538095Y-90502438D02*
X135633333Y-90454819D01*
X135633333Y-90454819D02*
X135871428Y-90454819D01*
X135871428Y-90454819D02*
X136014285Y-90502438D01*
X136300000Y-90454819D02*
X136871428Y-90454819D01*
X136585714Y-91454819D02*
X136585714Y-90454819D01*
X137204762Y-91454819D02*
X137204762Y-90454819D01*
X137204762Y-90454819D02*
X137538095Y-91169104D01*
X137538095Y-91169104D02*
X137871428Y-90454819D01*
X137871428Y-90454819D02*
X137871428Y-91454819D01*
X138252381Y-90454819D02*
X138871428Y-90454819D01*
X138871428Y-90454819D02*
X138538095Y-90835771D01*
X138538095Y-90835771D02*
X138680952Y-90835771D01*
X138680952Y-90835771D02*
X138776190Y-90883390D01*
X138776190Y-90883390D02*
X138823809Y-90931009D01*
X138823809Y-90931009D02*
X138871428Y-91026247D01*
X138871428Y-91026247D02*
X138871428Y-91264342D01*
X138871428Y-91264342D02*
X138823809Y-91359580D01*
X138823809Y-91359580D02*
X138776190Y-91407200D01*
X138776190Y-91407200D02*
X138680952Y-91454819D01*
X138680952Y-91454819D02*
X138395238Y-91454819D01*
X138395238Y-91454819D02*
X138300000Y-91407200D01*
X138300000Y-91407200D02*
X138252381Y-91359580D01*
X139252381Y-90550057D02*
X139300000Y-90502438D01*
X139300000Y-90502438D02*
X139395238Y-90454819D01*
X139395238Y-90454819D02*
X139633333Y-90454819D01*
X139633333Y-90454819D02*
X139728571Y-90502438D01*
X139728571Y-90502438D02*
X139776190Y-90550057D01*
X139776190Y-90550057D02*
X139823809Y-90645295D01*
X139823809Y-90645295D02*
X139823809Y-90740533D01*
X139823809Y-90740533D02*
X139776190Y-90883390D01*
X139776190Y-90883390D02*
X139204762Y-91454819D01*
X139204762Y-91454819D02*
X139823809Y-91454819D01*
X140585714Y-90931009D02*
X140252381Y-90931009D01*
X140252381Y-91454819D02*
X140252381Y-90454819D01*
X140252381Y-90454819D02*
X140728571Y-90454819D01*
X141300000Y-90454819D02*
X141395238Y-90454819D01*
X141395238Y-90454819D02*
X141490476Y-90502438D01*
X141490476Y-90502438D02*
X141538095Y-90550057D01*
X141538095Y-90550057D02*
X141585714Y-90645295D01*
X141585714Y-90645295D02*
X141633333Y-90835771D01*
X141633333Y-90835771D02*
X141633333Y-91073866D01*
X141633333Y-91073866D02*
X141585714Y-91264342D01*
X141585714Y-91264342D02*
X141538095Y-91359580D01*
X141538095Y-91359580D02*
X141490476Y-91407200D01*
X141490476Y-91407200D02*
X141395238Y-91454819D01*
X141395238Y-91454819D02*
X141300000Y-91454819D01*
X141300000Y-91454819D02*
X141204762Y-91407200D01*
X141204762Y-91407200D02*
X141157143Y-91359580D01*
X141157143Y-91359580D02*
X141109524Y-91264342D01*
X141109524Y-91264342D02*
X141061905Y-91073866D01*
X141061905Y-91073866D02*
X141061905Y-90835771D01*
X141061905Y-90835771D02*
X141109524Y-90645295D01*
X141109524Y-90645295D02*
X141157143Y-90550057D01*
X141157143Y-90550057D02*
X141204762Y-90502438D01*
X141204762Y-90502438D02*
X141300000Y-90454819D01*
X141966667Y-90454819D02*
X142633333Y-90454819D01*
X142633333Y-90454819D02*
X142204762Y-91454819D01*
X143204762Y-90454819D02*
X143300000Y-90454819D01*
X143300000Y-90454819D02*
X143395238Y-90502438D01*
X143395238Y-90502438D02*
X143442857Y-90550057D01*
X143442857Y-90550057D02*
X143490476Y-90645295D01*
X143490476Y-90645295D02*
X143538095Y-90835771D01*
X143538095Y-90835771D02*
X143538095Y-91073866D01*
X143538095Y-91073866D02*
X143490476Y-91264342D01*
X143490476Y-91264342D02*
X143442857Y-91359580D01*
X143442857Y-91359580D02*
X143395238Y-91407200D01*
X143395238Y-91407200D02*
X143300000Y-91454819D01*
X143300000Y-91454819D02*
X143204762Y-91454819D01*
X143204762Y-91454819D02*
X143109524Y-91407200D01*
X143109524Y-91407200D02*
X143061905Y-91359580D01*
X143061905Y-91359580D02*
X143014286Y-91264342D01*
X143014286Y-91264342D02*
X142966667Y-91073866D01*
X142966667Y-91073866D02*
X142966667Y-90835771D01*
X142966667Y-90835771D02*
X143014286Y-90645295D01*
X143014286Y-90645295D02*
X143061905Y-90550057D01*
X143061905Y-90550057D02*
X143109524Y-90502438D01*
X143109524Y-90502438D02*
X143204762Y-90454819D01*
X144300000Y-90931009D02*
X143966667Y-90931009D01*
X143966667Y-91454819D02*
X143966667Y-90454819D01*
X143966667Y-90454819D02*
X144442857Y-90454819D01*
X145252381Y-90454819D02*
X145061905Y-90454819D01*
X145061905Y-90454819D02*
X144966667Y-90502438D01*
X144966667Y-90502438D02*
X144919048Y-90550057D01*
X144919048Y-90550057D02*
X144823810Y-90692914D01*
X144823810Y-90692914D02*
X144776191Y-90883390D01*
X144776191Y-90883390D02*
X144776191Y-91264342D01*
X144776191Y-91264342D02*
X144823810Y-91359580D01*
X144823810Y-91359580D02*
X144871429Y-91407200D01*
X144871429Y-91407200D02*
X144966667Y-91454819D01*
X144966667Y-91454819D02*
X145157143Y-91454819D01*
X145157143Y-91454819D02*
X145252381Y-91407200D01*
X145252381Y-91407200D02*
X145300000Y-91359580D01*
X145300000Y-91359580D02*
X145347619Y-91264342D01*
X145347619Y-91264342D02*
X145347619Y-91026247D01*
X145347619Y-91026247D02*
X145300000Y-90931009D01*
X145300000Y-90931009D02*
X145252381Y-90883390D01*
X145252381Y-90883390D02*
X145157143Y-90835771D01*
X145157143Y-90835771D02*
X144966667Y-90835771D01*
X144966667Y-90835771D02*
X144871429Y-90883390D01*
X144871429Y-90883390D02*
X144823810Y-90931009D01*
X144823810Y-90931009D02*
X144776191Y-91026247D01*
X145776191Y-91454819D02*
X145776191Y-90454819D01*
X145776191Y-90454819D02*
X146157143Y-90454819D01*
X146157143Y-90454819D02*
X146252381Y-90502438D01*
X146252381Y-90502438D02*
X146300000Y-90550057D01*
X146300000Y-90550057D02*
X146347619Y-90645295D01*
X146347619Y-90645295D02*
X146347619Y-90788152D01*
X146347619Y-90788152D02*
X146300000Y-90883390D01*
X146300000Y-90883390D02*
X146252381Y-90931009D01*
X146252381Y-90931009D02*
X146157143Y-90978628D01*
X146157143Y-90978628D02*
X145776191Y-90978628D01*
X146680953Y-91454819D02*
X147204762Y-90788152D01*
X146680953Y-90788152D02*
X147204762Y-91454819D01*
X140766666Y-86416033D02*
X140766666Y-86982700D01*
X140766666Y-86982700D02*
X140800000Y-87049366D01*
X140800000Y-87049366D02*
X140833333Y-87082700D01*
X140833333Y-87082700D02*
X140900000Y-87116033D01*
X140900000Y-87116033D02*
X141033333Y-87116033D01*
X141033333Y-87116033D02*
X141100000Y-87082700D01*
X141100000Y-87082700D02*
X141133333Y-87049366D01*
X141133333Y-87049366D02*
X141166666Y-86982700D01*
X141166666Y-86982700D02*
X141166666Y-86416033D01*
X141466666Y-86482700D02*
X141499999Y-86449366D01*
X141499999Y-86449366D02*
X141566666Y-86416033D01*
X141566666Y-86416033D02*
X141733333Y-86416033D01*
X141733333Y-86416033D02*
X141799999Y-86449366D01*
X141799999Y-86449366D02*
X141833333Y-86482700D01*
X141833333Y-86482700D02*
X141866666Y-86549366D01*
X141866666Y-86549366D02*
X141866666Y-86616033D01*
X141866666Y-86616033D02*
X141833333Y-86716033D01*
X141833333Y-86716033D02*
X141433333Y-87116033D01*
X141433333Y-87116033D02*
X141866666Y-87116033D01*
X133838095Y-97023866D02*
X133885714Y-96976247D01*
X133885714Y-96976247D02*
X133980952Y-96928628D01*
X133980952Y-96928628D02*
X134171428Y-97023866D01*
X134171428Y-97023866D02*
X134266666Y-96976247D01*
X134266666Y-96976247D02*
X134314285Y-96928628D01*
X133716033Y-89723333D02*
X134216033Y-89723333D01*
X134216033Y-89723333D02*
X134316033Y-89756666D01*
X134316033Y-89756666D02*
X134382700Y-89823333D01*
X134382700Y-89823333D02*
X134416033Y-89923333D01*
X134416033Y-89923333D02*
X134416033Y-89990000D01*
X133782700Y-89423333D02*
X133749366Y-89390000D01*
X133749366Y-89390000D02*
X133716033Y-89323333D01*
X133716033Y-89323333D02*
X133716033Y-89156667D01*
X133716033Y-89156667D02*
X133749366Y-89090000D01*
X133749366Y-89090000D02*
X133782700Y-89056667D01*
X133782700Y-89056667D02*
X133849366Y-89023333D01*
X133849366Y-89023333D02*
X133916033Y-89023333D01*
X133916033Y-89023333D02*
X134016033Y-89056667D01*
X134016033Y-89056667D02*
X134416033Y-89456667D01*
X134416033Y-89456667D02*
X134416033Y-89023333D01*
X133004761Y-83454819D02*
X132433333Y-83454819D01*
X132719047Y-83454819D02*
X132719047Y-82454819D01*
X132719047Y-82454819D02*
X132623809Y-82597676D01*
X132623809Y-82597676D02*
X132528571Y-82692914D01*
X132528571Y-82692914D02*
X132433333Y-82740533D01*
X133623809Y-82454819D02*
X133719047Y-82454819D01*
X133719047Y-82454819D02*
X133814285Y-82502438D01*
X133814285Y-82502438D02*
X133861904Y-82550057D01*
X133861904Y-82550057D02*
X133909523Y-82645295D01*
X133909523Y-82645295D02*
X133957142Y-82835771D01*
X133957142Y-82835771D02*
X133957142Y-83073866D01*
X133957142Y-83073866D02*
X133909523Y-83264342D01*
X133909523Y-83264342D02*
X133861904Y-83359580D01*
X133861904Y-83359580D02*
X133814285Y-83407200D01*
X133814285Y-83407200D02*
X133719047Y-83454819D01*
X133719047Y-83454819D02*
X133623809Y-83454819D01*
X133623809Y-83454819D02*
X133528571Y-83407200D01*
X133528571Y-83407200D02*
X133480952Y-83359580D01*
X133480952Y-83359580D02*
X133433333Y-83264342D01*
X133433333Y-83264342D02*
X133385714Y-83073866D01*
X133385714Y-83073866D02*
X133385714Y-82835771D01*
X133385714Y-82835771D02*
X133433333Y-82645295D01*
X133433333Y-82645295D02*
X133480952Y-82550057D01*
X133480952Y-82550057D02*
X133528571Y-82502438D01*
X133528571Y-82502438D02*
X133623809Y-82454819D01*
X134385714Y-83454819D02*
X134385714Y-82454819D01*
X134480952Y-83073866D02*
X134766666Y-83454819D01*
X134766666Y-82788152D02*
X134385714Y-83169104D01*
X133483333Y-81466033D02*
X133250000Y-81132700D01*
X133083333Y-81466033D02*
X133083333Y-80766033D01*
X133083333Y-80766033D02*
X133350000Y-80766033D01*
X133350000Y-80766033D02*
X133416667Y-80799366D01*
X133416667Y-80799366D02*
X133450000Y-80832700D01*
X133450000Y-80832700D02*
X133483333Y-80899366D01*
X133483333Y-80899366D02*
X133483333Y-80999366D01*
X133483333Y-80999366D02*
X133450000Y-81066033D01*
X133450000Y-81066033D02*
X133416667Y-81099366D01*
X133416667Y-81099366D02*
X133350000Y-81132700D01*
X133350000Y-81132700D02*
X133083333Y-81132700D01*
X134150000Y-81466033D02*
X133750000Y-81466033D01*
X133950000Y-81466033D02*
X133950000Y-80766033D01*
X133950000Y-80766033D02*
X133883333Y-80866033D01*
X133883333Y-80866033D02*
X133816667Y-80932700D01*
X133816667Y-80932700D02*
X133750000Y-80966033D01*
X135127381Y-81229819D02*
X135127381Y-80229819D01*
X135127381Y-80229819D02*
X135460714Y-80944104D01*
X135460714Y-80944104D02*
X135794047Y-80229819D01*
X135794047Y-80229819D02*
X135794047Y-81229819D01*
X136841666Y-81134580D02*
X136794047Y-81182200D01*
X136794047Y-81182200D02*
X136651190Y-81229819D01*
X136651190Y-81229819D02*
X136555952Y-81229819D01*
X136555952Y-81229819D02*
X136413095Y-81182200D01*
X136413095Y-81182200D02*
X136317857Y-81086961D01*
X136317857Y-81086961D02*
X136270238Y-80991723D01*
X136270238Y-80991723D02*
X136222619Y-80801247D01*
X136222619Y-80801247D02*
X136222619Y-80658390D01*
X136222619Y-80658390D02*
X136270238Y-80467914D01*
X136270238Y-80467914D02*
X136317857Y-80372676D01*
X136317857Y-80372676D02*
X136413095Y-80277438D01*
X136413095Y-80277438D02*
X136555952Y-80229819D01*
X136555952Y-80229819D02*
X136651190Y-80229819D01*
X136651190Y-80229819D02*
X136794047Y-80277438D01*
X136794047Y-80277438D02*
X136841666Y-80325057D01*
X137270238Y-81229819D02*
X137270238Y-80229819D01*
X137270238Y-80229819D02*
X137651190Y-80229819D01*
X137651190Y-80229819D02*
X137746428Y-80277438D01*
X137746428Y-80277438D02*
X137794047Y-80325057D01*
X137794047Y-80325057D02*
X137841666Y-80420295D01*
X137841666Y-80420295D02*
X137841666Y-80563152D01*
X137841666Y-80563152D02*
X137794047Y-80658390D01*
X137794047Y-80658390D02*
X137746428Y-80706009D01*
X137746428Y-80706009D02*
X137651190Y-80753628D01*
X137651190Y-80753628D02*
X137270238Y-80753628D01*
X138222619Y-80325057D02*
X138270238Y-80277438D01*
X138270238Y-80277438D02*
X138365476Y-80229819D01*
X138365476Y-80229819D02*
X138603571Y-80229819D01*
X138603571Y-80229819D02*
X138698809Y-80277438D01*
X138698809Y-80277438D02*
X138746428Y-80325057D01*
X138746428Y-80325057D02*
X138794047Y-80420295D01*
X138794047Y-80420295D02*
X138794047Y-80515533D01*
X138794047Y-80515533D02*
X138746428Y-80658390D01*
X138746428Y-80658390D02*
X138175000Y-81229819D01*
X138175000Y-81229819D02*
X138794047Y-81229819D01*
X139175000Y-80325057D02*
X139222619Y-80277438D01*
X139222619Y-80277438D02*
X139317857Y-80229819D01*
X139317857Y-80229819D02*
X139555952Y-80229819D01*
X139555952Y-80229819D02*
X139651190Y-80277438D01*
X139651190Y-80277438D02*
X139698809Y-80325057D01*
X139698809Y-80325057D02*
X139746428Y-80420295D01*
X139746428Y-80420295D02*
X139746428Y-80515533D01*
X139746428Y-80515533D02*
X139698809Y-80658390D01*
X139698809Y-80658390D02*
X139127381Y-81229819D01*
X139127381Y-81229819D02*
X139746428Y-81229819D01*
X140127381Y-80325057D02*
X140175000Y-80277438D01*
X140175000Y-80277438D02*
X140270238Y-80229819D01*
X140270238Y-80229819D02*
X140508333Y-80229819D01*
X140508333Y-80229819D02*
X140603571Y-80277438D01*
X140603571Y-80277438D02*
X140651190Y-80325057D01*
X140651190Y-80325057D02*
X140698809Y-80420295D01*
X140698809Y-80420295D02*
X140698809Y-80515533D01*
X140698809Y-80515533D02*
X140651190Y-80658390D01*
X140651190Y-80658390D02*
X140079762Y-81229819D01*
X140079762Y-81229819D02*
X140698809Y-81229819D01*
X141651190Y-81229819D02*
X141079762Y-81229819D01*
X141365476Y-81229819D02*
X141365476Y-80229819D01*
X141365476Y-80229819D02*
X141270238Y-80372676D01*
X141270238Y-80372676D02*
X141175000Y-80467914D01*
X141175000Y-80467914D02*
X141079762Y-80515533D01*
X142032143Y-80944104D02*
X142508333Y-80944104D01*
X141936905Y-81229819D02*
X142270238Y-80229819D01*
X142270238Y-80229819D02*
X142603571Y-81229819D01*
X142841667Y-81229819D02*
X143365476Y-80563152D01*
X142841667Y-80563152D02*
X143365476Y-81229819D01*
X143746429Y-81229819D02*
X143746429Y-80229819D01*
X143746429Y-80229819D02*
X144079762Y-80944104D01*
X144079762Y-80944104D02*
X144413095Y-80229819D01*
X144413095Y-80229819D02*
X144413095Y-81229819D01*
X145365476Y-81229819D02*
X144889286Y-81229819D01*
X144889286Y-81229819D02*
X144889286Y-80229819D01*
X139641666Y-77091033D02*
X139641666Y-77657700D01*
X139641666Y-77657700D02*
X139675000Y-77724366D01*
X139675000Y-77724366D02*
X139708333Y-77757700D01*
X139708333Y-77757700D02*
X139775000Y-77791033D01*
X139775000Y-77791033D02*
X139908333Y-77791033D01*
X139908333Y-77791033D02*
X139975000Y-77757700D01*
X139975000Y-77757700D02*
X140008333Y-77724366D01*
X140008333Y-77724366D02*
X140041666Y-77657700D01*
X140041666Y-77657700D02*
X140041666Y-77091033D01*
X140741666Y-77791033D02*
X140341666Y-77791033D01*
X140541666Y-77791033D02*
X140541666Y-77091033D01*
X140541666Y-77091033D02*
X140474999Y-77191033D01*
X140474999Y-77191033D02*
X140408333Y-77257700D01*
X140408333Y-77257700D02*
X140341666Y-77291033D01*
X151224819Y-86535713D02*
X151224819Y-85916666D01*
X151224819Y-85916666D02*
X151605771Y-86249999D01*
X151605771Y-86249999D02*
X151605771Y-86107142D01*
X151605771Y-86107142D02*
X151653390Y-86011904D01*
X151653390Y-86011904D02*
X151701009Y-85964285D01*
X151701009Y-85964285D02*
X151796247Y-85916666D01*
X151796247Y-85916666D02*
X152034342Y-85916666D01*
X152034342Y-85916666D02*
X152129580Y-85964285D01*
X152129580Y-85964285D02*
X152177200Y-86011904D01*
X152177200Y-86011904D02*
X152224819Y-86107142D01*
X152224819Y-86107142D02*
X152224819Y-86392856D01*
X152224819Y-86392856D02*
X152177200Y-86488094D01*
X152177200Y-86488094D02*
X152129580Y-86535713D01*
X151224819Y-85583332D02*
X151224819Y-84964285D01*
X151224819Y-84964285D02*
X151605771Y-85297618D01*
X151605771Y-85297618D02*
X151605771Y-85154761D01*
X151605771Y-85154761D02*
X151653390Y-85059523D01*
X151653390Y-85059523D02*
X151701009Y-85011904D01*
X151701009Y-85011904D02*
X151796247Y-84964285D01*
X151796247Y-84964285D02*
X152034342Y-84964285D01*
X152034342Y-84964285D02*
X152129580Y-85011904D01*
X152129580Y-85011904D02*
X152177200Y-85059523D01*
X152177200Y-85059523D02*
X152224819Y-85154761D01*
X152224819Y-85154761D02*
X152224819Y-85440475D01*
X152224819Y-85440475D02*
X152177200Y-85535713D01*
X152177200Y-85535713D02*
X152129580Y-85583332D01*
X151224819Y-84345237D02*
X151224819Y-84249999D01*
X151224819Y-84249999D02*
X151272438Y-84154761D01*
X151272438Y-84154761D02*
X151320057Y-84107142D01*
X151320057Y-84107142D02*
X151415295Y-84059523D01*
X151415295Y-84059523D02*
X151605771Y-84011904D01*
X151605771Y-84011904D02*
X151843866Y-84011904D01*
X151843866Y-84011904D02*
X152034342Y-84059523D01*
X152034342Y-84059523D02*
X152129580Y-84107142D01*
X152129580Y-84107142D02*
X152177200Y-84154761D01*
X152177200Y-84154761D02*
X152224819Y-84249999D01*
X152224819Y-84249999D02*
X152224819Y-84345237D01*
X152224819Y-84345237D02*
X152177200Y-84440475D01*
X152177200Y-84440475D02*
X152129580Y-84488094D01*
X152129580Y-84488094D02*
X152034342Y-84535713D01*
X152034342Y-84535713D02*
X151843866Y-84583332D01*
X151843866Y-84583332D02*
X151605771Y-84583332D01*
X151605771Y-84583332D02*
X151415295Y-84535713D01*
X151415295Y-84535713D02*
X151320057Y-84488094D01*
X151320057Y-84488094D02*
X151272438Y-84440475D01*
X151272438Y-84440475D02*
X151224819Y-84345237D01*
X153916033Y-85366666D02*
X153582700Y-85599999D01*
X153916033Y-85766666D02*
X153216033Y-85766666D01*
X153216033Y-85766666D02*
X153216033Y-85499999D01*
X153216033Y-85499999D02*
X153249366Y-85433333D01*
X153249366Y-85433333D02*
X153282700Y-85399999D01*
X153282700Y-85399999D02*
X153349366Y-85366666D01*
X153349366Y-85366666D02*
X153449366Y-85366666D01*
X153449366Y-85366666D02*
X153516033Y-85399999D01*
X153516033Y-85399999D02*
X153549366Y-85433333D01*
X153549366Y-85433333D02*
X153582700Y-85499999D01*
X153582700Y-85499999D02*
X153582700Y-85766666D01*
X153216033Y-85133333D02*
X153216033Y-84666666D01*
X153216033Y-84666666D02*
X153916033Y-84966666D01*
X141254761Y-72224819D02*
X140683333Y-72224819D01*
X140969047Y-72224819D02*
X140969047Y-71224819D01*
X140969047Y-71224819D02*
X140873809Y-71367676D01*
X140873809Y-71367676D02*
X140778571Y-71462914D01*
X140778571Y-71462914D02*
X140683333Y-71510533D01*
X141873809Y-71224819D02*
X141969047Y-71224819D01*
X141969047Y-71224819D02*
X142064285Y-71272438D01*
X142064285Y-71272438D02*
X142111904Y-71320057D01*
X142111904Y-71320057D02*
X142159523Y-71415295D01*
X142159523Y-71415295D02*
X142207142Y-71605771D01*
X142207142Y-71605771D02*
X142207142Y-71843866D01*
X142207142Y-71843866D02*
X142159523Y-72034342D01*
X142159523Y-72034342D02*
X142111904Y-72129580D01*
X142111904Y-72129580D02*
X142064285Y-72177200D01*
X142064285Y-72177200D02*
X141969047Y-72224819D01*
X141969047Y-72224819D02*
X141873809Y-72224819D01*
X141873809Y-72224819D02*
X141778571Y-72177200D01*
X141778571Y-72177200D02*
X141730952Y-72129580D01*
X141730952Y-72129580D02*
X141683333Y-72034342D01*
X141683333Y-72034342D02*
X141635714Y-71843866D01*
X141635714Y-71843866D02*
X141635714Y-71605771D01*
X141635714Y-71605771D02*
X141683333Y-71415295D01*
X141683333Y-71415295D02*
X141730952Y-71320057D01*
X141730952Y-71320057D02*
X141778571Y-71272438D01*
X141778571Y-71272438D02*
X141873809Y-71224819D01*
X142635714Y-72224819D02*
X142635714Y-71224819D01*
X142730952Y-71843866D02*
X143016666Y-72224819D01*
X143016666Y-71558152D02*
X142635714Y-71939104D01*
X141733333Y-73916033D02*
X141500000Y-73582700D01*
X141333333Y-73916033D02*
X141333333Y-73216033D01*
X141333333Y-73216033D02*
X141600000Y-73216033D01*
X141600000Y-73216033D02*
X141666667Y-73249366D01*
X141666667Y-73249366D02*
X141700000Y-73282700D01*
X141700000Y-73282700D02*
X141733333Y-73349366D01*
X141733333Y-73349366D02*
X141733333Y-73449366D01*
X141733333Y-73449366D02*
X141700000Y-73516033D01*
X141700000Y-73516033D02*
X141666667Y-73549366D01*
X141666667Y-73549366D02*
X141600000Y-73582700D01*
X141600000Y-73582700D02*
X141333333Y-73582700D01*
X141966667Y-73216033D02*
X142400000Y-73216033D01*
X142400000Y-73216033D02*
X142166667Y-73482700D01*
X142166667Y-73482700D02*
X142266667Y-73482700D01*
X142266667Y-73482700D02*
X142333333Y-73516033D01*
X142333333Y-73516033D02*
X142366667Y-73549366D01*
X142366667Y-73549366D02*
X142400000Y-73616033D01*
X142400000Y-73616033D02*
X142400000Y-73782700D01*
X142400000Y-73782700D02*
X142366667Y-73849366D01*
X142366667Y-73849366D02*
X142333333Y-73882700D01*
X142333333Y-73882700D02*
X142266667Y-73916033D01*
X142266667Y-73916033D02*
X142066667Y-73916033D01*
X142066667Y-73916033D02*
X142000000Y-73882700D01*
X142000000Y-73882700D02*
X141966667Y-73849366D01*
X133552381Y-76304819D02*
X133647619Y-76304819D01*
X133647619Y-76304819D02*
X133742857Y-76352438D01*
X133742857Y-76352438D02*
X133790476Y-76400057D01*
X133790476Y-76400057D02*
X133838095Y-76495295D01*
X133838095Y-76495295D02*
X133885714Y-76685771D01*
X133885714Y-76685771D02*
X133885714Y-76923866D01*
X133885714Y-76923866D02*
X133838095Y-77114342D01*
X133838095Y-77114342D02*
X133790476Y-77209580D01*
X133790476Y-77209580D02*
X133742857Y-77257200D01*
X133742857Y-77257200D02*
X133647619Y-77304819D01*
X133647619Y-77304819D02*
X133552381Y-77304819D01*
X133552381Y-77304819D02*
X133457143Y-77257200D01*
X133457143Y-77257200D02*
X133409524Y-77209580D01*
X133409524Y-77209580D02*
X133361905Y-77114342D01*
X133361905Y-77114342D02*
X133314286Y-76923866D01*
X133314286Y-76923866D02*
X133314286Y-76685771D01*
X133314286Y-76685771D02*
X133361905Y-76495295D01*
X133361905Y-76495295D02*
X133409524Y-76400057D01*
X133409524Y-76400057D02*
X133457143Y-76352438D01*
X133457143Y-76352438D02*
X133552381Y-76304819D01*
X133483333Y-79016033D02*
X133250000Y-78682700D01*
X133083333Y-79016033D02*
X133083333Y-78316033D01*
X133083333Y-78316033D02*
X133350000Y-78316033D01*
X133350000Y-78316033D02*
X133416667Y-78349366D01*
X133416667Y-78349366D02*
X133450000Y-78382700D01*
X133450000Y-78382700D02*
X133483333Y-78449366D01*
X133483333Y-78449366D02*
X133483333Y-78549366D01*
X133483333Y-78549366D02*
X133450000Y-78616033D01*
X133450000Y-78616033D02*
X133416667Y-78649366D01*
X133416667Y-78649366D02*
X133350000Y-78682700D01*
X133350000Y-78682700D02*
X133083333Y-78682700D01*
X133750000Y-78382700D02*
X133783333Y-78349366D01*
X133783333Y-78349366D02*
X133850000Y-78316033D01*
X133850000Y-78316033D02*
X134016667Y-78316033D01*
X134016667Y-78316033D02*
X134083333Y-78349366D01*
X134083333Y-78349366D02*
X134116667Y-78382700D01*
X134116667Y-78382700D02*
X134150000Y-78449366D01*
X134150000Y-78449366D02*
X134150000Y-78516033D01*
X134150000Y-78516033D02*
X134116667Y-78616033D01*
X134116667Y-78616033D02*
X133716667Y-79016033D01*
X133716667Y-79016033D02*
X134150000Y-79016033D01*
X132858333Y-78666033D02*
X134375000Y-78666033D01*
X154554819Y-84792857D02*
X154554819Y-85269047D01*
X154554819Y-85269047D02*
X153554819Y-85269047D01*
X154031009Y-84459523D02*
X154031009Y-84126190D01*
X154554819Y-83983333D02*
X154554819Y-84459523D01*
X154554819Y-84459523D02*
X153554819Y-84459523D01*
X153554819Y-84459523D02*
X153554819Y-83983333D01*
X154554819Y-83554761D02*
X153554819Y-83554761D01*
X153554819Y-83554761D02*
X153554819Y-83316666D01*
X153554819Y-83316666D02*
X153602438Y-83173809D01*
X153602438Y-83173809D02*
X153697676Y-83078571D01*
X153697676Y-83078571D02*
X153792914Y-83030952D01*
X153792914Y-83030952D02*
X153983390Y-82983333D01*
X153983390Y-82983333D02*
X154126247Y-82983333D01*
X154126247Y-82983333D02*
X154316723Y-83030952D01*
X154316723Y-83030952D02*
X154411961Y-83078571D01*
X154411961Y-83078571D02*
X154507200Y-83173809D01*
X154507200Y-83173809D02*
X154554819Y-83316666D01*
X154554819Y-83316666D02*
X154554819Y-83554761D01*
X156916033Y-84666666D02*
X156216033Y-84666666D01*
X156216033Y-84666666D02*
X156216033Y-84499999D01*
X156216033Y-84499999D02*
X156249366Y-84399999D01*
X156249366Y-84399999D02*
X156316033Y-84333333D01*
X156316033Y-84333333D02*
X156382700Y-84299999D01*
X156382700Y-84299999D02*
X156516033Y-84266666D01*
X156516033Y-84266666D02*
X156616033Y-84266666D01*
X156616033Y-84266666D02*
X156749366Y-84299999D01*
X156749366Y-84299999D02*
X156816033Y-84333333D01*
X156816033Y-84333333D02*
X156882700Y-84399999D01*
X156882700Y-84399999D02*
X156916033Y-84499999D01*
X156916033Y-84499999D02*
X156916033Y-84666666D01*
X156216033Y-84033333D02*
X156216033Y-83599999D01*
X156216033Y-83599999D02*
X156482700Y-83833333D01*
X156482700Y-83833333D02*
X156482700Y-83733333D01*
X156482700Y-83733333D02*
X156516033Y-83666666D01*
X156516033Y-83666666D02*
X156549366Y-83633333D01*
X156549366Y-83633333D02*
X156616033Y-83599999D01*
X156616033Y-83599999D02*
X156782700Y-83599999D01*
X156782700Y-83599999D02*
X156849366Y-83633333D01*
X156849366Y-83633333D02*
X156882700Y-83666666D01*
X156882700Y-83666666D02*
X156916033Y-83733333D01*
X156916033Y-83733333D02*
X156916033Y-83933333D01*
X156916033Y-83933333D02*
X156882700Y-83999999D01*
X156882700Y-83999999D02*
X156849366Y-84033333D01*
X143804819Y-95527619D02*
X143804819Y-96099047D01*
X143804819Y-95813333D02*
X142804819Y-95813333D01*
X142804819Y-95813333D02*
X142947676Y-95908571D01*
X142947676Y-95908571D02*
X143042914Y-96003809D01*
X143042914Y-96003809D02*
X143090533Y-96099047D01*
X142804819Y-94908571D02*
X142804819Y-94813333D01*
X142804819Y-94813333D02*
X142852438Y-94718095D01*
X142852438Y-94718095D02*
X142900057Y-94670476D01*
X142900057Y-94670476D02*
X142995295Y-94622857D01*
X142995295Y-94622857D02*
X143185771Y-94575238D01*
X143185771Y-94575238D02*
X143423866Y-94575238D01*
X143423866Y-94575238D02*
X143614342Y-94622857D01*
X143614342Y-94622857D02*
X143709580Y-94670476D01*
X143709580Y-94670476D02*
X143757200Y-94718095D01*
X143757200Y-94718095D02*
X143804819Y-94813333D01*
X143804819Y-94813333D02*
X143804819Y-94908571D01*
X143804819Y-94908571D02*
X143757200Y-95003809D01*
X143757200Y-95003809D02*
X143709580Y-95051428D01*
X143709580Y-95051428D02*
X143614342Y-95099047D01*
X143614342Y-95099047D02*
X143423866Y-95146666D01*
X143423866Y-95146666D02*
X143185771Y-95146666D01*
X143185771Y-95146666D02*
X142995295Y-95099047D01*
X142995295Y-95099047D02*
X142900057Y-95051428D01*
X142900057Y-95051428D02*
X142852438Y-95003809D01*
X142852438Y-95003809D02*
X142804819Y-94908571D01*
X142804819Y-93956190D02*
X142804819Y-93860952D01*
X142804819Y-93860952D02*
X142852438Y-93765714D01*
X142852438Y-93765714D02*
X142900057Y-93718095D01*
X142900057Y-93718095D02*
X142995295Y-93670476D01*
X142995295Y-93670476D02*
X143185771Y-93622857D01*
X143185771Y-93622857D02*
X143423866Y-93622857D01*
X143423866Y-93622857D02*
X143614342Y-93670476D01*
X143614342Y-93670476D02*
X143709580Y-93718095D01*
X143709580Y-93718095D02*
X143757200Y-93765714D01*
X143757200Y-93765714D02*
X143804819Y-93860952D01*
X143804819Y-93860952D02*
X143804819Y-93956190D01*
X143804819Y-93956190D02*
X143757200Y-94051428D01*
X143757200Y-94051428D02*
X143709580Y-94099047D01*
X143709580Y-94099047D02*
X143614342Y-94146666D01*
X143614342Y-94146666D02*
X143423866Y-94194285D01*
X143423866Y-94194285D02*
X143185771Y-94194285D01*
X143185771Y-94194285D02*
X142995295Y-94146666D01*
X142995295Y-94146666D02*
X142900057Y-94099047D01*
X142900057Y-94099047D02*
X142852438Y-94051428D01*
X142852438Y-94051428D02*
X142804819Y-93956190D01*
X143138152Y-93194285D02*
X143804819Y-93194285D01*
X143233390Y-93194285D02*
X143185771Y-93146666D01*
X143185771Y-93146666D02*
X143138152Y-93051428D01*
X143138152Y-93051428D02*
X143138152Y-92908571D01*
X143138152Y-92908571D02*
X143185771Y-92813333D01*
X143185771Y-92813333D02*
X143281009Y-92765714D01*
X143281009Y-92765714D02*
X143804819Y-92765714D01*
X143281009Y-91956190D02*
X143281009Y-92289523D01*
X143804819Y-92289523D02*
X142804819Y-92289523D01*
X142804819Y-92289523D02*
X142804819Y-91813333D01*
X145449366Y-94096666D02*
X145482700Y-94129999D01*
X145482700Y-94129999D02*
X145516033Y-94229999D01*
X145516033Y-94229999D02*
X145516033Y-94296666D01*
X145516033Y-94296666D02*
X145482700Y-94396666D01*
X145482700Y-94396666D02*
X145416033Y-94463333D01*
X145416033Y-94463333D02*
X145349366Y-94496666D01*
X145349366Y-94496666D02*
X145216033Y-94529999D01*
X145216033Y-94529999D02*
X145116033Y-94529999D01*
X145116033Y-94529999D02*
X144982700Y-94496666D01*
X144982700Y-94496666D02*
X144916033Y-94463333D01*
X144916033Y-94463333D02*
X144849366Y-94396666D01*
X144849366Y-94396666D02*
X144816033Y-94296666D01*
X144816033Y-94296666D02*
X144816033Y-94229999D01*
X144816033Y-94229999D02*
X144849366Y-94129999D01*
X144849366Y-94129999D02*
X144882700Y-94096666D01*
X144816033Y-93496666D02*
X144816033Y-93629999D01*
X144816033Y-93629999D02*
X144849366Y-93696666D01*
X144849366Y-93696666D02*
X144882700Y-93729999D01*
X144882700Y-93729999D02*
X144982700Y-93796666D01*
X144982700Y-93796666D02*
X145116033Y-93829999D01*
X145116033Y-93829999D02*
X145382700Y-93829999D01*
X145382700Y-93829999D02*
X145449366Y-93796666D01*
X145449366Y-93796666D02*
X145482700Y-93763333D01*
X145482700Y-93763333D02*
X145516033Y-93696666D01*
X145516033Y-93696666D02*
X145516033Y-93563333D01*
X145516033Y-93563333D02*
X145482700Y-93496666D01*
X145482700Y-93496666D02*
X145449366Y-93463333D01*
X145449366Y-93463333D02*
X145382700Y-93429999D01*
X145382700Y-93429999D02*
X145216033Y-93429999D01*
X145216033Y-93429999D02*
X145149366Y-93463333D01*
X145149366Y-93463333D02*
X145116033Y-93496666D01*
X145116033Y-93496666D02*
X145082700Y-93563333D01*
X145082700Y-93563333D02*
X145082700Y-93696666D01*
X145082700Y-93696666D02*
X145116033Y-93763333D01*
X145116033Y-93763333D02*
X145149366Y-93796666D01*
X145149366Y-93796666D02*
X145216033Y-93829999D01*
X126685714Y-79534819D02*
X127352380Y-79534819D01*
X127352380Y-79534819D02*
X126923809Y-80534819D01*
X127733333Y-79868152D02*
X127733333Y-80868152D01*
X127733333Y-79915771D02*
X127828571Y-79868152D01*
X127828571Y-79868152D02*
X128019047Y-79868152D01*
X128019047Y-79868152D02*
X128114285Y-79915771D01*
X128114285Y-79915771D02*
X128161904Y-79963390D01*
X128161904Y-79963390D02*
X128209523Y-80058628D01*
X128209523Y-80058628D02*
X128209523Y-80344342D01*
X128209523Y-80344342D02*
X128161904Y-80439580D01*
X128161904Y-80439580D02*
X128114285Y-80487200D01*
X128114285Y-80487200D02*
X128019047Y-80534819D01*
X128019047Y-80534819D02*
X127828571Y-80534819D01*
X127828571Y-80534819D02*
X127733333Y-80487200D01*
X128971428Y-80011009D02*
X128638095Y-80011009D01*
X128638095Y-80534819D02*
X128638095Y-79534819D01*
X128638095Y-79534819D02*
X129114285Y-79534819D01*
X127783333Y-78649366D02*
X127750000Y-78682700D01*
X127750000Y-78682700D02*
X127650000Y-78716033D01*
X127650000Y-78716033D02*
X127583333Y-78716033D01*
X127583333Y-78716033D02*
X127483333Y-78682700D01*
X127483333Y-78682700D02*
X127416667Y-78616033D01*
X127416667Y-78616033D02*
X127383333Y-78549366D01*
X127383333Y-78549366D02*
X127350000Y-78416033D01*
X127350000Y-78416033D02*
X127350000Y-78316033D01*
X127350000Y-78316033D02*
X127383333Y-78182700D01*
X127383333Y-78182700D02*
X127416667Y-78116033D01*
X127416667Y-78116033D02*
X127483333Y-78049366D01*
X127483333Y-78049366D02*
X127583333Y-78016033D01*
X127583333Y-78016033D02*
X127650000Y-78016033D01*
X127650000Y-78016033D02*
X127750000Y-78049366D01*
X127750000Y-78049366D02*
X127783333Y-78082700D01*
X128383333Y-78249366D02*
X128383333Y-78716033D01*
X128216667Y-77982700D02*
X128050000Y-78482700D01*
X128050000Y-78482700D02*
X128483333Y-78482700D01*
X136404819Y-94146666D02*
X136404819Y-94718094D01*
X136404819Y-94432380D02*
X135404819Y-94432380D01*
X135404819Y-94432380D02*
X135547676Y-94527618D01*
X135547676Y-94527618D02*
X135642914Y-94622856D01*
X135642914Y-94622856D02*
X135690533Y-94718094D01*
X135738152Y-93289523D02*
X136404819Y-93289523D01*
X135738152Y-93718094D02*
X136261961Y-93718094D01*
X136261961Y-93718094D02*
X136357200Y-93670475D01*
X136357200Y-93670475D02*
X136404819Y-93575237D01*
X136404819Y-93575237D02*
X136404819Y-93432380D01*
X136404819Y-93432380D02*
X136357200Y-93337142D01*
X136357200Y-93337142D02*
X136309580Y-93289523D01*
X138049366Y-94096666D02*
X138082700Y-94129999D01*
X138082700Y-94129999D02*
X138116033Y-94229999D01*
X138116033Y-94229999D02*
X138116033Y-94296666D01*
X138116033Y-94296666D02*
X138082700Y-94396666D01*
X138082700Y-94396666D02*
X138016033Y-94463333D01*
X138016033Y-94463333D02*
X137949366Y-94496666D01*
X137949366Y-94496666D02*
X137816033Y-94529999D01*
X137816033Y-94529999D02*
X137716033Y-94529999D01*
X137716033Y-94529999D02*
X137582700Y-94496666D01*
X137582700Y-94496666D02*
X137516033Y-94463333D01*
X137516033Y-94463333D02*
X137449366Y-94396666D01*
X137449366Y-94396666D02*
X137416033Y-94296666D01*
X137416033Y-94296666D02*
X137416033Y-94229999D01*
X137416033Y-94229999D02*
X137449366Y-94129999D01*
X137449366Y-94129999D02*
X137482700Y-94096666D01*
X138116033Y-93763333D02*
X138116033Y-93629999D01*
X138116033Y-93629999D02*
X138082700Y-93563333D01*
X138082700Y-93563333D02*
X138049366Y-93529999D01*
X138049366Y-93529999D02*
X137949366Y-93463333D01*
X137949366Y-93463333D02*
X137816033Y-93429999D01*
X137816033Y-93429999D02*
X137549366Y-93429999D01*
X137549366Y-93429999D02*
X137482700Y-93463333D01*
X137482700Y-93463333D02*
X137449366Y-93496666D01*
X137449366Y-93496666D02*
X137416033Y-93563333D01*
X137416033Y-93563333D02*
X137416033Y-93696666D01*
X137416033Y-93696666D02*
X137449366Y-93763333D01*
X137449366Y-93763333D02*
X137482700Y-93796666D01*
X137482700Y-93796666D02*
X137549366Y-93829999D01*
X137549366Y-93829999D02*
X137716033Y-93829999D01*
X137716033Y-93829999D02*
X137782700Y-93796666D01*
X137782700Y-93796666D02*
X137816033Y-93763333D01*
X137816033Y-93763333D02*
X137849366Y-93696666D01*
X137849366Y-93696666D02*
X137849366Y-93563333D01*
X137849366Y-93563333D02*
X137816033Y-93496666D01*
X137816033Y-93496666D02*
X137782700Y-93463333D01*
X137782700Y-93463333D02*
X137716033Y-93429999D01*
X123704761Y-69884819D02*
X123133333Y-69884819D01*
X123419047Y-69884819D02*
X123419047Y-68884819D01*
X123419047Y-68884819D02*
X123323809Y-69027676D01*
X123323809Y-69027676D02*
X123228571Y-69122914D01*
X123228571Y-69122914D02*
X123133333Y-69170533D01*
X124323809Y-68884819D02*
X124419047Y-68884819D01*
X124419047Y-68884819D02*
X124514285Y-68932438D01*
X124514285Y-68932438D02*
X124561904Y-68980057D01*
X124561904Y-68980057D02*
X124609523Y-69075295D01*
X124609523Y-69075295D02*
X124657142Y-69265771D01*
X124657142Y-69265771D02*
X124657142Y-69503866D01*
X124657142Y-69503866D02*
X124609523Y-69694342D01*
X124609523Y-69694342D02*
X124561904Y-69789580D01*
X124561904Y-69789580D02*
X124514285Y-69837200D01*
X124514285Y-69837200D02*
X124419047Y-69884819D01*
X124419047Y-69884819D02*
X124323809Y-69884819D01*
X124323809Y-69884819D02*
X124228571Y-69837200D01*
X124228571Y-69837200D02*
X124180952Y-69789580D01*
X124180952Y-69789580D02*
X124133333Y-69694342D01*
X124133333Y-69694342D02*
X124085714Y-69503866D01*
X124085714Y-69503866D02*
X124085714Y-69265771D01*
X124085714Y-69265771D02*
X124133333Y-69075295D01*
X124133333Y-69075295D02*
X124180952Y-68980057D01*
X124180952Y-68980057D02*
X124228571Y-68932438D01*
X124228571Y-68932438D02*
X124323809Y-68884819D01*
X125085714Y-69884819D02*
X125085714Y-68884819D01*
X125180952Y-69503866D02*
X125466666Y-69884819D01*
X125466666Y-69218152D02*
X125085714Y-69599104D01*
X124183333Y-67916033D02*
X123950000Y-67582700D01*
X123783333Y-67916033D02*
X123783333Y-67216033D01*
X123783333Y-67216033D02*
X124050000Y-67216033D01*
X124050000Y-67216033D02*
X124116667Y-67249366D01*
X124116667Y-67249366D02*
X124150000Y-67282700D01*
X124150000Y-67282700D02*
X124183333Y-67349366D01*
X124183333Y-67349366D02*
X124183333Y-67449366D01*
X124183333Y-67449366D02*
X124150000Y-67516033D01*
X124150000Y-67516033D02*
X124116667Y-67549366D01*
X124116667Y-67549366D02*
X124050000Y-67582700D01*
X124050000Y-67582700D02*
X123783333Y-67582700D01*
X124516667Y-67916033D02*
X124650000Y-67916033D01*
X124650000Y-67916033D02*
X124716667Y-67882700D01*
X124716667Y-67882700D02*
X124750000Y-67849366D01*
X124750000Y-67849366D02*
X124816667Y-67749366D01*
X124816667Y-67749366D02*
X124850000Y-67616033D01*
X124850000Y-67616033D02*
X124850000Y-67349366D01*
X124850000Y-67349366D02*
X124816667Y-67282700D01*
X124816667Y-67282700D02*
X124783333Y-67249366D01*
X124783333Y-67249366D02*
X124716667Y-67216033D01*
X124716667Y-67216033D02*
X124583333Y-67216033D01*
X124583333Y-67216033D02*
X124516667Y-67249366D01*
X124516667Y-67249366D02*
X124483333Y-67282700D01*
X124483333Y-67282700D02*
X124450000Y-67349366D01*
X124450000Y-67349366D02*
X124450000Y-67516033D01*
X124450000Y-67516033D02*
X124483333Y-67582700D01*
X124483333Y-67582700D02*
X124516667Y-67616033D01*
X124516667Y-67616033D02*
X124583333Y-67649366D01*
X124583333Y-67649366D02*
X124716667Y-67649366D01*
X124716667Y-67649366D02*
X124783333Y-67616033D01*
X124783333Y-67616033D02*
X124816667Y-67582700D01*
X124816667Y-67582700D02*
X124850000Y-67516033D01*
X133738095Y-77733866D02*
X133785714Y-77686247D01*
X133785714Y-77686247D02*
X133880952Y-77638628D01*
X133880952Y-77638628D02*
X134071428Y-77733866D01*
X134071428Y-77733866D02*
X134166666Y-77686247D01*
X134166666Y-77686247D02*
X134214285Y-77638628D01*
X133616033Y-71703333D02*
X134116033Y-71703333D01*
X134116033Y-71703333D02*
X134216033Y-71736666D01*
X134216033Y-71736666D02*
X134282700Y-71803333D01*
X134282700Y-71803333D02*
X134316033Y-71903333D01*
X134316033Y-71903333D02*
X134316033Y-71970000D01*
X133616033Y-71436667D02*
X133616033Y-70970000D01*
X133616033Y-70970000D02*
X134316033Y-71270000D01*
X136851190Y-63819819D02*
X136851190Y-64629342D01*
X136851190Y-64629342D02*
X136898809Y-64724580D01*
X136898809Y-64724580D02*
X136946428Y-64772200D01*
X136946428Y-64772200D02*
X137041666Y-64819819D01*
X137041666Y-64819819D02*
X137232142Y-64819819D01*
X137232142Y-64819819D02*
X137327380Y-64772200D01*
X137327380Y-64772200D02*
X137374999Y-64724580D01*
X137374999Y-64724580D02*
X137422618Y-64629342D01*
X137422618Y-64629342D02*
X137422618Y-63819819D01*
X137851190Y-64772200D02*
X137994047Y-64819819D01*
X137994047Y-64819819D02*
X138232142Y-64819819D01*
X138232142Y-64819819D02*
X138327380Y-64772200D01*
X138327380Y-64772200D02*
X138374999Y-64724580D01*
X138374999Y-64724580D02*
X138422618Y-64629342D01*
X138422618Y-64629342D02*
X138422618Y-64534104D01*
X138422618Y-64534104D02*
X138374999Y-64438866D01*
X138374999Y-64438866D02*
X138327380Y-64391247D01*
X138327380Y-64391247D02*
X138232142Y-64343628D01*
X138232142Y-64343628D02*
X138041666Y-64296009D01*
X138041666Y-64296009D02*
X137946428Y-64248390D01*
X137946428Y-64248390D02*
X137898809Y-64200771D01*
X137898809Y-64200771D02*
X137851190Y-64105533D01*
X137851190Y-64105533D02*
X137851190Y-64010295D01*
X137851190Y-64010295D02*
X137898809Y-63915057D01*
X137898809Y-63915057D02*
X137946428Y-63867438D01*
X137946428Y-63867438D02*
X138041666Y-63819819D01*
X138041666Y-63819819D02*
X138279761Y-63819819D01*
X138279761Y-63819819D02*
X138422618Y-63867438D01*
X139184523Y-64296009D02*
X139327380Y-64343628D01*
X139327380Y-64343628D02*
X139374999Y-64391247D01*
X139374999Y-64391247D02*
X139422618Y-64486485D01*
X139422618Y-64486485D02*
X139422618Y-64629342D01*
X139422618Y-64629342D02*
X139374999Y-64724580D01*
X139374999Y-64724580D02*
X139327380Y-64772200D01*
X139327380Y-64772200D02*
X139232142Y-64819819D01*
X139232142Y-64819819D02*
X138851190Y-64819819D01*
X138851190Y-64819819D02*
X138851190Y-63819819D01*
X138851190Y-63819819D02*
X139184523Y-63819819D01*
X139184523Y-63819819D02*
X139279761Y-63867438D01*
X139279761Y-63867438D02*
X139327380Y-63915057D01*
X139327380Y-63915057D02*
X139374999Y-64010295D01*
X139374999Y-64010295D02*
X139374999Y-64105533D01*
X139374999Y-64105533D02*
X139327380Y-64200771D01*
X139327380Y-64200771D02*
X139279761Y-64248390D01*
X139279761Y-64248390D02*
X139184523Y-64296009D01*
X139184523Y-64296009D02*
X138851190Y-64296009D01*
X139613095Y-64915057D02*
X140374999Y-64915057D01*
X140946428Y-64296009D02*
X141089285Y-64343628D01*
X141089285Y-64343628D02*
X141136904Y-64391247D01*
X141136904Y-64391247D02*
X141184523Y-64486485D01*
X141184523Y-64486485D02*
X141184523Y-64629342D01*
X141184523Y-64629342D02*
X141136904Y-64724580D01*
X141136904Y-64724580D02*
X141089285Y-64772200D01*
X141089285Y-64772200D02*
X140994047Y-64819819D01*
X140994047Y-64819819D02*
X140613095Y-64819819D01*
X140613095Y-64819819D02*
X140613095Y-63819819D01*
X140613095Y-63819819D02*
X140946428Y-63819819D01*
X140946428Y-63819819D02*
X141041666Y-63867438D01*
X141041666Y-63867438D02*
X141089285Y-63915057D01*
X141089285Y-63915057D02*
X141136904Y-64010295D01*
X141136904Y-64010295D02*
X141136904Y-64105533D01*
X141136904Y-64105533D02*
X141089285Y-64200771D01*
X141089285Y-64200771D02*
X141041666Y-64248390D01*
X141041666Y-64248390D02*
X140946428Y-64296009D01*
X140946428Y-64296009D02*
X140613095Y-64296009D01*
X141375000Y-64915057D02*
X142136904Y-64915057D01*
X142375000Y-64819819D02*
X142375000Y-63819819D01*
X142375000Y-63819819D02*
X142708333Y-64534104D01*
X142708333Y-64534104D02*
X143041666Y-63819819D01*
X143041666Y-63819819D02*
X143041666Y-64819819D01*
X143517857Y-64819819D02*
X143517857Y-64153152D01*
X143517857Y-63819819D02*
X143470238Y-63867438D01*
X143470238Y-63867438D02*
X143517857Y-63915057D01*
X143517857Y-63915057D02*
X143565476Y-63867438D01*
X143565476Y-63867438D02*
X143517857Y-63819819D01*
X143517857Y-63819819D02*
X143517857Y-63915057D01*
X144422618Y-64772200D02*
X144327380Y-64819819D01*
X144327380Y-64819819D02*
X144136904Y-64819819D01*
X144136904Y-64819819D02*
X144041666Y-64772200D01*
X144041666Y-64772200D02*
X143994047Y-64724580D01*
X143994047Y-64724580D02*
X143946428Y-64629342D01*
X143946428Y-64629342D02*
X143946428Y-64343628D01*
X143946428Y-64343628D02*
X143994047Y-64248390D01*
X143994047Y-64248390D02*
X144041666Y-64200771D01*
X144041666Y-64200771D02*
X144136904Y-64153152D01*
X144136904Y-64153152D02*
X144327380Y-64153152D01*
X144327380Y-64153152D02*
X144422618Y-64200771D01*
X144851190Y-64819819D02*
X144851190Y-64153152D01*
X144851190Y-64343628D02*
X144898809Y-64248390D01*
X144898809Y-64248390D02*
X144946428Y-64200771D01*
X144946428Y-64200771D02*
X145041666Y-64153152D01*
X145041666Y-64153152D02*
X145136904Y-64153152D01*
X145613095Y-64819819D02*
X145517857Y-64772200D01*
X145517857Y-64772200D02*
X145470238Y-64724580D01*
X145470238Y-64724580D02*
X145422619Y-64629342D01*
X145422619Y-64629342D02*
X145422619Y-64343628D01*
X145422619Y-64343628D02*
X145470238Y-64248390D01*
X145470238Y-64248390D02*
X145517857Y-64200771D01*
X145517857Y-64200771D02*
X145613095Y-64153152D01*
X145613095Y-64153152D02*
X145755952Y-64153152D01*
X145755952Y-64153152D02*
X145851190Y-64200771D01*
X145851190Y-64200771D02*
X145898809Y-64248390D01*
X145898809Y-64248390D02*
X145946428Y-64343628D01*
X145946428Y-64343628D02*
X145946428Y-64629342D01*
X145946428Y-64629342D02*
X145898809Y-64724580D01*
X145898809Y-64724580D02*
X145851190Y-64772200D01*
X145851190Y-64772200D02*
X145755952Y-64819819D01*
X145755952Y-64819819D02*
X145613095Y-64819819D01*
X141141666Y-68431033D02*
X141141666Y-68931033D01*
X141141666Y-68931033D02*
X141108333Y-69031033D01*
X141108333Y-69031033D02*
X141041666Y-69097700D01*
X141041666Y-69097700D02*
X140941666Y-69131033D01*
X140941666Y-69131033D02*
X140875000Y-69131033D01*
X141774999Y-68431033D02*
X141641666Y-68431033D01*
X141641666Y-68431033D02*
X141574999Y-68464366D01*
X141574999Y-68464366D02*
X141541666Y-68497700D01*
X141541666Y-68497700D02*
X141474999Y-68597700D01*
X141474999Y-68597700D02*
X141441666Y-68731033D01*
X141441666Y-68731033D02*
X141441666Y-68997700D01*
X141441666Y-68997700D02*
X141474999Y-69064366D01*
X141474999Y-69064366D02*
X141508333Y-69097700D01*
X141508333Y-69097700D02*
X141574999Y-69131033D01*
X141574999Y-69131033D02*
X141708333Y-69131033D01*
X141708333Y-69131033D02*
X141774999Y-69097700D01*
X141774999Y-69097700D02*
X141808333Y-69064366D01*
X141808333Y-69064366D02*
X141841666Y-68997700D01*
X141841666Y-68997700D02*
X141841666Y-68831033D01*
X141841666Y-68831033D02*
X141808333Y-68764366D01*
X141808333Y-68764366D02*
X141774999Y-68731033D01*
X141774999Y-68731033D02*
X141708333Y-68697700D01*
X141708333Y-68697700D02*
X141574999Y-68697700D01*
X141574999Y-68697700D02*
X141508333Y-68731033D01*
X141508333Y-68731033D02*
X141474999Y-68764366D01*
X141474999Y-68764366D02*
X141441666Y-68831033D01*
X140671485Y-95404761D02*
X141338152Y-95404761D01*
X140290533Y-95642856D02*
X141004818Y-95880951D01*
X141004818Y-95880951D02*
X141004818Y-95261904D01*
X141242913Y-94880951D02*
X141290533Y-94833332D01*
X141290533Y-94833332D02*
X141338152Y-94880951D01*
X141338152Y-94880951D02*
X141290533Y-94928570D01*
X141290533Y-94928570D02*
X141242913Y-94880951D01*
X141242913Y-94880951D02*
X141338152Y-94880951D01*
X140338152Y-94499999D02*
X140338152Y-93833333D01*
X140338152Y-93833333D02*
X141338152Y-94261904D01*
X140671485Y-93023809D02*
X141338152Y-93023809D01*
X140671485Y-93452380D02*
X141195294Y-93452380D01*
X141195294Y-93452380D02*
X141290533Y-93404761D01*
X141290533Y-93404761D02*
X141338152Y-93309523D01*
X141338152Y-93309523D02*
X141338152Y-93166666D01*
X141338152Y-93166666D02*
X141290533Y-93071428D01*
X141290533Y-93071428D02*
X141242913Y-93023809D01*
X140814342Y-92214285D02*
X140814342Y-92547618D01*
X141338152Y-92547618D02*
X140338152Y-92547618D01*
X140338152Y-92547618D02*
X140338152Y-92071428D01*
X142982699Y-94116666D02*
X143016033Y-94149999D01*
X143016033Y-94149999D02*
X143049366Y-94249999D01*
X143049366Y-94249999D02*
X143049366Y-94316666D01*
X143049366Y-94316666D02*
X143016033Y-94416666D01*
X143016033Y-94416666D02*
X142949366Y-94483333D01*
X142949366Y-94483333D02*
X142882699Y-94516666D01*
X142882699Y-94516666D02*
X142749366Y-94549999D01*
X142749366Y-94549999D02*
X142649366Y-94549999D01*
X142649366Y-94549999D02*
X142516033Y-94516666D01*
X142516033Y-94516666D02*
X142449366Y-94483333D01*
X142449366Y-94483333D02*
X142382699Y-94416666D01*
X142382699Y-94416666D02*
X142349366Y-94316666D01*
X142349366Y-94316666D02*
X142349366Y-94249999D01*
X142349366Y-94249999D02*
X142382699Y-94149999D01*
X142382699Y-94149999D02*
X142416033Y-94116666D01*
X142349366Y-93883333D02*
X142349366Y-93416666D01*
X142349366Y-93416666D02*
X143049366Y-93716666D01*
X139704761Y-80124819D02*
X139133333Y-80124819D01*
X139419047Y-80124819D02*
X139419047Y-79124819D01*
X139419047Y-79124819D02*
X139323809Y-79267676D01*
X139323809Y-79267676D02*
X139228571Y-79362914D01*
X139228571Y-79362914D02*
X139133333Y-79410533D01*
X140323809Y-79124819D02*
X140419047Y-79124819D01*
X140419047Y-79124819D02*
X140514285Y-79172438D01*
X140514285Y-79172438D02*
X140561904Y-79220057D01*
X140561904Y-79220057D02*
X140609523Y-79315295D01*
X140609523Y-79315295D02*
X140657142Y-79505771D01*
X140657142Y-79505771D02*
X140657142Y-79743866D01*
X140657142Y-79743866D02*
X140609523Y-79934342D01*
X140609523Y-79934342D02*
X140561904Y-80029580D01*
X140561904Y-80029580D02*
X140514285Y-80077200D01*
X140514285Y-80077200D02*
X140419047Y-80124819D01*
X140419047Y-80124819D02*
X140323809Y-80124819D01*
X140323809Y-80124819D02*
X140228571Y-80077200D01*
X140228571Y-80077200D02*
X140180952Y-80029580D01*
X140180952Y-80029580D02*
X140133333Y-79934342D01*
X140133333Y-79934342D02*
X140085714Y-79743866D01*
X140085714Y-79743866D02*
X140085714Y-79505771D01*
X140085714Y-79505771D02*
X140133333Y-79315295D01*
X140133333Y-79315295D02*
X140180952Y-79220057D01*
X140180952Y-79220057D02*
X140228571Y-79172438D01*
X140228571Y-79172438D02*
X140323809Y-79124819D01*
X141085714Y-80124819D02*
X141085714Y-79124819D01*
X141180952Y-79743866D02*
X141466666Y-80124819D01*
X141466666Y-79458152D02*
X141085714Y-79839104D01*
X140183333Y-81816033D02*
X139950000Y-81482700D01*
X139783333Y-81816033D02*
X139783333Y-81116033D01*
X139783333Y-81116033D02*
X140050000Y-81116033D01*
X140050000Y-81116033D02*
X140116667Y-81149366D01*
X140116667Y-81149366D02*
X140150000Y-81182700D01*
X140150000Y-81182700D02*
X140183333Y-81249366D01*
X140183333Y-81249366D02*
X140183333Y-81349366D01*
X140183333Y-81349366D02*
X140150000Y-81416033D01*
X140150000Y-81416033D02*
X140116667Y-81449366D01*
X140116667Y-81449366D02*
X140050000Y-81482700D01*
X140050000Y-81482700D02*
X139783333Y-81482700D01*
X140783333Y-81116033D02*
X140650000Y-81116033D01*
X140650000Y-81116033D02*
X140583333Y-81149366D01*
X140583333Y-81149366D02*
X140550000Y-81182700D01*
X140550000Y-81182700D02*
X140483333Y-81282700D01*
X140483333Y-81282700D02*
X140450000Y-81416033D01*
X140450000Y-81416033D02*
X140450000Y-81682700D01*
X140450000Y-81682700D02*
X140483333Y-81749366D01*
X140483333Y-81749366D02*
X140516667Y-81782700D01*
X140516667Y-81782700D02*
X140583333Y-81816033D01*
X140583333Y-81816033D02*
X140716667Y-81816033D01*
X140716667Y-81816033D02*
X140783333Y-81782700D01*
X140783333Y-81782700D02*
X140816667Y-81749366D01*
X140816667Y-81749366D02*
X140850000Y-81682700D01*
X140850000Y-81682700D02*
X140850000Y-81516033D01*
X140850000Y-81516033D02*
X140816667Y-81449366D01*
X140816667Y-81449366D02*
X140783333Y-81416033D01*
X140783333Y-81416033D02*
X140716667Y-81382700D01*
X140716667Y-81382700D02*
X140583333Y-81382700D01*
X140583333Y-81382700D02*
X140516667Y-81416033D01*
X140516667Y-81416033D02*
X140483333Y-81449366D01*
X140483333Y-81449366D02*
X140450000Y-81516033D01*
X148438095Y-82103866D02*
X148485714Y-82056247D01*
X148485714Y-82056247D02*
X148580952Y-82008628D01*
X148580952Y-82008628D02*
X148771428Y-82103866D01*
X148771428Y-82103866D02*
X148866666Y-82056247D01*
X148866666Y-82056247D02*
X148914285Y-82008628D01*
X148316033Y-89723333D02*
X148816033Y-89723333D01*
X148816033Y-89723333D02*
X148916033Y-89756666D01*
X148916033Y-89756666D02*
X148982700Y-89823333D01*
X148982700Y-89823333D02*
X149016033Y-89923333D01*
X149016033Y-89923333D02*
X149016033Y-89990000D01*
X148549366Y-89090000D02*
X149016033Y-89090000D01*
X148282700Y-89256667D02*
X148782700Y-89423333D01*
X148782700Y-89423333D02*
X148782700Y-88990000D01*
X126685714Y-86134819D02*
X127352380Y-86134819D01*
X127352380Y-86134819D02*
X126923809Y-87134819D01*
X127733333Y-86468152D02*
X127733333Y-87468152D01*
X127733333Y-86515771D02*
X127828571Y-86468152D01*
X127828571Y-86468152D02*
X128019047Y-86468152D01*
X128019047Y-86468152D02*
X128114285Y-86515771D01*
X128114285Y-86515771D02*
X128161904Y-86563390D01*
X128161904Y-86563390D02*
X128209523Y-86658628D01*
X128209523Y-86658628D02*
X128209523Y-86944342D01*
X128209523Y-86944342D02*
X128161904Y-87039580D01*
X128161904Y-87039580D02*
X128114285Y-87087200D01*
X128114285Y-87087200D02*
X128019047Y-87134819D01*
X128019047Y-87134819D02*
X127828571Y-87134819D01*
X127828571Y-87134819D02*
X127733333Y-87087200D01*
X128971428Y-86611009D02*
X128638095Y-86611009D01*
X128638095Y-87134819D02*
X128638095Y-86134819D01*
X128638095Y-86134819D02*
X129114285Y-86134819D01*
X127783333Y-85249366D02*
X127750000Y-85282700D01*
X127750000Y-85282700D02*
X127650000Y-85316033D01*
X127650000Y-85316033D02*
X127583333Y-85316033D01*
X127583333Y-85316033D02*
X127483333Y-85282700D01*
X127483333Y-85282700D02*
X127416667Y-85216033D01*
X127416667Y-85216033D02*
X127383333Y-85149366D01*
X127383333Y-85149366D02*
X127350000Y-85016033D01*
X127350000Y-85016033D02*
X127350000Y-84916033D01*
X127350000Y-84916033D02*
X127383333Y-84782700D01*
X127383333Y-84782700D02*
X127416667Y-84716033D01*
X127416667Y-84716033D02*
X127483333Y-84649366D01*
X127483333Y-84649366D02*
X127583333Y-84616033D01*
X127583333Y-84616033D02*
X127650000Y-84616033D01*
X127650000Y-84616033D02*
X127750000Y-84649366D01*
X127750000Y-84649366D02*
X127783333Y-84682700D01*
X128016667Y-84616033D02*
X128450000Y-84616033D01*
X128450000Y-84616033D02*
X128216667Y-84882700D01*
X128216667Y-84882700D02*
X128316667Y-84882700D01*
X128316667Y-84882700D02*
X128383333Y-84916033D01*
X128383333Y-84916033D02*
X128416667Y-84949366D01*
X128416667Y-84949366D02*
X128450000Y-85016033D01*
X128450000Y-85016033D02*
X128450000Y-85182700D01*
X128450000Y-85182700D02*
X128416667Y-85249366D01*
X128416667Y-85249366D02*
X128383333Y-85282700D01*
X128383333Y-85282700D02*
X128316667Y-85316033D01*
X128316667Y-85316033D02*
X128116667Y-85316033D01*
X128116667Y-85316033D02*
X128050000Y-85282700D01*
X128050000Y-85282700D02*
X128016667Y-85249366D01*
X147438095Y-65413866D02*
X147485714Y-65366247D01*
X147485714Y-65366247D02*
X147580952Y-65318628D01*
X147580952Y-65318628D02*
X147771428Y-65413866D01*
X147771428Y-65413866D02*
X147866666Y-65366247D01*
X147866666Y-65366247D02*
X147914285Y-65318628D01*
X147316033Y-73033333D02*
X147816033Y-73033333D01*
X147816033Y-73033333D02*
X147916033Y-73066666D01*
X147916033Y-73066666D02*
X147982700Y-73133333D01*
X147982700Y-73133333D02*
X148016033Y-73233333D01*
X148016033Y-73233333D02*
X148016033Y-73300000D01*
X148016033Y-72333333D02*
X148016033Y-72733333D01*
X148016033Y-72533333D02*
X147316033Y-72533333D01*
X147316033Y-72533333D02*
X147416033Y-72600000D01*
X147416033Y-72600000D02*
X147482700Y-72666667D01*
X147482700Y-72666667D02*
X147516033Y-72733333D01*
X130138095Y-65353866D02*
X130185714Y-65306247D01*
X130185714Y-65306247D02*
X130280952Y-65258628D01*
X130280952Y-65258628D02*
X130471428Y-65353866D01*
X130471428Y-65353866D02*
X130566666Y-65306247D01*
X130566666Y-65306247D02*
X130614285Y-65258628D01*
X130016033Y-71703333D02*
X130516033Y-71703333D01*
X130516033Y-71703333D02*
X130616033Y-71736666D01*
X130616033Y-71736666D02*
X130682700Y-71803333D01*
X130682700Y-71803333D02*
X130716033Y-71903333D01*
X130716033Y-71903333D02*
X130716033Y-71970000D01*
X130016033Y-71436667D02*
X130016033Y-71003333D01*
X130016033Y-71003333D02*
X130282700Y-71236667D01*
X130282700Y-71236667D02*
X130282700Y-71136667D01*
X130282700Y-71136667D02*
X130316033Y-71070000D01*
X130316033Y-71070000D02*
X130349366Y-71036667D01*
X130349366Y-71036667D02*
X130416033Y-71003333D01*
X130416033Y-71003333D02*
X130582700Y-71003333D01*
X130582700Y-71003333D02*
X130649366Y-71036667D01*
X130649366Y-71036667D02*
X130682700Y-71070000D01*
X130682700Y-71070000D02*
X130716033Y-71136667D01*
X130716033Y-71136667D02*
X130716033Y-71336667D01*
X130716033Y-71336667D02*
X130682700Y-71403333D01*
X130682700Y-71403333D02*
X130649366Y-71436667D01*
D11*
%TO.C,C8*%
X139466667Y-92400000D02*
X141066667Y-92400000D01*
X139466667Y-95600000D02*
X139466667Y-92400000D01*
X141066667Y-92400000D02*
X141066667Y-95600000D01*
X141066667Y-95600000D02*
X139466667Y-95600000D01*
%TO.C,U2*%
X143500000Y-90050000D02*
X139100000Y-90050000D01*
X139100000Y-84550000D01*
X140100000Y-83550000D01*
X143500000Y-83550000D01*
X143500000Y-90050000D01*
%TO.C,J2*%
X132830000Y-83775000D02*
X133465000Y-83140000D01*
X132830000Y-95840000D02*
X132830000Y-83775000D01*
X133465000Y-83140000D02*
X135370000Y-83140000D01*
X135370000Y-83140000D02*
X135370000Y-95840000D01*
X135370000Y-95840000D02*
X132830000Y-95840000D01*
%TO.C,R1*%
X132000000Y-80350000D02*
X135200000Y-80350000D01*
X132000000Y-81950000D02*
X132000000Y-80350000D01*
X135200000Y-80350000D02*
X135200000Y-81950000D01*
X135200000Y-81950000D02*
X132000000Y-81950000D01*
%TO.C,U1*%
X142175000Y-79475000D02*
X138175000Y-79475000D01*
X138175000Y-76475000D01*
X139175000Y-75475000D01*
X142175000Y-75475000D01*
X142175000Y-79475000D01*
%TO.C,R7*%
X152800000Y-83650000D02*
X154400000Y-83650000D01*
X152800000Y-86850000D02*
X152800000Y-83650000D01*
X154400000Y-83650000D02*
X154400000Y-86850000D01*
X154400000Y-86850000D02*
X152800000Y-86850000D01*
%TO.C,R3*%
X140250000Y-72800000D02*
X143450000Y-72800000D01*
X140250000Y-74400000D02*
X140250000Y-72800000D01*
X143450000Y-72800000D02*
X143450000Y-74400000D01*
X143450000Y-74400000D02*
X140250000Y-74400000D01*
X132000000Y-77950000D02*
X135200000Y-77950000D01*
X135200000Y-77850000D02*
G75*
G02*
X135200000Y-77950000I0J-50000D01*
G01*
X135200000Y-77850000D02*
X132000000Y-77850000D01*
X132000000Y-77850000D02*
G75*
G03*
X132000000Y-77950000I0J-50000D01*
G01*
X132050000Y-79500000D02*
X132050000Y-77900000D01*
X131950000Y-77900000D02*
G75*
G02*
X132050000Y-77900000I50000J0D01*
G01*
X131950000Y-77900000D02*
X131950000Y-79500000D01*
X131950000Y-79500000D02*
G75*
G03*
X132050000Y-79500000I50000J0D01*
G01*
X135150000Y-77900000D02*
X135150000Y-79500000D01*
X135250000Y-79500000D02*
G75*
G02*
X135150000Y-79500000I-50000J0D01*
G01*
X135250000Y-79500000D02*
X135250000Y-77900000D01*
X135250000Y-77900000D02*
G75*
G03*
X135150000Y-77900000I-50000J0D01*
G01*
X135200000Y-79450000D02*
X132000000Y-79450000D01*
X132000000Y-79550000D02*
G75*
G02*
X132000000Y-79450000I0J50000D01*
G01*
X132000000Y-79550000D02*
X135200000Y-79550000D01*
X135200000Y-79550000D02*
G75*
G03*
X135200000Y-79450000I0J50000D01*
G01*
%TO.C,D3*%
X155100000Y-82450000D02*
X155100000Y-85850000D01*
X155100000Y-85850000D02*
X158100000Y-85850000D01*
X157200000Y-82450000D02*
X158100000Y-83350000D01*
X158100000Y-82450000D02*
X155100000Y-82450000D01*
X158100000Y-85850000D02*
X158100000Y-82450000D01*
X157850000Y-84150000D02*
G75*
G02*
X155350000Y-84150000I-1250000J0D01*
G01*
X155350000Y-84150000D02*
G75*
G02*
X157850000Y-84150000I1250000J0D01*
G01*
%TO.C,C6*%
X144400000Y-92380000D02*
X146000000Y-92380000D01*
X144400000Y-95580000D02*
X144400000Y-92380000D01*
X146000000Y-92380000D02*
X146000000Y-95580000D01*
X146000000Y-95580000D02*
X144400000Y-95580000D01*
%TO.C,C4*%
X126900000Y-77775000D02*
X128900000Y-77775000D01*
X126900000Y-79025000D02*
X126900000Y-77775000D01*
X128900000Y-77775000D02*
X128900000Y-79025000D01*
X128900000Y-79025000D02*
X126900000Y-79025000D01*
%TO.C,C9*%
X137000000Y-92380000D02*
X138600000Y-92380000D01*
X137000000Y-95580000D02*
X137000000Y-92380000D01*
X138600000Y-92380000D02*
X138600000Y-95580000D01*
X138600000Y-95580000D02*
X137000000Y-95580000D01*
%TO.C,R9*%
X122700000Y-66800000D02*
X125900000Y-66800000D01*
X122700000Y-68400000D02*
X122700000Y-66800000D01*
X125900000Y-66800000D02*
X125900000Y-68400000D01*
X125900000Y-68400000D02*
X122700000Y-68400000D01*
%TO.C,J7*%
X132730000Y-67025000D02*
X133365000Y-66390000D01*
X132730000Y-76550000D02*
X132730000Y-67025000D01*
X133365000Y-66390000D02*
X135270000Y-66390000D01*
X135270000Y-66390000D02*
X135270000Y-76550000D01*
X135270000Y-76550000D02*
X132730000Y-76550000D01*
D12*
%TO.C,J6*%
X137625000Y-65465000D02*
X145125000Y-65465000D01*
X137625000Y-70415000D02*
X137625000Y-65465000D01*
X144325000Y-70415000D02*
X137625000Y-70415000D01*
X145125000Y-65465000D02*
X145125000Y-69665000D01*
X145125000Y-69665000D02*
X144325000Y-70415000D01*
D11*
%TO.C,C7*%
X141933333Y-92400000D02*
X143533333Y-92400000D01*
X141933333Y-95600000D02*
X141933333Y-92400000D01*
X143533333Y-92400000D02*
X143533333Y-95600000D01*
X143533333Y-95600000D02*
X141933333Y-95600000D01*
%TO.C,R6*%
X138700000Y-80700000D02*
X141900000Y-80700000D01*
X138700000Y-82300000D02*
X138700000Y-80700000D01*
X141900000Y-80700000D02*
X141900000Y-82300000D01*
X141900000Y-82300000D02*
X138700000Y-82300000D01*
%TO.C,J4*%
X147430000Y-83140000D02*
X149970000Y-83140000D01*
X147430000Y-95840000D02*
X147430000Y-83140000D01*
X149335000Y-95840000D02*
X147430000Y-95840000D01*
X149970000Y-83140000D02*
X149970000Y-95205000D01*
X149970000Y-95205000D02*
X149335000Y-95840000D01*
%TO.C,C3*%
X126900000Y-84375000D02*
X128900000Y-84375000D01*
X126900000Y-85625000D02*
X126900000Y-84375000D01*
X128900000Y-84375000D02*
X128900000Y-85625000D01*
X128900000Y-85625000D02*
X126900000Y-85625000D01*
%TO.C,J1*%
X146430000Y-66450000D02*
X148970000Y-66450000D01*
X146430000Y-79150000D02*
X146430000Y-66450000D01*
X148335000Y-79150000D02*
X146430000Y-79150000D01*
X148970000Y-66450000D02*
X148970000Y-78515000D01*
X148970000Y-78515000D02*
X148335000Y-79150000D01*
%TO.C,J3*%
X129130000Y-66390000D02*
X131670000Y-66390000D01*
X129130000Y-76550000D02*
X129130000Y-66390000D01*
X131035000Y-76550000D02*
X129130000Y-76550000D01*
X131670000Y-66390000D02*
X131670000Y-75915000D01*
X131670000Y-75915000D02*
X131035000Y-76550000D01*
%TD*%
X131075000Y-77505000D02*
X136125000Y-79895000D01*
X131075000Y-79895000D02*
X136125000Y-77505000D01*
M02*
