%TF.GenerationSoftware,KiCad,Pcbnew,9.0.6*%
%TF.CreationDate,2026-06-22T12:24:53-07:00*%
%TF.ProjectId,STM32 Dev Board,53544d33-3220-4446-9576-20426f617264,rev?*%
%TF.SameCoordinates,Original*%
%TF.FileFunction,Copper,L1,Top*%
%TF.FilePolarity,Positive*%
%FSLAX46Y46*%
G04 Gerber Fmt 4.6, Leading zero omitted, Abs format (unit mm)*
G04 Created by KiCad (PCBNEW 9.0.6) date 2026-06-22 12:24:53*
%MOMM*%
%LPD*%
G01*
G04 APERTURE LIST*
G04 Aperture macros list*
%AMRoundRect*
0 Rectangle with rounded corners*
0 $1 Rounding radius*
0 $2 $3 $4 $5 $6 $7 $8 $9 X,Y pos of 4 corners*
0 Add a 4 corners polygon primitive as box body*
4,1,4,$2,$3,$4,$5,$6,$7,$8,$9,$2,$3,0*
0 Add four circle primitives for the rounded corners*
1,1,$1+$1,$2,$3*
1,1,$1+$1,$4,$5*
1,1,$1+$1,$6,$7*
1,1,$1+$1,$8,$9*
0 Add four rect primitives between the rounded corners*
20,1,$1+$1,$2,$3,$4,$5,0*
20,1,$1+$1,$4,$5,$6,$7,0*
20,1,$1+$1,$6,$7,$8,$9,0*
20,1,$1+$1,$8,$9,$2,$3,0*%
G04 Aperture macros list end*
%TA.AperFunction,SMDPad,CuDef*%
%ADD10RoundRect,0.250000X-0.650000X0.412500X-0.650000X-0.412500X0.650000X-0.412500X0.650000X0.412500X0*%
%TD*%
%TA.AperFunction,SMDPad,CuDef*%
%ADD11RoundRect,0.100000X-0.637500X-0.100000X0.637500X-0.100000X0.637500X0.100000X-0.637500X0.100000X0*%
%TD*%
%TA.AperFunction,ComponentPad*%
%ADD12R,1.700000X1.700000*%
%TD*%
%TA.AperFunction,ComponentPad*%
%ADD13C,1.700000*%
%TD*%
%TA.AperFunction,SMDPad,CuDef*%
%ADD14RoundRect,0.250000X-0.412500X-0.650000X0.412500X-0.650000X0.412500X0.650000X-0.412500X0.650000X0*%
%TD*%
%TA.AperFunction,SMDPad,CuDef*%
%ADD15RoundRect,0.075000X-0.337500X-0.075000X0.337500X-0.075000X0.337500X0.075000X-0.337500X0.075000X0*%
%TD*%
%TA.AperFunction,SMDPad,CuDef*%
%ADD16RoundRect,0.075000X-0.075000X-0.337500X0.075000X-0.337500X0.075000X0.337500X-0.075000X0.337500X0*%
%TD*%
%TA.AperFunction,HeatsinkPad*%
%ADD17R,2.500000X2.500000*%
%TD*%
%TA.AperFunction,SMDPad,CuDef*%
%ADD18RoundRect,0.250000X-0.625000X0.400000X-0.625000X-0.400000X0.625000X-0.400000X0.625000X0.400000X0*%
%TD*%
%TA.AperFunction,SMDPad,CuDef*%
%ADD19RoundRect,0.250000X0.400000X0.625000X-0.400000X0.625000X-0.400000X-0.625000X0.400000X-0.625000X0*%
%TD*%
%TA.AperFunction,SMDPad,CuDef*%
%ADD20RoundRect,0.250000X0.412500X0.650000X-0.412500X0.650000X-0.412500X-0.650000X0.412500X-0.650000X0*%
%TD*%
%TA.AperFunction,SMDPad,CuDef*%
%ADD21RoundRect,0.250000X-1.050000X0.500000X-1.050000X-0.500000X1.050000X-0.500000X1.050000X0.500000X0*%
%TD*%
%TA.AperFunction,SMDPad,CuDef*%
%ADD22O,1.590000X3.872500*%
%TD*%
%TA.AperFunction,SMDPad,CuDef*%
%ADD23O,1.590000X3.877500*%
%TD*%
%TA.AperFunction,SMDPad,CuDef*%
%ADD24RoundRect,0.250000X-0.337500X-0.475000X0.337500X-0.475000X0.337500X0.475000X-0.337500X0.475000X0*%
%TD*%
%TA.AperFunction,SMDPad,CuDef*%
%ADD25RoundRect,0.172500X0.402500X-0.527500X0.402500X0.527500X-0.402500X0.527500X-0.402500X-0.527500X0*%
%TD*%
%TA.AperFunction,SMDPad,CuDef*%
%ADD26RoundRect,0.250000X-0.400000X-0.625000X0.400000X-0.625000X0.400000X0.625000X-0.400000X0.625000X0*%
%TD*%
%TA.AperFunction,SMDPad,CuDef*%
%ADD27R,0.400000X1.650000*%
%TD*%
%TA.AperFunction,SMDPad,CuDef*%
%ADD28R,1.825000X0.700000*%
%TD*%
%TA.AperFunction,SMDPad,CuDef*%
%ADD29R,2.000000X1.500000*%
%TD*%
%TA.AperFunction,SMDPad,CuDef*%
%ADD30R,1.350000X2.000000*%
%TD*%
%TA.AperFunction,HeatsinkPad*%
%ADD31O,1.350000X1.700000*%
%TD*%
%TA.AperFunction,HeatsinkPad*%
%ADD32O,1.100000X1.500000*%
%TD*%
%TA.AperFunction,SMDPad,CuDef*%
%ADD33R,1.430000X2.500000*%
%TD*%
%TA.AperFunction,SMDPad,CuDef*%
%ADD34R,2.700000X1.000000*%
%TD*%
%TA.AperFunction,ComponentPad*%
%ADD35C,0.800000*%
%TD*%
%TA.AperFunction,ViaPad*%
%ADD36C,0.600000*%
%TD*%
%TA.AperFunction,ViaPad*%
%ADD37C,5.000000*%
%TD*%
%TA.AperFunction,Conductor*%
%ADD38C,0.200000*%
%TD*%
%TA.AperFunction,Conductor*%
%ADD39C,0.400000*%
%TD*%
%TA.AperFunction,Conductor*%
%ADD40C,0.500000*%
%TD*%
G04 APERTURE END LIST*
D10*
%TO.P,C8,1*%
%TO.N,3.3V*%
X140266667Y-92437500D03*
%TO.P,C8,2*%
%TO.N,GND*%
X140266667Y-95562500D03*
%TD*%
D11*
%TO.P,U2,1,BOOT0*%
%TO.N,Net-(U2-BOOT0)*%
X138437500Y-83875000D03*
%TO.P,U2,2,PF0*%
%TO.N,Net-(U2-PF0)*%
X138437500Y-84525000D03*
%TO.P,U2,3,PF1*%
%TO.N,Net-(U2-PF1)*%
X138437500Y-85175000D03*
%TO.P,U2,4,NRST*%
%TO.N,Net-(U2-NRST)*%
X138437500Y-85825000D03*
%TO.P,U2,5,VDDA*%
%TO.N,3.3V*%
X138437500Y-86475000D03*
%TO.P,U2,6,PA0*%
%TO.N,Net-(U2-PA0)*%
X138437500Y-87125000D03*
%TO.P,U2,7,PA1*%
%TO.N,Net-(U2-PA1)*%
X138437500Y-87775000D03*
%TO.P,U2,8,PA2*%
%TO.N,UART_Tx*%
X138437500Y-88425000D03*
%TO.P,U2,9,PA3*%
%TO.N,UART_Rx*%
X138437500Y-89075000D03*
%TO.P,U2,10,PA4*%
%TO.N,Net-(U2-PA4)*%
X138437500Y-89725000D03*
%TO.P,U2,11,PA5*%
%TO.N,Net-(U2-PA5)*%
X144162500Y-89725000D03*
%TO.P,U2,12,PA6*%
%TO.N,Net-(U2-PA6)*%
X144162500Y-89075000D03*
%TO.P,U2,13,PA7*%
%TO.N,Net-(U2-PA7)*%
X144162500Y-88425000D03*
%TO.P,U2,14,PB1*%
%TO.N,Net-(U2-PB1)*%
X144162500Y-87775000D03*
%TO.P,U2,15,VSS*%
%TO.N,GND*%
X144162500Y-87125000D03*
%TO.P,U2,16,VDD*%
%TO.N,3.3V*%
X144162500Y-86475000D03*
%TO.P,U2,17,PA9/PA11*%
%TO.N,Net-(U2-PA9{slash}PA11)*%
X144162500Y-85825000D03*
%TO.P,U2,18,PA10/PA12*%
%TO.N,Net-(U2-PA10{slash}PA12)*%
X144162500Y-85175000D03*
%TO.P,U2,19,PA13*%
%TO.N,/MCU/SWD*%
X144162500Y-84525000D03*
%TO.P,U2,20,PA14*%
%TO.N,/MCU/SWCLK*%
X144162500Y-83875000D03*
%TD*%
D12*
%TO.P,J2,1,1*%
%TO.N,Net-(U2-PF0)*%
X134100000Y-84410000D03*
D13*
%TO.P,J2,2,2*%
%TO.N,Net-(U2-PF1)*%
X134100000Y-86950000D03*
%TO.P,J2,3,3*%
%TO.N,Net-(U2-PA0)*%
X134100000Y-89490000D03*
%TO.P,J2,4,4*%
%TO.N,Net-(U2-PA1)*%
X134100000Y-92030000D03*
%TO.P,J2,5,5*%
%TO.N,Net-(U2-PA4)*%
X134100000Y-94570000D03*
%TD*%
D14*
%TO.P,R1,1*%
%TO.N,GND*%
X132037500Y-81150000D03*
%TO.P,R1,2*%
%TO.N,Net-(U2-BOOT0)*%
X135162500Y-81150000D03*
%TD*%
D15*
%TO.P,U1,1,GP0*%
%TO.N,unconnected-(U1-GP0-Pad1)*%
X138237500Y-76500000D03*
%TO.P,U1,2,GP1*%
%TO.N,unconnected-(U1-GP1-Pad2)*%
X138237500Y-77150000D03*
%TO.P,U1,3,~{RST}*%
%TO.N,Net-(U1-~{RST})*%
X138237500Y-77800000D03*
%TO.P,U1,4,URx*%
%TO.N,UART_Tx*%
X138237500Y-78450000D03*
D16*
%TO.P,U1,5,UTx*%
%TO.N,UART_Rx*%
X139200000Y-79412500D03*
%TO.P,U1,6,GP2*%
%TO.N,unconnected-(U1-GP2-Pad6)*%
X139850000Y-79412500D03*
%TO.P,U1,7,GP3*%
%TO.N,unconnected-(U1-GP3-Pad7)*%
X140500000Y-79412500D03*
%TO.P,U1,8,SDA*%
%TO.N,unconnected-(U1-SDA-Pad8)*%
X141150000Y-79412500D03*
D15*
%TO.P,U1,9,SCL*%
%TO.N,unconnected-(U1-SCL-Pad9)*%
X142112500Y-78450000D03*
%TO.P,U1,10,VUSB*%
%TO.N,VUSB*%
X142112500Y-77800000D03*
%TO.P,U1,11,D-*%
%TO.N,Net-(J6-D-)*%
X142112500Y-77150000D03*
%TO.P,U1,12,D+*%
%TO.N,Net-(J6-D+)*%
X142112500Y-76500000D03*
D16*
%TO.P,U1,13,VSS*%
%TO.N,GND*%
X141150000Y-75537500D03*
%TO.P,U1,14,NC*%
%TO.N,unconnected-(U1-NC-Pad14)*%
X140500000Y-75537500D03*
%TO.P,U1,15,NC*%
%TO.N,unconnected-(U1-NC-Pad15)*%
X139850000Y-75537500D03*
%TO.P,U1,16,VDD*%
%TO.N,VUSB*%
X139200000Y-75537500D03*
D17*
%TO.P,U1,17,NC*%
%TO.N,unconnected-(U1-NC-Pad17)*%
X140175000Y-77475000D03*
%TD*%
D18*
%TO.P,R7,1*%
%TO.N,Net-(D3-A)*%
X153600000Y-83700000D03*
%TO.P,R7,2*%
%TO.N,Net-(U2-PB1)*%
X153600000Y-86800000D03*
%TD*%
D19*
%TO.P,R3,1*%
%TO.N,VUSB*%
X143400000Y-73600000D03*
%TO.P,R3,2*%
%TO.N,Net-(U1-~{RST})*%
X140300000Y-73600000D03*
%TD*%
D20*
%TO.P,R2,1*%
%TO.N,3.3V*%
X135162500Y-78700000D03*
%TO.P,R2,2*%
%TO.N,GND*%
X132037500Y-78700000D03*
%TD*%
D21*
%TO.P,D3,1,K*%
%TO.N,GND*%
X156600000Y-85650000D03*
%TO.P,D3,2,A*%
%TO.N,Net-(D3-A)*%
X156600000Y-82650000D03*
%TD*%
D10*
%TO.P,C6,1*%
%TO.N,3.3V*%
X145200000Y-92417500D03*
%TO.P,C6,2*%
%TO.N,GND*%
X145200000Y-95542500D03*
%TD*%
D22*
%TO.P,SW1,1*%
%TO.N,GND*%
X157360000Y-68868750D03*
D23*
%TO.P,SW1,2*%
%TO.N,unconnected-(SW1-Pad2)*%
X157360000Y-78328750D03*
D22*
%TO.P,SW1,3*%
%TO.N,unconnected-(SW1-Pad3)*%
X153360000Y-68868750D03*
%TO.P,SW1,4*%
%TO.N,Net-(U2-NRST)*%
X153360000Y-78331250D03*
%TD*%
D24*
%TO.P,C4,1*%
%TO.N,GND*%
X126862500Y-78400000D03*
%TO.P,C4,2*%
%TO.N,Net-(U2-PF0)*%
X128937500Y-78400000D03*
%TD*%
D25*
%TO.P,X1,1,Xtal*%
%TO.N,Net-(U2-PF1)*%
X127100000Y-82750000D03*
%TO.P,X1,2,GND*%
%TO.N,GND*%
X127100000Y-80550000D03*
%TO.P,X1,3,Xtal*%
%TO.N,Net-(U2-PF0)*%
X128700000Y-80550000D03*
%TO.P,X1,4,GND*%
%TO.N,GND*%
X128700000Y-82750000D03*
%TD*%
D10*
%TO.P,C9,1*%
%TO.N,3.3V*%
X137800000Y-92417500D03*
%TO.P,C9,2*%
%TO.N,GND*%
X137800000Y-95542500D03*
%TD*%
D26*
%TO.P,R9,1*%
%TO.N,Net-(R9-Pad1)*%
X122750000Y-67600000D03*
%TO.P,R9,2*%
%TO.N,GND*%
X125850000Y-67600000D03*
%TD*%
D12*
%TO.P,J7,1,1*%
%TO.N,VUSB*%
X134000000Y-67660000D03*
D13*
%TO.P,J7,2,2*%
X134000000Y-70200000D03*
%TO.P,J7,3,3*%
%TO.N,UART_Tx*%
X134000000Y-72740000D03*
%TO.P,J7,4,4*%
%TO.N,UART_Rx*%
X134000000Y-75280000D03*
%TD*%
D27*
%TO.P,J6,1,VBUS*%
%TO.N,VUSB*%
X142675000Y-70565000D03*
%TO.P,J6,2,D-*%
%TO.N,Net-(J6-D-)*%
X142025000Y-70565000D03*
%TO.P,J6,3,D+*%
%TO.N,Net-(J6-D+)*%
X141375000Y-70565000D03*
%TO.P,J6,4,ID*%
%TO.N,unconnected-(J6-ID-Pad4)*%
X140725000Y-70565000D03*
%TO.P,J6,5,GND*%
%TO.N,GND*%
X140075000Y-70565000D03*
D28*
%TO.P,J6,6,Shield*%
X144325000Y-69365000D03*
D29*
X144225000Y-70665000D03*
D30*
X144105000Y-68615000D03*
D31*
X144105000Y-67685000D03*
D32*
X143795000Y-70685000D03*
D33*
X142335000Y-67415000D03*
X140415000Y-67415000D03*
D32*
X138955000Y-70685000D03*
D31*
X138645000Y-67685000D03*
D30*
X138625000Y-68615000D03*
D29*
X138475000Y-70685000D03*
D28*
X138375000Y-69365000D03*
%TD*%
D10*
%TO.P,C7,1*%
%TO.N,3.3V*%
X142733333Y-92437500D03*
%TO.P,C7,2*%
%TO.N,GND*%
X142733333Y-95562500D03*
%TD*%
D19*
%TO.P,R6,1*%
%TO.N,3.3V*%
X141850000Y-81500000D03*
%TO.P,R6,2*%
%TO.N,Net-(U2-NRST)*%
X138750000Y-81500000D03*
%TD*%
D12*
%TO.P,J4,1,1*%
%TO.N,Net-(U2-PA5)*%
X148700000Y-94570000D03*
D13*
%TO.P,J4,2,2*%
%TO.N,Net-(U2-PA6)*%
X148700000Y-92030000D03*
%TO.P,J4,3,3*%
%TO.N,Net-(U2-PA7)*%
X148700000Y-89490000D03*
%TO.P,J4,4,4*%
%TO.N,Net-(U2-PA9{slash}PA11)*%
X148700000Y-86950000D03*
%TO.P,J4,5,5*%
%TO.N,Net-(U2-PA10{slash}PA12)*%
X148700000Y-84410000D03*
%TD*%
D24*
%TO.P,C3,1*%
%TO.N,Net-(U2-PF1)*%
X126862500Y-85000000D03*
%TO.P,C3,2*%
%TO.N,GND*%
X128937500Y-85000000D03*
%TD*%
D12*
%TO.P,J1,1,1*%
%TO.N,Net-(U2-NRST)*%
X147700000Y-77880000D03*
D13*
%TO.P,J1,2,2*%
%TO.N,3.3V*%
X147700000Y-75340000D03*
%TO.P,J1,3,3*%
%TO.N,/MCU/SWD*%
X147700000Y-72800000D03*
%TO.P,J1,4,4*%
%TO.N,/MCU/SWCLK*%
X147700000Y-70260000D03*
%TO.P,J1,5,5*%
%TO.N,GND*%
X147700000Y-67720000D03*
%TD*%
D12*
%TO.P,J3,1,1*%
%TO.N,3.3V*%
X130400000Y-75280000D03*
D13*
%TO.P,J3,2,2*%
X130400000Y-72740000D03*
%TO.P,J3,3,3*%
%TO.N,GND*%
X130400000Y-70200000D03*
%TO.P,J3,4,4*%
X130400000Y-67660000D03*
%TD*%
D34*
%TO.P,SW2,1,1*%
%TO.N,Net-(R9-Pad1)*%
X125750000Y-70250000D03*
%TO.P,SW2,2,2*%
%TO.N,Net-(D2-K)*%
X125750000Y-72250000D03*
%TO.P,SW2,3,C*%
%TO.N,Net-(SW2-C)*%
X125750000Y-74250000D03*
D35*
%TO.P,SW2,4,MNT*%
X121300000Y-70250000D03*
X121300000Y-76500000D03*
%TD*%
D36*
%TO.N,GND*%
X140900000Y-84800000D03*
X155400000Y-80050000D03*
X149550000Y-81350000D03*
X122900000Y-81850000D03*
X144400000Y-82700000D03*
X151200000Y-91500000D03*
X135700000Y-86800000D03*
X151100000Y-96450000D03*
X156650000Y-92050000D03*
X122850000Y-85700000D03*
X157700000Y-74550000D03*
X149950000Y-79550000D03*
X146800000Y-84400000D03*
X146000000Y-86900000D03*
X137800000Y-94000000D03*
X131100000Y-84800000D03*
X144700000Y-78800000D03*
X147500000Y-79600000D03*
X128700000Y-88700000D03*
X142700000Y-94000000D03*
X142700000Y-84700000D03*
X122900000Y-88550000D03*
X122950000Y-91700000D03*
X138000000Y-74800000D03*
X145000000Y-72200000D03*
X133600000Y-78450000D03*
D37*
X155500000Y-95500000D03*
D36*
X137750000Y-82800000D03*
X136550000Y-72000000D03*
X127900000Y-94550000D03*
X149850000Y-75800000D03*
X136100000Y-67900000D03*
X145200000Y-94000000D03*
X130400000Y-79800000D03*
D37*
X123600000Y-95600000D03*
D36*
X127650000Y-90700000D03*
X140300000Y-94000000D03*
X149700000Y-71450000D03*
X144400000Y-75400000D03*
X155700000Y-67050000D03*
X122850000Y-71850000D03*
X121150000Y-67000000D03*
X154100000Y-81600000D03*
X133700000Y-82500000D03*
X132200000Y-72100000D03*
X153850000Y-74200000D03*
X151350000Y-85000000D03*
%TO.N,UART_Tx*%
X137100000Y-88425000D03*
%TO.N,UART_Rx*%
X136300000Y-89300000D03*
%TO.N,VUSB*%
X138950000Y-74500000D03*
X142700000Y-72000000D03*
%TO.N,Net-(U2-NRST)*%
X140300000Y-80950000D03*
%TO.N,Net-(D2-K)*%
X127800000Y-71500000D03*
%TO.N,3.3V*%
X141550000Y-90750000D03*
X139000000Y-90750000D03*
X143650000Y-90750000D03*
X145250000Y-90750000D03*
X145300000Y-75300000D03*
X137000000Y-90750000D03*
%TD*%
D38*
%TO.N,GND*%
X140075000Y-71725000D02*
X140000000Y-71800000D01*
X140075000Y-70565000D02*
X139075000Y-70565000D01*
X127100000Y-80700000D02*
X128700000Y-82300000D01*
X140415000Y-67415000D02*
X140075000Y-67755000D01*
X140415000Y-67415000D02*
X138915000Y-67415000D01*
X142600000Y-69400000D02*
X143000000Y-69400000D01*
X139075000Y-70565000D02*
X138955000Y-70685000D01*
X140075000Y-67755000D02*
X140075000Y-70565000D01*
X142335000Y-69135000D02*
X142600000Y-69400000D01*
X143835000Y-67415000D02*
X144105000Y-67685000D01*
X128700000Y-82300000D02*
X128700000Y-82750000D01*
X143000000Y-69400000D02*
X143035000Y-69365000D01*
X142335000Y-67415000D02*
X142335000Y-69135000D01*
X140075000Y-70565000D02*
X140075000Y-71725000D01*
X140415000Y-67415000D02*
X143835000Y-67415000D01*
D39*
X144162500Y-87125000D02*
X145775000Y-87125000D01*
D38*
X143035000Y-69365000D02*
X144325000Y-69365000D01*
D39*
X145775000Y-87125000D02*
X146000000Y-86900000D01*
D38*
X127100000Y-80550000D02*
X127100000Y-80700000D01*
X138915000Y-67415000D02*
X138645000Y-67685000D01*
%TO.N,/MCU/SWCLK*%
X145900000Y-83200000D02*
X145900000Y-72060000D01*
X144162500Y-83875000D02*
X145225000Y-83875000D01*
X145900000Y-72060000D02*
X147700000Y-70260000D01*
X145225000Y-83875000D02*
X145900000Y-83200000D01*
%TO.N,/MCU/SWD*%
X145575000Y-84525000D02*
X144162500Y-84525000D01*
X146550000Y-73950000D02*
X146550000Y-83550000D01*
X146550000Y-83550000D02*
X145575000Y-84525000D01*
X147700000Y-72800000D02*
X146550000Y-73950000D01*
%TO.N,UART_Tx*%
X137784315Y-78450000D02*
X138237500Y-78450000D01*
X138437500Y-88425000D02*
X137100000Y-88425000D01*
X136800000Y-75540000D02*
X136800000Y-77465685D01*
X136800000Y-77465685D02*
X137784315Y-78450000D01*
X134000000Y-72740000D02*
X136800000Y-75540000D01*
%TO.N,Net-(U2-PA1)*%
X135350000Y-90780000D02*
X135350000Y-89250000D01*
X136825000Y-87775000D02*
X138437500Y-87775000D01*
X135350000Y-89250000D02*
X136825000Y-87775000D01*
X134100000Y-92030000D02*
X135350000Y-90780000D01*
%TO.N,Net-(U2-PA0)*%
X138437500Y-87125000D02*
X136465000Y-87125000D01*
X136465000Y-87125000D02*
X134100000Y-89490000D01*
%TO.N,Net-(U2-PA7)*%
X147635000Y-88425000D02*
X148700000Y-89490000D01*
X144162500Y-88425000D02*
X147635000Y-88425000D01*
%TO.N,Net-(U2-PA5)*%
X147100000Y-94100000D02*
X147570000Y-94570000D01*
X146175000Y-89725000D02*
X147100000Y-90650000D01*
X147100000Y-90650000D02*
X147100000Y-94100000D01*
X147570000Y-94570000D02*
X148700000Y-94570000D01*
X144162500Y-89725000D02*
X146175000Y-89725000D01*
%TO.N,Net-(U2-PA6)*%
X146475000Y-89075000D02*
X148700000Y-91300000D01*
X144162500Y-89075000D02*
X146475000Y-89075000D01*
X148700000Y-91300000D02*
X148700000Y-92030000D01*
%TO.N,Net-(U2-PA4)*%
X136000000Y-92670000D02*
X136000000Y-90700000D01*
X134100000Y-94570000D02*
X136000000Y-92670000D01*
X136975000Y-89725000D02*
X138437500Y-89725000D01*
X136000000Y-90700000D02*
X136975000Y-89725000D01*
%TO.N,Net-(U2-PA9{slash}PA11)*%
X147575000Y-85825000D02*
X148700000Y-86950000D01*
X144162500Y-85825000D02*
X147575000Y-85825000D01*
%TO.N,Net-(U2-PF1)*%
X126862500Y-85000000D02*
X126862500Y-82987500D01*
X135875000Y-85175000D02*
X138437500Y-85175000D01*
X134100000Y-86950000D02*
X135875000Y-85175000D01*
X128812500Y-86950000D02*
X134100000Y-86950000D01*
X126862500Y-82987500D02*
X127100000Y-82750000D01*
X126862500Y-85000000D02*
X128812500Y-86950000D01*
%TO.N,Net-(U2-PB1)*%
X144237500Y-87700000D02*
X144162500Y-87775000D01*
X151061000Y-88339000D02*
X148139000Y-88339000D01*
X147500000Y-87700000D02*
X144237500Y-87700000D01*
X152600000Y-86800000D02*
X151061000Y-88339000D01*
X153600000Y-86800000D02*
X152600000Y-86800000D01*
X148139000Y-88339000D02*
X147500000Y-87700000D01*
%TO.N,Net-(U2-PF0)*%
X134215000Y-84525000D02*
X138437500Y-84525000D01*
X128937500Y-80312500D02*
X128700000Y-80550000D01*
X132510000Y-84410000D02*
X134100000Y-84410000D01*
X128700000Y-80550000D02*
X128700000Y-80600000D01*
X128700000Y-80600000D02*
X132510000Y-84410000D01*
X134100000Y-84410000D02*
X134215000Y-84525000D01*
X128937500Y-78400000D02*
X128937500Y-80312500D01*
%TO.N,Net-(U2-PA10{slash}PA12)*%
X144162500Y-85175000D02*
X147935000Y-85175000D01*
X147935000Y-85175000D02*
X148700000Y-84410000D01*
%TO.N,Net-(U2-BOOT0)*%
X138437500Y-83875000D02*
X137075000Y-83875000D01*
X135162500Y-81962500D02*
X135162500Y-81150000D01*
X137075000Y-83875000D02*
X135162500Y-81962500D01*
%TO.N,UART_Rx*%
X137219239Y-89300000D02*
X136300000Y-89300000D01*
X134000000Y-75280000D02*
X138132500Y-79412500D01*
X138437500Y-89075000D02*
X137444239Y-89075000D01*
X138132500Y-79412500D02*
X139200000Y-79412500D01*
X137444239Y-89075000D02*
X137219239Y-89300000D01*
%TO.N,VUSB*%
X143400000Y-77001414D02*
X142601414Y-77800000D01*
X138950000Y-74500000D02*
X138850000Y-74400000D01*
X142700000Y-72000000D02*
X143350000Y-72650000D01*
X142601414Y-77800000D02*
X142112500Y-77800000D01*
X142675000Y-70565000D02*
X142675000Y-71975000D01*
X143350000Y-73550000D02*
X143400000Y-73600000D01*
X142675000Y-71975000D02*
X142700000Y-72000000D01*
X139200000Y-75537500D02*
X139200000Y-74750000D01*
X139200000Y-74750000D02*
X138950000Y-74500000D01*
X143400000Y-73600000D02*
X143400000Y-77001414D01*
X143350000Y-72650000D02*
X143350000Y-73550000D01*
%TO.N,Net-(J6-D-)*%
X143000000Y-76835728D02*
X142685728Y-77150000D01*
X142025000Y-74325000D02*
X143000000Y-75300000D01*
X142025000Y-70565000D02*
X142025000Y-74325000D01*
X143000000Y-75300000D02*
X143000000Y-76835728D01*
X142685728Y-77150000D02*
X142112500Y-77150000D01*
%TO.N,Net-(J6-D+)*%
X142112500Y-74978186D02*
X141375000Y-74240686D01*
X142112500Y-76500000D02*
X142112500Y-74978186D01*
X141375000Y-74240686D02*
X141375000Y-70565000D01*
%TO.N,Net-(D3-A)*%
X156100000Y-82600000D02*
X155000000Y-83700000D01*
X155000000Y-83700000D02*
X153600000Y-83700000D01*
%TO.N,Net-(U2-NRST)*%
X139775000Y-81475000D02*
X140000000Y-81700000D01*
X140000000Y-85300000D02*
X139475000Y-85825000D01*
X140000000Y-81700000D02*
X140000000Y-85300000D01*
X139475000Y-85825000D02*
X138437500Y-85825000D01*
X139600000Y-81300000D02*
X139775000Y-81475000D01*
X147700000Y-77880000D02*
X153208750Y-77880000D01*
X138750000Y-81300000D02*
X139600000Y-81300000D01*
X153208750Y-77880000D02*
X153410000Y-78081250D01*
X139775000Y-81475000D02*
X140300000Y-80950000D01*
%TO.N,Net-(D2-K)*%
X127050000Y-72250000D02*
X127800000Y-71500000D01*
X125512500Y-72250000D02*
X127050000Y-72250000D01*
%TO.N,3.3V*%
X141900000Y-86475000D02*
X141900000Y-79900000D01*
D40*
X141900000Y-86475000D02*
X144162500Y-86475000D01*
D38*
X133162500Y-76700000D02*
X131820000Y-76700000D01*
X130400000Y-72740000D02*
X130400000Y-75280000D01*
X131820000Y-76700000D02*
X130400000Y-75280000D01*
X135962500Y-79162500D02*
X135625000Y-79162500D01*
D40*
X138437500Y-86475000D02*
X141900000Y-86475000D01*
D38*
X141850000Y-81500000D02*
X140550000Y-80200000D01*
X141900000Y-79900000D02*
X145300000Y-76500000D01*
X140550000Y-80200000D02*
X137000000Y-80200000D01*
X145300000Y-76500000D02*
X145300000Y-75300000D01*
X137000000Y-80200000D02*
X135962500Y-79162500D01*
X135625000Y-79162500D02*
X133162500Y-76700000D01*
%TO.N,Net-(SW2-C)*%
X125512500Y-74250000D02*
X123312500Y-74250000D01*
X123312500Y-74250000D02*
X121062500Y-76500000D01*
%TO.N,Net-(R9-Pad1)*%
X125512500Y-70250000D02*
X123200000Y-67937500D01*
X123200000Y-67937500D02*
X123200000Y-67600000D01*
%TO.N,Net-(U1-~{RST})*%
X140300000Y-73600000D02*
X138200000Y-73600000D01*
X137200000Y-74600000D02*
X137200000Y-77268628D01*
X137731372Y-77800000D02*
X138237500Y-77800000D01*
X138200000Y-73600000D02*
X137200000Y-74600000D01*
X137200000Y-77268628D02*
X137731372Y-77800000D01*
%TD*%
%TA.AperFunction,Conductor*%
%TO.N,3.3V*%
G36*
X142468039Y-86379685D02*
G01*
X142513794Y-86432489D01*
X142525000Y-86484000D01*
X142525000Y-90355000D01*
X143210685Y-90355000D01*
X143258137Y-90364438D01*
X143368238Y-90410044D01*
X143485639Y-90425500D01*
X144839360Y-90425499D01*
X144839363Y-90425499D01*
X144956753Y-90410046D01*
X144956757Y-90410044D01*
X144956762Y-90410044D01*
X145066862Y-90364438D01*
X145114315Y-90355000D01*
X145904403Y-90355000D01*
X145971442Y-90374685D01*
X145992084Y-90391319D01*
X146267681Y-90666916D01*
X146301166Y-90728239D01*
X146304000Y-90754597D01*
X146304000Y-91193616D01*
X146284315Y-91260655D01*
X146231511Y-91306410D01*
X146162353Y-91316354D01*
X146140996Y-91311322D01*
X146002697Y-91265494D01*
X146002690Y-91265493D01*
X145899986Y-91255000D01*
X145450000Y-91255000D01*
X145450000Y-92293500D01*
X145430315Y-92360539D01*
X145377511Y-92406294D01*
X145326000Y-92417500D01*
X145200000Y-92417500D01*
X145200000Y-92543500D01*
X145180315Y-92610539D01*
X145127511Y-92656294D01*
X145076000Y-92667500D01*
X144249766Y-92667500D01*
X144218329Y-92684666D01*
X144191971Y-92687500D01*
X138808029Y-92687500D01*
X138740990Y-92667815D01*
X138740599Y-92667500D01*
X137924000Y-92667500D01*
X137856961Y-92647815D01*
X137811206Y-92595011D01*
X137800000Y-92543500D01*
X137800000Y-92417500D01*
X137674000Y-92417500D01*
X137606961Y-92397815D01*
X137561206Y-92345011D01*
X137550000Y-92293500D01*
X137550000Y-92167500D01*
X138050000Y-92167500D01*
X139258638Y-92167500D01*
X139325677Y-92187185D01*
X139326068Y-92187500D01*
X140016667Y-92187500D01*
X140516667Y-92187500D01*
X142483333Y-92187500D01*
X142483333Y-91275000D01*
X142983333Y-91275000D01*
X142983333Y-92187500D01*
X143683567Y-92187500D01*
X143715004Y-92170334D01*
X143741362Y-92167500D01*
X144950000Y-92167500D01*
X144950000Y-91255000D01*
X144500028Y-91255000D01*
X144500012Y-91255001D01*
X144397302Y-91265494D01*
X144230880Y-91320641D01*
X144230875Y-91320643D01*
X144081654Y-91412684D01*
X144044346Y-91449992D01*
X143983023Y-91483477D01*
X143913331Y-91478491D01*
X143868985Y-91449991D01*
X143851678Y-91432684D01*
X143702457Y-91340643D01*
X143702452Y-91340641D01*
X143536030Y-91285494D01*
X143536023Y-91285493D01*
X143433319Y-91275000D01*
X142983333Y-91275000D01*
X142483333Y-91275000D01*
X142033361Y-91275000D01*
X142033345Y-91275001D01*
X141930635Y-91285494D01*
X141764213Y-91340641D01*
X141764208Y-91340643D01*
X141614987Y-91432684D01*
X141587681Y-91459991D01*
X141526358Y-91493476D01*
X141456666Y-91488492D01*
X141412319Y-91459991D01*
X141385012Y-91432684D01*
X141235791Y-91340643D01*
X141235786Y-91340641D01*
X141069364Y-91285494D01*
X141069357Y-91285493D01*
X140966653Y-91275000D01*
X140516667Y-91275000D01*
X140516667Y-92187500D01*
X140016667Y-92187500D01*
X140016667Y-91275000D01*
X139566695Y-91275000D01*
X139566679Y-91275001D01*
X139463969Y-91285494D01*
X139297547Y-91340641D01*
X139297542Y-91340643D01*
X139148321Y-91432684D01*
X139131012Y-91449993D01*
X139069688Y-91483477D01*
X138999997Y-91478491D01*
X138955652Y-91449991D01*
X138918345Y-91412684D01*
X138769124Y-91320643D01*
X138769119Y-91320641D01*
X138602697Y-91265494D01*
X138602690Y-91265493D01*
X138499986Y-91255000D01*
X138050000Y-91255000D01*
X138050000Y-92167500D01*
X137550000Y-92167500D01*
X137550000Y-91255000D01*
X137100028Y-91255000D01*
X137100012Y-91255001D01*
X136997302Y-91265494D01*
X136830872Y-91320644D01*
X136828398Y-91321798D01*
X136826539Y-91322080D01*
X136824023Y-91322914D01*
X136823880Y-91322483D01*
X136759320Y-91332286D01*
X136695538Y-91303763D01*
X136657302Y-91245284D01*
X136652000Y-91209413D01*
X136652000Y-90948597D01*
X136671685Y-90881558D01*
X136688319Y-90860916D01*
X137057916Y-90491319D01*
X137119239Y-90457834D01*
X137145597Y-90455000D01*
X140250000Y-90455000D01*
X140250000Y-86484000D01*
X140269685Y-86416961D01*
X140322489Y-86371206D01*
X140374000Y-86360000D01*
X142401000Y-86360000D01*
X142468039Y-86379685D01*
G37*
%TD.AperFunction*%
%TD*%
%TA.AperFunction,Conductor*%
%TO.N,GND*%
G36*
X124712448Y-66520185D02*
G01*
X124758203Y-66572989D01*
X124768147Y-66642147D01*
X124763115Y-66663504D01*
X124710494Y-66822302D01*
X124710493Y-66822309D01*
X124700000Y-66925013D01*
X124700000Y-67350000D01*
X126999999Y-67350000D01*
X126999999Y-66925028D01*
X126999998Y-66925013D01*
X126989505Y-66822302D01*
X126936885Y-66663504D01*
X126934483Y-66593676D01*
X126970215Y-66533634D01*
X127032735Y-66502441D01*
X127054591Y-66500500D01*
X129542692Y-66500500D01*
X129609731Y-66520185D01*
X129630373Y-66536819D01*
X130270591Y-67177037D01*
X130207007Y-67194075D01*
X130092993Y-67259901D01*
X129999901Y-67352993D01*
X129934075Y-67467007D01*
X129917037Y-67530591D01*
X129284728Y-66898282D01*
X129284727Y-66898282D01*
X129245380Y-66952439D01*
X129148904Y-67141782D01*
X129083242Y-67343869D01*
X129083242Y-67343872D01*
X129050000Y-67553753D01*
X129050000Y-67766246D01*
X129083242Y-67976127D01*
X129083242Y-67976130D01*
X129148904Y-68178217D01*
X129245375Y-68367550D01*
X129284728Y-68421716D01*
X129917037Y-67789408D01*
X129934075Y-67852993D01*
X129999901Y-67967007D01*
X130092993Y-68060099D01*
X130207007Y-68125925D01*
X130270591Y-68142962D01*
X129669971Y-68743581D01*
X129748711Y-68860895D01*
X129749920Y-68864729D01*
X129752844Y-68867491D01*
X129760343Y-68897778D01*
X129769727Y-68927529D01*
X129768671Y-68931408D01*
X129769638Y-68935312D01*
X129759573Y-68964844D01*
X129751383Y-68994947D01*
X129748397Y-68997640D01*
X129747100Y-69001447D01*
X129702051Y-69040483D01*
X129692440Y-69045380D01*
X129638282Y-69084727D01*
X129638282Y-69084728D01*
X130270591Y-69717037D01*
X130207007Y-69734075D01*
X130092993Y-69799901D01*
X129999901Y-69892993D01*
X129934075Y-70007007D01*
X129917037Y-70070591D01*
X129284728Y-69438282D01*
X129284727Y-69438282D01*
X129245380Y-69492439D01*
X129148904Y-69681782D01*
X129083242Y-69883869D01*
X129083242Y-69883872D01*
X129050000Y-70093753D01*
X129050000Y-70306246D01*
X129083242Y-70516127D01*
X129083242Y-70516130D01*
X129148904Y-70718217D01*
X129245375Y-70907550D01*
X129284728Y-70961716D01*
X129917037Y-70329408D01*
X129934075Y-70392993D01*
X129999901Y-70507007D01*
X130092993Y-70600099D01*
X130207007Y-70665925D01*
X130270590Y-70682962D01*
X129638282Y-71315269D01*
X129638282Y-71315270D01*
X129692452Y-71354626D01*
X129692451Y-71354626D01*
X129701495Y-71359234D01*
X129752292Y-71407208D01*
X129769087Y-71475029D01*
X129746550Y-71541164D01*
X129701499Y-71580202D01*
X129692182Y-71584949D01*
X129520213Y-71709890D01*
X129369890Y-71860213D01*
X129244951Y-72032179D01*
X129148444Y-72221585D01*
X129082753Y-72423760D01*
X129049500Y-72633713D01*
X129049500Y-72846286D01*
X129082753Y-73056239D01*
X129082753Y-73056241D01*
X129082754Y-73056243D01*
X129145709Y-73249999D01*
X129148444Y-73258414D01*
X129244951Y-73447820D01*
X129369890Y-73619786D01*
X129483430Y-73733326D01*
X129516915Y-73794649D01*
X129511931Y-73864341D01*
X129470059Y-73920274D01*
X129439083Y-73937189D01*
X129307669Y-73986203D01*
X129307664Y-73986206D01*
X129192455Y-74072452D01*
X129192452Y-74072455D01*
X129106206Y-74187664D01*
X129106202Y-74187671D01*
X129055908Y-74322517D01*
X129049750Y-74379803D01*
X129049501Y-74382123D01*
X129049500Y-74382135D01*
X129049500Y-76177870D01*
X129049501Y-76177876D01*
X129055908Y-76237483D01*
X129106202Y-76372328D01*
X129106206Y-76372335D01*
X129192452Y-76487544D01*
X129192455Y-76487547D01*
X129307664Y-76573793D01*
X129307671Y-76573797D01*
X129442517Y-76624091D01*
X129442516Y-76624091D01*
X129449444Y-76624835D01*
X129502127Y-76630500D01*
X130849902Y-76630499D01*
X130916941Y-76650184D01*
X130937583Y-76666818D01*
X131339478Y-77068713D01*
X131339480Y-77068716D01*
X131411988Y-77141224D01*
X131445472Y-77202545D01*
X131440488Y-77272237D01*
X131418659Y-77301398D01*
X131398616Y-77328172D01*
X131398612Y-77328173D01*
X131363312Y-77346609D01*
X131305884Y-77365639D01*
X131305875Y-77365643D01*
X131156654Y-77457684D01*
X131032684Y-77581654D01*
X130940643Y-77730875D01*
X130940641Y-77730880D01*
X130885494Y-77897302D01*
X130885493Y-77897309D01*
X130875000Y-78000013D01*
X130875000Y-78450000D01*
X133199999Y-78450000D01*
X133199999Y-78000028D01*
X133199998Y-78000013D01*
X133188818Y-77890569D01*
X133190581Y-77890388D01*
X133195126Y-77829563D01*
X133237174Y-77773763D01*
X133302716Y-77749554D01*
X133370942Y-77764623D01*
X133398850Y-77785585D01*
X133963181Y-78349916D01*
X133996666Y-78411239D01*
X133999500Y-78437597D01*
X133999500Y-79400001D01*
X133999501Y-79400019D01*
X134010000Y-79502796D01*
X134010001Y-79502799D01*
X134065185Y-79669331D01*
X134065187Y-79669336D01*
X134100069Y-79725888D01*
X134157096Y-79818345D01*
X134157289Y-79818657D01*
X134175951Y-79837319D01*
X134209436Y-79898642D01*
X134204452Y-79968334D01*
X134175951Y-80012681D01*
X134157289Y-80031342D01*
X134065187Y-80180663D01*
X134065185Y-80180668D01*
X134065115Y-80180880D01*
X134010001Y-80347203D01*
X134010001Y-80347204D01*
X134010000Y-80347204D01*
X133999500Y-80449983D01*
X133999500Y-81850001D01*
X133999501Y-81850018D01*
X134010000Y-81952796D01*
X134010001Y-81952799D01*
X134024716Y-81997204D01*
X134065186Y-82119334D01*
X134157288Y-82268656D01*
X134281344Y-82392712D01*
X134430666Y-82484814D01*
X134597203Y-82539999D01*
X134699991Y-82550500D01*
X134849901Y-82550499D01*
X134916941Y-82570183D01*
X134937583Y-82586818D01*
X135227273Y-82876508D01*
X135260758Y-82937831D01*
X135255774Y-83007523D01*
X135213902Y-83063456D01*
X135148438Y-83087873D01*
X135096260Y-83080371D01*
X135057485Y-83065909D01*
X135057483Y-83065908D01*
X134997883Y-83059501D01*
X134997881Y-83059500D01*
X134997873Y-83059500D01*
X134997864Y-83059500D01*
X133202129Y-83059500D01*
X133202123Y-83059501D01*
X133142516Y-83065908D01*
X133007671Y-83116202D01*
X133007664Y-83116206D01*
X132892455Y-83202452D01*
X132892452Y-83202455D01*
X132806206Y-83317664D01*
X132806202Y-83317671D01*
X132755908Y-83452516D01*
X132749233Y-83514603D01*
X132722494Y-83579154D01*
X132665101Y-83619001D01*
X132595276Y-83621494D01*
X132538263Y-83589027D01*
X131710916Y-82761680D01*
X131677431Y-82700357D01*
X131682415Y-82630665D01*
X131724287Y-82574732D01*
X131785656Y-82551842D01*
X131787499Y-82549999D01*
X132287500Y-82549999D01*
X132499972Y-82549999D01*
X132499986Y-82549998D01*
X132602697Y-82539505D01*
X132769119Y-82484358D01*
X132769124Y-82484356D01*
X132918345Y-82392315D01*
X133042315Y-82268345D01*
X133134356Y-82119124D01*
X133134358Y-82119119D01*
X133189505Y-81952697D01*
X133189506Y-81952690D01*
X133199999Y-81849986D01*
X133200000Y-81849973D01*
X133200000Y-81400000D01*
X132287500Y-81400000D01*
X132287500Y-82549999D01*
X131787499Y-82549999D01*
X131787500Y-82549998D01*
X131787500Y-81400000D01*
X130875001Y-81400000D01*
X130875001Y-81626403D01*
X130855316Y-81693442D01*
X130802512Y-81739197D01*
X130733354Y-81749141D01*
X130669798Y-81720116D01*
X130663320Y-81714084D01*
X129811819Y-80862583D01*
X129778334Y-80801260D01*
X129775500Y-80774902D01*
X129775500Y-80450013D01*
X130875000Y-80450013D01*
X130875000Y-80900000D01*
X131787500Y-80900000D01*
X132287500Y-80900000D01*
X133199999Y-80900000D01*
X133199999Y-80450028D01*
X133199998Y-80450013D01*
X133189505Y-80347302D01*
X133134358Y-80180880D01*
X133134356Y-80180875D01*
X133042315Y-80031654D01*
X133023342Y-80012681D01*
X132989857Y-79951358D01*
X132994841Y-79881666D01*
X133023342Y-79837319D01*
X133042315Y-79818345D01*
X133134356Y-79669124D01*
X133134358Y-79669119D01*
X133189505Y-79502697D01*
X133189506Y-79502690D01*
X133199999Y-79399986D01*
X133200000Y-79399973D01*
X133200000Y-78950000D01*
X132287500Y-78950000D01*
X132287500Y-80900000D01*
X131787500Y-80900000D01*
X131787500Y-78950000D01*
X130875001Y-78950000D01*
X130875001Y-79399986D01*
X130885494Y-79502697D01*
X130940641Y-79669119D01*
X130940643Y-79669124D01*
X131032684Y-79818345D01*
X131051658Y-79837319D01*
X131085143Y-79898642D01*
X131080159Y-79968334D01*
X131051658Y-80012681D01*
X131032684Y-80031654D01*
X130940643Y-80180875D01*
X130940641Y-80180880D01*
X130885494Y-80347302D01*
X130885493Y-80347309D01*
X130875000Y-80450013D01*
X129775500Y-80450013D01*
X129775500Y-79968108D01*
X129773978Y-79951358D01*
X129769338Y-79900297D01*
X129730562Y-79775860D01*
X129720717Y-79744266D01*
X129683385Y-79682511D01*
X129668748Y-79658298D01*
X129650913Y-79590746D01*
X129672431Y-79524273D01*
X129709767Y-79488614D01*
X129743656Y-79467712D01*
X129867712Y-79343656D01*
X129959814Y-79194334D01*
X130014999Y-79027797D01*
X130025500Y-78925009D01*
X130025499Y-77874992D01*
X130020858Y-77829563D01*
X130014999Y-77772203D01*
X130014998Y-77772200D01*
X130001304Y-77730875D01*
X129959814Y-77605666D01*
X129867712Y-77456344D01*
X129743656Y-77332288D01*
X129594334Y-77240186D01*
X129427797Y-77185001D01*
X129427795Y-77185000D01*
X129325010Y-77174500D01*
X128549998Y-77174500D01*
X128549980Y-77174501D01*
X128447203Y-77185000D01*
X128447200Y-77185001D01*
X128280668Y-77240185D01*
X128280663Y-77240187D01*
X128131342Y-77332289D01*
X128007288Y-77456343D01*
X128007283Y-77456349D01*
X128005241Y-77459661D01*
X128003247Y-77461453D01*
X128002807Y-77462011D01*
X128002711Y-77461935D01*
X127953291Y-77506383D01*
X127884328Y-77517602D01*
X127820247Y-77489755D01*
X127794168Y-77459656D01*
X127792319Y-77456659D01*
X127792316Y-77456655D01*
X127668345Y-77332684D01*
X127519124Y-77240643D01*
X127519119Y-77240641D01*
X127352697Y-77185494D01*
X127352690Y-77185493D01*
X127249986Y-77175000D01*
X127112500Y-77175000D01*
X127112500Y-79220000D01*
X127226000Y-79220000D01*
X127293039Y-79239685D01*
X127338794Y-79292489D01*
X127350000Y-79344000D01*
X127350000Y-80426000D01*
X127330315Y-80493039D01*
X127277511Y-80538794D01*
X127226000Y-80550000D01*
X127100000Y-80550000D01*
X127100000Y-80676000D01*
X127080315Y-80743039D01*
X127027511Y-80788794D01*
X126976000Y-80800000D01*
X126025001Y-80800000D01*
X126025001Y-81131856D01*
X126031156Y-81199607D01*
X126079743Y-81355530D01*
X126164232Y-81495290D01*
X126230906Y-81561963D01*
X126264391Y-81623286D01*
X126259407Y-81692978D01*
X126230907Y-81737325D01*
X126163835Y-81804398D01*
X126163831Y-81804403D01*
X126079284Y-81944262D01*
X126079282Y-81944266D01*
X126030662Y-82100295D01*
X126024500Y-82168108D01*
X126024500Y-83331891D01*
X126030662Y-83399704D01*
X126079282Y-83555733D01*
X126079284Y-83555737D01*
X126163834Y-83695600D01*
X126168288Y-83701286D01*
X126194136Y-83766199D01*
X126180786Y-83834781D01*
X126135773Y-83883296D01*
X126056342Y-83932289D01*
X125932289Y-84056342D01*
X125840187Y-84205663D01*
X125840185Y-84205668D01*
X125814646Y-84282741D01*
X125785001Y-84372203D01*
X125785001Y-84372204D01*
X125785000Y-84372204D01*
X125774500Y-84474983D01*
X125774500Y-85525001D01*
X125774501Y-85525019D01*
X125785000Y-85627796D01*
X125785001Y-85627799D01*
X125840185Y-85794331D01*
X125840187Y-85794336D01*
X125850971Y-85811819D01*
X125932288Y-85943656D01*
X126056344Y-86067712D01*
X126205666Y-86159814D01*
X126372203Y-86214999D01*
X126474991Y-86225500D01*
X127187402Y-86225499D01*
X127254441Y-86245183D01*
X127275083Y-86261818D01*
X128327639Y-87314374D01*
X128327649Y-87314385D01*
X128331979Y-87318715D01*
X128331980Y-87318716D01*
X128443784Y-87430520D01*
X128443786Y-87430521D01*
X128443790Y-87430524D01*
X128580709Y-87509573D01*
X128580716Y-87509577D01*
X128692519Y-87539534D01*
X128733442Y-87550500D01*
X128733443Y-87550500D01*
X132814281Y-87550500D01*
X132881320Y-87570185D01*
X132924765Y-87618205D01*
X132944947Y-87657814D01*
X132944948Y-87657815D01*
X133069890Y-87829786D01*
X133220213Y-87980109D01*
X133392182Y-88105050D01*
X133400946Y-88109516D01*
X133451742Y-88157491D01*
X133468536Y-88225312D01*
X133445998Y-88291447D01*
X133400946Y-88330484D01*
X133392182Y-88334949D01*
X133220213Y-88459890D01*
X133069890Y-88610213D01*
X132944951Y-88782179D01*
X132848444Y-88971585D01*
X132782753Y-89173760D01*
X132757728Y-89331762D01*
X132749500Y-89383713D01*
X132749500Y-89596287D01*
X132782754Y-89806243D01*
X132829301Y-89949500D01*
X132848444Y-90008414D01*
X132944951Y-90197820D01*
X133069890Y-90369786D01*
X133220213Y-90520109D01*
X133392182Y-90645050D01*
X133400946Y-90649516D01*
X133451742Y-90697491D01*
X133468536Y-90765312D01*
X133445998Y-90831447D01*
X133400946Y-90870484D01*
X133392182Y-90874949D01*
X133220213Y-90999890D01*
X133069890Y-91150213D01*
X132944951Y-91322179D01*
X132848444Y-91511585D01*
X132782753Y-91713760D01*
X132749500Y-91923713D01*
X132749500Y-92136286D01*
X132782753Y-92346239D01*
X132848444Y-92548414D01*
X132944951Y-92737820D01*
X133069890Y-92909786D01*
X133220213Y-93060109D01*
X133392182Y-93185050D01*
X133400946Y-93189516D01*
X133451742Y-93237491D01*
X133468536Y-93305312D01*
X133445998Y-93371447D01*
X133400946Y-93410484D01*
X133392182Y-93414949D01*
X133220213Y-93539890D01*
X133069890Y-93690213D01*
X132944951Y-93862179D01*
X132848444Y-94051585D01*
X132782753Y-94253760D01*
X132749500Y-94463713D01*
X132749500Y-94676286D01*
X132770817Y-94810880D01*
X132782754Y-94886243D01*
X132836131Y-95050521D01*
X132848444Y-95088414D01*
X132944951Y-95277820D01*
X133069890Y-95449786D01*
X133220213Y-95600109D01*
X133392179Y-95725048D01*
X133392181Y-95725049D01*
X133392184Y-95725051D01*
X133581588Y-95821557D01*
X133783757Y-95887246D01*
X133993713Y-95920500D01*
X133993714Y-95920500D01*
X134206286Y-95920500D01*
X134206287Y-95920500D01*
X134416243Y-95887246D01*
X134618412Y-95821557D01*
X134807816Y-95725051D01*
X134894138Y-95662335D01*
X134923752Y-95640820D01*
X134979786Y-95600109D01*
X134979788Y-95600106D01*
X134979792Y-95600104D01*
X135130104Y-95449792D01*
X135130106Y-95449788D01*
X135130109Y-95449786D01*
X135239086Y-95299789D01*
X135255051Y-95277816D01*
X135351557Y-95088412D01*
X135354286Y-95080013D01*
X136400000Y-95080013D01*
X136400000Y-95292500D01*
X137550000Y-95292500D01*
X138050000Y-95292500D01*
X139258638Y-95292500D01*
X139325677Y-95312185D01*
X139326068Y-95312500D01*
X140016667Y-95312500D01*
X140516667Y-95312500D01*
X142483333Y-95312500D01*
X142483333Y-94400000D01*
X142983333Y-94400000D01*
X142983333Y-95312500D01*
X143683567Y-95312500D01*
X143715004Y-95295334D01*
X143741362Y-95292500D01*
X144950000Y-95292500D01*
X145450000Y-95292500D01*
X146599999Y-95292500D01*
X146599999Y-95080028D01*
X146599998Y-95080013D01*
X146589505Y-94977302D01*
X146534358Y-94810880D01*
X146534356Y-94810875D01*
X146442315Y-94661654D01*
X146318345Y-94537684D01*
X146169124Y-94445643D01*
X146169119Y-94445641D01*
X146002697Y-94390494D01*
X146002690Y-94390493D01*
X145899986Y-94380000D01*
X145450000Y-94380000D01*
X145450000Y-95292500D01*
X144950000Y-95292500D01*
X144950000Y-94380000D01*
X144500028Y-94380000D01*
X144500012Y-94380001D01*
X144397302Y-94390494D01*
X144230880Y-94445641D01*
X144230875Y-94445643D01*
X144081654Y-94537684D01*
X144044346Y-94574992D01*
X143983023Y-94608477D01*
X143913331Y-94603491D01*
X143868985Y-94574991D01*
X143851678Y-94557684D01*
X143702457Y-94465643D01*
X143702452Y-94465641D01*
X143536030Y-94410494D01*
X143536023Y-94410493D01*
X143433319Y-94400000D01*
X142983333Y-94400000D01*
X142483333Y-94400000D01*
X142033361Y-94400000D01*
X142033345Y-94400001D01*
X141930635Y-94410494D01*
X141764213Y-94465641D01*
X141764208Y-94465643D01*
X141614987Y-94557684D01*
X141587681Y-94584991D01*
X141526358Y-94618476D01*
X141456666Y-94613492D01*
X141412319Y-94584991D01*
X141385012Y-94557684D01*
X141235791Y-94465643D01*
X141235786Y-94465641D01*
X141069364Y-94410494D01*
X141069357Y-94410493D01*
X140966653Y-94400000D01*
X140516667Y-94400000D01*
X140516667Y-95312500D01*
X140016667Y-95312500D01*
X140016667Y-94400000D01*
X139566695Y-94400000D01*
X139566679Y-94400001D01*
X139463969Y-94410494D01*
X139297547Y-94465641D01*
X139297542Y-94465643D01*
X139148321Y-94557684D01*
X139131012Y-94574993D01*
X139069688Y-94608477D01*
X138999997Y-94603491D01*
X138955652Y-94574991D01*
X138918345Y-94537684D01*
X138769124Y-94445643D01*
X138769119Y-94445641D01*
X138602697Y-94390494D01*
X138602690Y-94390493D01*
X138499986Y-94380000D01*
X138050000Y-94380000D01*
X138050000Y-95292500D01*
X137550000Y-95292500D01*
X137550000Y-94380000D01*
X137100028Y-94380000D01*
X137100012Y-94380001D01*
X136997302Y-94390494D01*
X136830880Y-94445641D01*
X136830875Y-94445643D01*
X136681654Y-94537684D01*
X136557684Y-94661654D01*
X136465643Y-94810875D01*
X136465641Y-94810880D01*
X136410494Y-94977302D01*
X136410493Y-94977309D01*
X136400000Y-95080013D01*
X135354286Y-95080013D01*
X135417246Y-94886243D01*
X135450500Y-94676287D01*
X135450500Y-94463713D01*
X135417246Y-94253757D01*
X135403506Y-94211473D01*
X135401512Y-94141635D01*
X135433755Y-94085478D01*
X136317944Y-93201289D01*
X136379266Y-93167806D01*
X136448958Y-93172790D01*
X136504891Y-93214662D01*
X136511162Y-93223874D01*
X136557288Y-93298656D01*
X136681344Y-93422712D01*
X136830666Y-93514814D01*
X136997203Y-93569999D01*
X137099991Y-93580500D01*
X138500008Y-93580499D01*
X138602797Y-93569999D01*
X138769334Y-93514814D01*
X138918656Y-93422712D01*
X138935649Y-93405717D01*
X138996969Y-93372231D01*
X139066661Y-93377212D01*
X139111014Y-93405715D01*
X139148011Y-93442712D01*
X139297333Y-93534814D01*
X139463870Y-93589999D01*
X139566658Y-93600500D01*
X140966675Y-93600499D01*
X141069464Y-93589999D01*
X141236001Y-93534814D01*
X141385323Y-93442712D01*
X141412319Y-93415716D01*
X141473642Y-93382231D01*
X141543334Y-93387215D01*
X141587681Y-93415716D01*
X141614677Y-93442712D01*
X141763999Y-93534814D01*
X141930536Y-93589999D01*
X142033324Y-93600500D01*
X143433341Y-93600499D01*
X143536130Y-93589999D01*
X143702667Y-93534814D01*
X143851989Y-93442712D01*
X143888986Y-93405714D01*
X143950306Y-93372230D01*
X144019998Y-93377214D01*
X144064347Y-93405715D01*
X144081344Y-93422712D01*
X144230666Y-93514814D01*
X144397203Y-93569999D01*
X144499991Y-93580500D01*
X145900008Y-93580499D01*
X146002797Y-93569999D01*
X146169334Y-93514814D01*
X146310407Y-93427799D01*
X146377795Y-93409361D01*
X146444459Y-93430283D01*
X146489229Y-93483925D01*
X146499500Y-93533340D01*
X146499500Y-94013330D01*
X146499499Y-94013348D01*
X146499499Y-94179054D01*
X146499498Y-94179054D01*
X146540423Y-94331785D01*
X146544136Y-94338216D01*
X146619477Y-94468712D01*
X146619481Y-94468717D01*
X146738349Y-94587585D01*
X146738355Y-94587590D01*
X147085139Y-94934374D01*
X147085149Y-94934385D01*
X147201285Y-95050521D01*
X147231193Y-95067788D01*
X147287500Y-95100296D01*
X147335715Y-95150862D01*
X147349500Y-95207683D01*
X147349500Y-95467869D01*
X147349501Y-95467876D01*
X147355908Y-95527483D01*
X147406202Y-95662328D01*
X147406206Y-95662335D01*
X147492452Y-95777544D01*
X147492455Y-95777547D01*
X147607664Y-95863793D01*
X147607671Y-95863797D01*
X147742517Y-95914091D01*
X147742516Y-95914091D01*
X147749444Y-95914835D01*
X147802127Y-95920500D01*
X149597872Y-95920499D01*
X149657483Y-95914091D01*
X149792331Y-95863796D01*
X149907546Y-95777546D01*
X149993796Y-95662331D01*
X150044091Y-95527483D01*
X150050500Y-95467873D01*
X150050499Y-93672128D01*
X150044091Y-93612517D01*
X150039608Y-93600498D01*
X149993797Y-93477671D01*
X149993793Y-93477664D01*
X149907547Y-93362455D01*
X149907544Y-93362452D01*
X149792335Y-93276206D01*
X149792328Y-93276202D01*
X149660917Y-93227189D01*
X149604983Y-93185318D01*
X149580566Y-93119853D01*
X149595418Y-93051580D01*
X149616563Y-93023332D01*
X149730104Y-92909792D01*
X149855051Y-92737816D01*
X149951557Y-92548412D01*
X150017246Y-92346243D01*
X150050500Y-92136287D01*
X150050500Y-91923713D01*
X150017246Y-91713757D01*
X149951557Y-91511588D01*
X149855051Y-91322184D01*
X149855049Y-91322181D01*
X149855048Y-91322179D01*
X149730109Y-91150213D01*
X149579786Y-90999890D01*
X149407820Y-90874951D01*
X149407115Y-90874591D01*
X149399054Y-90870485D01*
X149348259Y-90822512D01*
X149331463Y-90754692D01*
X149353999Y-90688556D01*
X149399054Y-90649515D01*
X149407816Y-90645051D01*
X149429789Y-90629086D01*
X149579786Y-90520109D01*
X149579788Y-90520106D01*
X149579792Y-90520104D01*
X149730104Y-90369792D01*
X149730106Y-90369788D01*
X149730109Y-90369786D01*
X149855048Y-90197820D01*
X149855047Y-90197820D01*
X149855051Y-90197816D01*
X149951557Y-90008412D01*
X150017246Y-89806243D01*
X150050500Y-89596287D01*
X150050500Y-89383713D01*
X150017246Y-89173757D01*
X149993870Y-89101816D01*
X149991876Y-89031977D01*
X150027956Y-88972144D01*
X150090657Y-88941316D01*
X150111802Y-88939500D01*
X150974331Y-88939500D01*
X150974347Y-88939501D01*
X150981943Y-88939501D01*
X151140054Y-88939501D01*
X151140057Y-88939501D01*
X151292785Y-88898577D01*
X151342904Y-88869639D01*
X151429716Y-88819520D01*
X151541520Y-88707716D01*
X151541520Y-88707714D01*
X151551728Y-88697507D01*
X151551730Y-88697504D01*
X152406201Y-87843032D01*
X152467522Y-87809549D01*
X152537214Y-87814533D01*
X152558976Y-87825176D01*
X152655659Y-87884810D01*
X152655660Y-87884810D01*
X152655666Y-87884814D01*
X152822203Y-87939999D01*
X152924991Y-87950500D01*
X154275008Y-87950499D01*
X154377797Y-87939999D01*
X154544334Y-87884814D01*
X154693656Y-87792712D01*
X154817712Y-87668656D01*
X154909814Y-87519334D01*
X154964999Y-87352797D01*
X154975500Y-87250009D01*
X154975499Y-86899010D01*
X154995183Y-86831974D01*
X155047987Y-86786219D01*
X155117146Y-86776275D01*
X155164596Y-86793475D01*
X155230869Y-86834353D01*
X155230880Y-86834358D01*
X155397302Y-86889505D01*
X155397309Y-86889506D01*
X155500019Y-86899999D01*
X156349999Y-86899999D01*
X156350000Y-86899998D01*
X156350000Y-85900000D01*
X154837730Y-85900000D01*
X154770691Y-85880315D01*
X154750049Y-85863681D01*
X154693657Y-85807289D01*
X154693656Y-85807288D01*
X154588637Y-85742512D01*
X154544336Y-85715187D01*
X154544331Y-85715185D01*
X154507601Y-85703014D01*
X154377797Y-85660001D01*
X154377795Y-85660000D01*
X154275010Y-85649500D01*
X152924998Y-85649500D01*
X152924981Y-85649501D01*
X152822203Y-85660000D01*
X152822200Y-85660001D01*
X152655668Y-85715185D01*
X152655663Y-85715187D01*
X152506342Y-85807289D01*
X152382289Y-85931342D01*
X152290187Y-86080663D01*
X152290185Y-86080668D01*
X152235001Y-86247201D01*
X152235000Y-86247207D01*
X152231682Y-86279682D01*
X152205284Y-86344373D01*
X152196005Y-86354757D01*
X150848584Y-87702181D01*
X150787261Y-87735666D01*
X150760903Y-87738500D01*
X150016290Y-87738500D01*
X149949251Y-87718815D01*
X149903496Y-87666011D01*
X149893552Y-87596853D01*
X149905805Y-87558205D01*
X149909731Y-87550500D01*
X149951557Y-87468412D01*
X150017246Y-87266243D01*
X150050500Y-87056287D01*
X150050500Y-86843713D01*
X150017246Y-86633757D01*
X149951557Y-86431588D01*
X149855051Y-86242184D01*
X149855049Y-86242181D01*
X149855048Y-86242179D01*
X149730109Y-86070213D01*
X149579786Y-85919890D01*
X149407820Y-85794951D01*
X149406187Y-85794119D01*
X149399054Y-85790485D01*
X149348259Y-85742512D01*
X149331463Y-85674692D01*
X149353999Y-85608556D01*
X149399054Y-85569515D01*
X149407816Y-85565051D01*
X149462931Y-85525008D01*
X149579786Y-85440109D01*
X149579788Y-85440106D01*
X149579792Y-85440104D01*
X149730104Y-85289792D01*
X149730106Y-85289788D01*
X149730109Y-85289786D01*
X149855048Y-85117820D01*
X149855047Y-85117820D01*
X149855051Y-85117816D01*
X149951557Y-84928412D01*
X150017246Y-84726243D01*
X150050500Y-84516287D01*
X150050500Y-84303713D01*
X150017246Y-84093757D01*
X149951557Y-83891588D01*
X149855051Y-83702184D01*
X149855049Y-83702181D01*
X149855048Y-83702179D01*
X149730109Y-83530213D01*
X149579786Y-83379890D01*
X149407820Y-83254951D01*
X149218414Y-83158444D01*
X149218413Y-83158443D01*
X149218412Y-83158443D01*
X149016243Y-83092754D01*
X149016241Y-83092753D01*
X149016240Y-83092753D01*
X148854957Y-83067208D01*
X148806287Y-83059500D01*
X148593713Y-83059500D01*
X148545042Y-83067208D01*
X148383760Y-83092753D01*
X148181585Y-83158444D01*
X147992179Y-83254951D01*
X147820213Y-83379890D01*
X147669890Y-83530213D01*
X147544951Y-83702179D01*
X147448444Y-83891585D01*
X147382753Y-84093760D01*
X147349500Y-84303713D01*
X147349500Y-84450500D01*
X147329815Y-84517539D01*
X147277011Y-84563294D01*
X147225500Y-84574500D01*
X146674097Y-84574500D01*
X146607058Y-84554815D01*
X146561303Y-84502011D01*
X146551359Y-84432853D01*
X146580384Y-84369297D01*
X146586406Y-84362827D01*
X146908509Y-84040724D01*
X146908514Y-84040721D01*
X146918714Y-84030520D01*
X146918716Y-84030520D01*
X147030520Y-83918716D01*
X147084915Y-83824500D01*
X147109577Y-83781785D01*
X147150500Y-83629058D01*
X147150500Y-83470943D01*
X147150500Y-79354499D01*
X147170185Y-79287460D01*
X147222989Y-79241705D01*
X147274500Y-79230499D01*
X148597871Y-79230499D01*
X148597872Y-79230499D01*
X148657483Y-79224091D01*
X148792331Y-79173796D01*
X148907546Y-79087546D01*
X148993796Y-78972331D01*
X149044091Y-78837483D01*
X149050500Y-78777873D01*
X149050500Y-78604500D01*
X149070185Y-78537461D01*
X149122989Y-78491706D01*
X149174500Y-78480500D01*
X151940500Y-78480500D01*
X152007539Y-78500185D01*
X152053294Y-78552989D01*
X152064500Y-78604500D01*
X152064500Y-79574463D01*
X152096398Y-79775860D01*
X152096399Y-79775864D01*
X152159413Y-79969799D01*
X152251989Y-80151490D01*
X152371848Y-80316462D01*
X152516038Y-80460652D01*
X152681010Y-80580511D01*
X152862701Y-80673087D01*
X153056636Y-80736101D01*
X153132163Y-80748063D01*
X153258037Y-80768000D01*
X153258042Y-80768000D01*
X153461963Y-80768000D01*
X153573850Y-80750278D01*
X153663364Y-80736101D01*
X153857299Y-80673087D01*
X154038990Y-80580511D01*
X154203962Y-80460652D01*
X154348152Y-80316462D01*
X154468011Y-80151490D01*
X154560587Y-79969799D01*
X154623601Y-79775864D01*
X154640473Y-79669336D01*
X154655500Y-79574463D01*
X154655500Y-77088036D01*
X154629284Y-76922516D01*
X154623601Y-76886636D01*
X154560587Y-76692701D01*
X154468011Y-76511010D01*
X154348152Y-76346038D01*
X154203962Y-76201848D01*
X154038990Y-76081989D01*
X153857299Y-75989413D01*
X153663364Y-75926399D01*
X153663362Y-75926398D01*
X153663360Y-75926398D01*
X153461963Y-75894500D01*
X153461958Y-75894500D01*
X153258042Y-75894500D01*
X153258037Y-75894500D01*
X153056639Y-75926398D01*
X152862698Y-75989414D01*
X152681009Y-76081989D01*
X152516035Y-76201850D01*
X152371850Y-76346035D01*
X152251989Y-76511009D01*
X152159414Y-76692698D01*
X152096398Y-76886639D01*
X152064500Y-77088036D01*
X152064500Y-77155500D01*
X152044815Y-77222539D01*
X151992011Y-77268294D01*
X151940500Y-77279500D01*
X149174499Y-77279500D01*
X149107460Y-77259815D01*
X149061705Y-77207011D01*
X149050499Y-77155500D01*
X149050499Y-76982129D01*
X149050498Y-76982123D01*
X149044091Y-76922516D01*
X148993797Y-76787671D01*
X148993793Y-76787664D01*
X148907547Y-76672455D01*
X148907544Y-76672452D01*
X148792335Y-76586206D01*
X148792328Y-76586202D01*
X148660917Y-76537189D01*
X148604983Y-76495318D01*
X148580566Y-76429853D01*
X148595418Y-76361580D01*
X148616563Y-76333332D01*
X148730104Y-76219792D01*
X148760561Y-76177872D01*
X148830223Y-76081989D01*
X148855051Y-76047816D01*
X148951557Y-75858412D01*
X149017246Y-75656243D01*
X149050500Y-75446287D01*
X149050500Y-75233713D01*
X149017246Y-75023757D01*
X148951557Y-74821588D01*
X148855051Y-74632184D01*
X148855049Y-74632181D01*
X148855048Y-74632179D01*
X148730109Y-74460213D01*
X148579786Y-74309890D01*
X148407820Y-74184951D01*
X148407115Y-74184591D01*
X148399054Y-74180485D01*
X148348259Y-74132512D01*
X148331463Y-74064692D01*
X148353999Y-73998556D01*
X148399054Y-73959515D01*
X148407816Y-73955051D01*
X148490032Y-73895318D01*
X148579786Y-73830109D01*
X148579788Y-73830106D01*
X148579792Y-73830104D01*
X148730104Y-73679792D01*
X148730106Y-73679788D01*
X148730109Y-73679786D01*
X148855048Y-73507820D01*
X148855047Y-73507820D01*
X148855051Y-73507816D01*
X148951557Y-73318412D01*
X149017246Y-73116243D01*
X149050500Y-72906287D01*
X149050500Y-72693713D01*
X149017246Y-72483757D01*
X148951557Y-72281588D01*
X148855051Y-72092184D01*
X148855049Y-72092181D01*
X148855048Y-72092179D01*
X148730109Y-71920213D01*
X148579786Y-71769890D01*
X148407820Y-71644951D01*
X148406391Y-71644223D01*
X148399054Y-71640485D01*
X148348259Y-71592512D01*
X148331463Y-71524692D01*
X148353999Y-71458556D01*
X148399054Y-71419515D01*
X148407816Y-71415051D01*
X148484645Y-71359232D01*
X148579786Y-71290109D01*
X148579788Y-71290106D01*
X148579792Y-71290104D01*
X148730104Y-71139792D01*
X148730106Y-71139788D01*
X148730109Y-71139786D01*
X148855048Y-70967820D01*
X148855047Y-70967820D01*
X148855051Y-70967816D01*
X148951557Y-70778412D01*
X149017246Y-70576243D01*
X149050500Y-70366287D01*
X149050500Y-70153713D01*
X149017246Y-69943757D01*
X148951557Y-69741588D01*
X148855051Y-69552184D01*
X148855049Y-69552181D01*
X148855048Y-69552179D01*
X148730109Y-69380213D01*
X148579786Y-69229890D01*
X148407817Y-69104949D01*
X148398504Y-69100204D01*
X148347707Y-69052230D01*
X148330912Y-68984409D01*
X148353449Y-68918274D01*
X148398507Y-68879232D01*
X148407555Y-68874622D01*
X148461716Y-68835270D01*
X148461717Y-68835270D01*
X147829408Y-68202962D01*
X147892993Y-68185925D01*
X148007007Y-68120099D01*
X148100099Y-68027007D01*
X148165925Y-67912993D01*
X148182962Y-67849409D01*
X148815270Y-68481717D01*
X148815270Y-68481716D01*
X148854622Y-68427554D01*
X148951095Y-68238217D01*
X149016757Y-68036130D01*
X149016757Y-68036127D01*
X149050000Y-67826246D01*
X149050000Y-67613753D01*
X149016757Y-67403872D01*
X149016757Y-67403869D01*
X148951095Y-67201782D01*
X148854624Y-67012449D01*
X148815270Y-66958282D01*
X148815269Y-66958282D01*
X148182962Y-67590590D01*
X148165925Y-67527007D01*
X148100099Y-67412993D01*
X148007007Y-67319901D01*
X147892993Y-67254075D01*
X147829409Y-67237037D01*
X148472502Y-66593942D01*
X148478404Y-66565851D01*
X148527456Y-66516094D01*
X148587657Y-66500500D01*
X152463152Y-66500500D01*
X152530191Y-66520185D01*
X152575946Y-66572989D01*
X152585890Y-66642147D01*
X152556865Y-66705703D01*
X152536037Y-66724818D01*
X152516041Y-66739345D01*
X152516035Y-66739350D01*
X152371850Y-66883535D01*
X152251989Y-67048509D01*
X152159414Y-67230198D01*
X152096398Y-67424139D01*
X152064500Y-67625536D01*
X152064500Y-70111963D01*
X152095278Y-70306286D01*
X152096399Y-70313364D01*
X152159413Y-70507299D01*
X152251989Y-70688990D01*
X152371848Y-70853962D01*
X152516038Y-70998152D01*
X152681010Y-71118011D01*
X152862701Y-71210587D01*
X153056636Y-71273601D01*
X153132163Y-71285563D01*
X153258037Y-71305500D01*
X153258042Y-71305500D01*
X153461963Y-71305500D01*
X153573850Y-71287778D01*
X153663364Y-71273601D01*
X153857299Y-71210587D01*
X154038990Y-71118011D01*
X154203962Y-70998152D01*
X154348152Y-70853962D01*
X154468011Y-70688990D01*
X154560587Y-70507299D01*
X154623601Y-70313364D01*
X154647684Y-70161309D01*
X154655500Y-70111963D01*
X154655500Y-70111917D01*
X156065000Y-70111917D01*
X156096888Y-70313247D01*
X156096888Y-70313250D01*
X156159875Y-70507104D01*
X156159877Y-70507107D01*
X156252417Y-70688728D01*
X156372232Y-70853637D01*
X156372232Y-70853638D01*
X156516361Y-70997767D01*
X156681271Y-71117582D01*
X156862892Y-71210122D01*
X156862895Y-71210124D01*
X157056751Y-71273111D01*
X157110000Y-71281545D01*
X157110000Y-69118750D01*
X156065000Y-69118750D01*
X156065000Y-70111917D01*
X154655500Y-70111917D01*
X154655500Y-67625536D01*
X154627096Y-67446206D01*
X154623601Y-67424136D01*
X154560587Y-67230201D01*
X154468011Y-67048510D01*
X154348152Y-66883538D01*
X154203962Y-66739348D01*
X154183962Y-66724817D01*
X154141297Y-66669489D01*
X154135318Y-66599875D01*
X154167923Y-66538080D01*
X154228762Y-66503723D01*
X154256848Y-66500500D01*
X156464003Y-66500500D01*
X156531042Y-66520185D01*
X156576797Y-66572989D01*
X156586741Y-66642147D01*
X156557716Y-66705703D01*
X156536889Y-66724817D01*
X156516370Y-66739725D01*
X156516361Y-66739732D01*
X156372232Y-66883861D01*
X156372232Y-66883862D01*
X156252417Y-67048771D01*
X156159877Y-67230392D01*
X156159875Y-67230395D01*
X156096888Y-67424249D01*
X156096888Y-67424252D01*
X156065000Y-67625582D01*
X156065000Y-68618750D01*
X157236000Y-68618750D01*
X157303039Y-68638435D01*
X157348794Y-68691239D01*
X157360000Y-68742750D01*
X157360000Y-68868750D01*
X157486000Y-68868750D01*
X157553039Y-68888435D01*
X157598794Y-68941239D01*
X157610000Y-68992750D01*
X157610000Y-71281544D01*
X157663246Y-71273111D01*
X157663249Y-71273111D01*
X157857104Y-71210124D01*
X157857107Y-71210122D01*
X158038728Y-71117582D01*
X158202614Y-70998511D01*
X158268420Y-70975031D01*
X158336474Y-70990856D01*
X158385169Y-71040961D01*
X158399500Y-71098829D01*
X158399500Y-76095551D01*
X158379815Y-76162590D01*
X158327011Y-76208345D01*
X158257853Y-76218289D01*
X158202615Y-76195869D01*
X158038993Y-76076991D01*
X158038992Y-76076990D01*
X158038990Y-76076989D01*
X157857299Y-75984413D01*
X157663364Y-75921399D01*
X157663362Y-75921398D01*
X157663360Y-75921398D01*
X157461963Y-75889500D01*
X157461958Y-75889500D01*
X157258042Y-75889500D01*
X157258037Y-75889500D01*
X157056639Y-75921398D01*
X156862698Y-75984414D01*
X156681009Y-76076989D01*
X156516035Y-76196850D01*
X156371850Y-76341035D01*
X156251989Y-76506009D01*
X156159414Y-76687698D01*
X156159413Y-76687700D01*
X156159413Y-76687701D01*
X156147224Y-76725213D01*
X156096398Y-76881639D01*
X156064500Y-77083036D01*
X156064500Y-79574463D01*
X156096398Y-79775860D01*
X156096399Y-79775864D01*
X156159413Y-79969799D01*
X156251989Y-80151490D01*
X156371848Y-80316462D01*
X156516038Y-80460652D01*
X156681010Y-80580511D01*
X156862701Y-80673087D01*
X157056636Y-80736101D01*
X157132163Y-80748063D01*
X157258037Y-80768000D01*
X157258042Y-80768000D01*
X157461963Y-80768000D01*
X157573850Y-80750278D01*
X157663364Y-80736101D01*
X157857299Y-80673087D01*
X158038990Y-80580511D01*
X158202617Y-80461628D01*
X158268420Y-80438150D01*
X158336474Y-80453975D01*
X158385169Y-80504081D01*
X158399500Y-80561948D01*
X158399500Y-81538770D01*
X158379815Y-81605809D01*
X158327011Y-81651564D01*
X158257853Y-81661508D01*
X158194297Y-81632483D01*
X158187819Y-81626451D01*
X158118657Y-81557289D01*
X158118656Y-81557288D01*
X157969334Y-81465186D01*
X157802797Y-81410001D01*
X157802795Y-81410000D01*
X157700010Y-81399500D01*
X155499998Y-81399500D01*
X155499981Y-81399501D01*
X155397203Y-81410000D01*
X155397200Y-81410001D01*
X155230668Y-81465185D01*
X155230663Y-81465187D01*
X155081342Y-81557289D01*
X154957289Y-81681342D01*
X154865187Y-81830663D01*
X154865185Y-81830668D01*
X154858776Y-81850009D01*
X154810001Y-81997203D01*
X154810001Y-81997204D01*
X154810000Y-81997204D01*
X154799500Y-82099983D01*
X154799500Y-82550398D01*
X154779815Y-82617437D01*
X154727011Y-82663192D01*
X154657853Y-82673136D01*
X154610404Y-82655937D01*
X154544340Y-82615190D01*
X154544334Y-82615186D01*
X154377797Y-82560001D01*
X154377795Y-82560000D01*
X154275010Y-82549500D01*
X152924998Y-82549500D01*
X152924981Y-82549501D01*
X152822203Y-82560000D01*
X152822200Y-82560001D01*
X152655668Y-82615185D01*
X152655663Y-82615187D01*
X152506342Y-82707289D01*
X152382289Y-82831342D01*
X152290187Y-82980663D01*
X152290186Y-82980666D01*
X152235001Y-83147203D01*
X152235001Y-83147204D01*
X152235000Y-83147204D01*
X152224500Y-83249983D01*
X152224500Y-84150001D01*
X152224501Y-84150019D01*
X152235000Y-84252796D01*
X152235001Y-84252799D01*
X152290185Y-84419331D01*
X152290187Y-84419336D01*
X152309409Y-84450500D01*
X152382288Y-84568656D01*
X152506344Y-84692712D01*
X152655666Y-84784814D01*
X152822203Y-84839999D01*
X152924991Y-84850500D01*
X154275008Y-84850499D01*
X154377797Y-84839999D01*
X154544334Y-84784814D01*
X154677406Y-84702734D01*
X154744798Y-84684295D01*
X154811461Y-84705218D01*
X154856231Y-84758860D01*
X154864892Y-84828190D01*
X154860208Y-84847278D01*
X154810494Y-84997302D01*
X154810493Y-84997309D01*
X154800000Y-85100013D01*
X154800000Y-85400000D01*
X156350000Y-85400000D01*
X156350000Y-84400000D01*
X155500028Y-84400000D01*
X155500007Y-84400002D01*
X155453552Y-84404747D01*
X155425307Y-84399495D01*
X155396660Y-84397209D01*
X155391380Y-84393188D01*
X155384859Y-84391976D01*
X155363934Y-84372286D01*
X155341074Y-84354876D01*
X155338806Y-84348640D01*
X155333976Y-84344095D01*
X155327017Y-84316216D01*
X155317199Y-84289212D01*
X155318662Y-84282741D01*
X155317056Y-84276305D01*
X155326275Y-84249087D01*
X155332615Y-84221065D01*
X155337804Y-84215053D01*
X155339473Y-84210129D01*
X155353999Y-84192986D01*
X155363769Y-84183376D01*
X155368716Y-84180520D01*
X155480520Y-84068716D01*
X155480521Y-84068713D01*
X155612418Y-83936815D01*
X155673739Y-83903333D01*
X155700097Y-83900499D01*
X157700002Y-83900499D01*
X157700008Y-83900499D01*
X157802797Y-83889999D01*
X157969334Y-83834814D01*
X158118656Y-83742712D01*
X158187819Y-83673549D01*
X158249142Y-83640064D01*
X158318834Y-83645048D01*
X158374767Y-83686920D01*
X158399184Y-83752384D01*
X158399500Y-83761230D01*
X158399500Y-84539477D01*
X158379815Y-84606516D01*
X158327011Y-84652271D01*
X158257853Y-84662215D01*
X158194297Y-84633190D01*
X158187819Y-84627158D01*
X158118345Y-84557684D01*
X157969124Y-84465643D01*
X157969119Y-84465641D01*
X157802697Y-84410494D01*
X157802690Y-84410493D01*
X157699986Y-84400000D01*
X156850000Y-84400000D01*
X156850000Y-86899999D01*
X157699972Y-86899999D01*
X157699986Y-86899998D01*
X157802697Y-86889505D01*
X157969119Y-86834358D01*
X157969124Y-86834356D01*
X158118345Y-86742315D01*
X158187819Y-86672842D01*
X158249142Y-86639357D01*
X158318834Y-86644341D01*
X158374767Y-86686213D01*
X158399184Y-86751677D01*
X158399500Y-86760523D01*
X158399500Y-98075500D01*
X158379815Y-98142539D01*
X158327011Y-98188294D01*
X158275500Y-98199500D01*
X121024500Y-98199500D01*
X120957461Y-98179815D01*
X120911706Y-98127011D01*
X120900500Y-98075500D01*
X120900500Y-96004986D01*
X136400001Y-96004986D01*
X136410494Y-96107697D01*
X136465641Y-96274119D01*
X136465643Y-96274124D01*
X136557684Y-96423345D01*
X136681654Y-96547315D01*
X136830875Y-96639356D01*
X136830880Y-96639358D01*
X136997302Y-96694505D01*
X136997309Y-96694506D01*
X137100019Y-96704999D01*
X137549999Y-96704999D01*
X138050000Y-96704999D01*
X138499972Y-96704999D01*
X138499986Y-96704998D01*
X138602697Y-96694505D01*
X138769119Y-96639358D01*
X138769124Y-96639356D01*
X138918346Y-96547314D01*
X138935648Y-96530012D01*
X138996969Y-96496524D01*
X139066661Y-96501505D01*
X139111014Y-96530008D01*
X139148321Y-96567315D01*
X139297542Y-96659356D01*
X139297547Y-96659358D01*
X139463969Y-96714505D01*
X139463976Y-96714506D01*
X139566686Y-96724999D01*
X140016666Y-96724999D01*
X140516667Y-96724999D01*
X140966639Y-96724999D01*
X140966653Y-96724998D01*
X141069364Y-96714505D01*
X141235786Y-96659358D01*
X141235791Y-96659356D01*
X141385012Y-96567315D01*
X141412319Y-96540009D01*
X141473642Y-96506524D01*
X141543334Y-96511508D01*
X141587681Y-96540009D01*
X141614987Y-96567315D01*
X141764208Y-96659356D01*
X141764213Y-96659358D01*
X141930635Y-96714505D01*
X141930642Y-96714506D01*
X142033352Y-96724999D01*
X142483332Y-96724999D01*
X142483333Y-96724998D01*
X142483333Y-95812500D01*
X142983333Y-95812500D01*
X142983333Y-96724999D01*
X143433305Y-96724999D01*
X143433319Y-96724998D01*
X143536030Y-96714505D01*
X143702452Y-96659358D01*
X143702457Y-96659356D01*
X143851677Y-96567315D01*
X143888984Y-96530009D01*
X143950306Y-96496523D01*
X144019998Y-96501507D01*
X144064347Y-96530008D01*
X144081654Y-96547315D01*
X144230875Y-96639356D01*
X144230880Y-96639358D01*
X144397302Y-96694505D01*
X144397309Y-96694506D01*
X144500019Y-96704999D01*
X144949999Y-96704999D01*
X145450000Y-96704999D01*
X145899972Y-96704999D01*
X145899986Y-96704998D01*
X146002697Y-96694505D01*
X146169119Y-96639358D01*
X146169124Y-96639356D01*
X146318345Y-96547315D01*
X146442315Y-96423345D01*
X146534356Y-96274124D01*
X146534358Y-96274119D01*
X146589505Y-96107697D01*
X146589506Y-96107690D01*
X146599999Y-96004986D01*
X146600000Y-96004973D01*
X146600000Y-95792500D01*
X145450000Y-95792500D01*
X145450000Y-96704999D01*
X144949999Y-96704999D01*
X144950000Y-96704998D01*
X144950000Y-95792500D01*
X144249766Y-95792500D01*
X144218329Y-95809666D01*
X144191971Y-95812500D01*
X142983333Y-95812500D01*
X142483333Y-95812500D01*
X140516667Y-95812500D01*
X140516667Y-96724999D01*
X140016666Y-96724999D01*
X140016667Y-96724998D01*
X140016667Y-95812500D01*
X138808029Y-95812500D01*
X138740990Y-95792815D01*
X138740599Y-95792500D01*
X138050000Y-95792500D01*
X138050000Y-96704999D01*
X137549999Y-96704999D01*
X137550000Y-96704998D01*
X137550000Y-95792500D01*
X136400001Y-95792500D01*
X136400001Y-96004986D01*
X120900500Y-96004986D01*
X120900500Y-78924986D01*
X125775001Y-78924986D01*
X125785494Y-79027697D01*
X125840641Y-79194119D01*
X125840643Y-79194124D01*
X125932684Y-79343345D01*
X126056654Y-79467315D01*
X126090914Y-79488447D01*
X126137638Y-79540395D01*
X126148861Y-79609358D01*
X126131934Y-79658136D01*
X126079743Y-79744470D01*
X126031158Y-79900389D01*
X126025000Y-79968153D01*
X126025000Y-80300000D01*
X126850000Y-80300000D01*
X126850000Y-79755000D01*
X126736500Y-79755000D01*
X126669461Y-79735315D01*
X126623706Y-79682511D01*
X126612500Y-79631000D01*
X126612500Y-78650000D01*
X125775001Y-78650000D01*
X125775001Y-78924986D01*
X120900500Y-78924986D01*
X120900500Y-77875013D01*
X125775000Y-77875013D01*
X125775000Y-78150000D01*
X126612500Y-78150000D01*
X126612500Y-77175000D01*
X126475027Y-77175000D01*
X126475012Y-77175001D01*
X126372302Y-77185494D01*
X126205880Y-77240641D01*
X126205875Y-77240643D01*
X126056654Y-77332684D01*
X125932684Y-77456654D01*
X125840643Y-77605875D01*
X125840641Y-77605880D01*
X125785494Y-77772302D01*
X125785493Y-77772309D01*
X125775000Y-77875013D01*
X120900500Y-77875013D01*
X120900500Y-77489770D01*
X120920185Y-77422731D01*
X120972989Y-77376976D01*
X121042147Y-77367032D01*
X121048682Y-77368151D01*
X121093047Y-77376976D01*
X121211306Y-77400500D01*
X121211309Y-77400500D01*
X121388693Y-77400500D01*
X121388694Y-77400499D01*
X121446682Y-77388964D01*
X121562658Y-77365896D01*
X121562661Y-77365894D01*
X121562666Y-77365894D01*
X121726547Y-77298013D01*
X121874035Y-77199464D01*
X121999464Y-77074035D01*
X122098013Y-76926547D01*
X122165894Y-76762666D01*
X122169394Y-76745073D01*
X122194383Y-76619441D01*
X122200500Y-76588691D01*
X122200500Y-76411309D01*
X122180235Y-76309432D01*
X122186462Y-76239844D01*
X122214168Y-76197565D01*
X123524917Y-74886819D01*
X123551844Y-74872115D01*
X123577663Y-74855523D01*
X123583863Y-74854631D01*
X123586240Y-74853334D01*
X123612598Y-74850500D01*
X123817209Y-74850500D01*
X123884248Y-74870185D01*
X123930003Y-74922989D01*
X123933391Y-74931167D01*
X123956202Y-74992328D01*
X123956206Y-74992335D01*
X124042452Y-75107544D01*
X124042455Y-75107547D01*
X124157664Y-75193793D01*
X124157671Y-75193797D01*
X124292517Y-75244091D01*
X124292516Y-75244091D01*
X124299444Y-75244835D01*
X124352127Y-75250500D01*
X127147872Y-75250499D01*
X127207483Y-75244091D01*
X127342331Y-75193796D01*
X127457546Y-75107546D01*
X127543796Y-74992331D01*
X127594091Y-74857483D01*
X127600500Y-74797873D01*
X127600499Y-73702128D01*
X127594091Y-73642517D01*
X127585612Y-73619784D01*
X127543797Y-73507671D01*
X127543793Y-73507664D01*
X127457547Y-73392456D01*
X127457548Y-73392456D01*
X127457546Y-73392454D01*
X127399854Y-73349265D01*
X127357984Y-73293333D01*
X127353000Y-73223641D01*
X127386485Y-73162318D01*
X127399854Y-73150734D01*
X127457546Y-73107546D01*
X127543796Y-72992331D01*
X127594091Y-72857483D01*
X127600500Y-72797873D01*
X127600499Y-72600096D01*
X127620183Y-72533057D01*
X127636813Y-72512420D01*
X127814661Y-72334572D01*
X127875983Y-72301089D01*
X127878150Y-72300638D01*
X127936085Y-72289113D01*
X128033497Y-72269737D01*
X128163576Y-72215857D01*
X128179172Y-72209397D01*
X128179172Y-72209396D01*
X128179179Y-72209394D01*
X128310289Y-72121789D01*
X128421789Y-72010289D01*
X128509394Y-71879179D01*
X128569737Y-71733497D01*
X128600500Y-71578842D01*
X128600500Y-71421158D01*
X128600500Y-71421155D01*
X128600499Y-71421153D01*
X128594203Y-71389500D01*
X128569737Y-71266503D01*
X128546384Y-71210124D01*
X128509397Y-71120827D01*
X128509390Y-71120814D01*
X128421789Y-70989711D01*
X128421786Y-70989707D01*
X128310292Y-70878213D01*
X128310288Y-70878210D01*
X128179185Y-70790609D01*
X128179172Y-70790602D01*
X128033501Y-70730264D01*
X128033489Y-70730261D01*
X127878845Y-70699500D01*
X127878842Y-70699500D01*
X127724499Y-70699500D01*
X127657460Y-70679815D01*
X127611705Y-70627011D01*
X127600499Y-70575500D01*
X127600499Y-69702129D01*
X127600498Y-69702123D01*
X127600497Y-69702116D01*
X127594091Y-69642517D01*
X127590361Y-69632517D01*
X127543797Y-69507671D01*
X127543793Y-69507664D01*
X127457547Y-69392455D01*
X127457544Y-69392452D01*
X127342335Y-69306206D01*
X127342328Y-69306202D01*
X127207482Y-69255908D01*
X127207483Y-69255908D01*
X127147883Y-69249501D01*
X127147881Y-69249500D01*
X127147873Y-69249500D01*
X127147865Y-69249500D01*
X125412597Y-69249500D01*
X125345558Y-69229815D01*
X125324916Y-69213181D01*
X125297550Y-69185815D01*
X125264065Y-69124492D01*
X125269049Y-69054800D01*
X125310921Y-68998867D01*
X125376385Y-68974450D01*
X125397849Y-68974778D01*
X125400019Y-68974999D01*
X125599999Y-68974999D01*
X126100000Y-68974999D01*
X126299972Y-68974999D01*
X126299986Y-68974998D01*
X126402697Y-68964505D01*
X126569119Y-68909358D01*
X126569124Y-68909356D01*
X126718345Y-68817315D01*
X126842315Y-68693345D01*
X126861086Y-68662914D01*
X126934356Y-68544124D01*
X126934358Y-68544119D01*
X126989505Y-68377697D01*
X126989506Y-68377690D01*
X126999999Y-68274986D01*
X127000000Y-68274973D01*
X127000000Y-67850000D01*
X126100000Y-67850000D01*
X126100000Y-68974999D01*
X125599999Y-68974999D01*
X125600000Y-68974998D01*
X125600000Y-67850000D01*
X124700001Y-67850000D01*
X124700001Y-68274971D01*
X124700002Y-68274994D01*
X124700225Y-68277178D01*
X124700137Y-68277649D01*
X124700162Y-68278134D01*
X124700046Y-68278139D01*
X124687449Y-68345870D01*
X124639564Y-68396750D01*
X124571773Y-68413664D01*
X124505598Y-68391243D01*
X124489185Y-68377450D01*
X123936818Y-67825083D01*
X123922114Y-67798155D01*
X123905522Y-67772337D01*
X123904630Y-67766136D01*
X123903333Y-67763760D01*
X123900499Y-67737402D01*
X123900499Y-66924998D01*
X123900498Y-66924981D01*
X123889999Y-66822203D01*
X123889998Y-66822200D01*
X123862544Y-66739350D01*
X123837410Y-66663503D01*
X123835009Y-66593676D01*
X123870741Y-66533634D01*
X123933261Y-66502441D01*
X123955117Y-66500500D01*
X124645409Y-66500500D01*
X124712448Y-66520185D01*
G37*
%TD.AperFunction*%
%TA.AperFunction,Conductor*%
G36*
X137084186Y-85778050D02*
G01*
X137093148Y-85776762D01*
X137117188Y-85787740D01*
X137142540Y-85795185D01*
X137148467Y-85802025D01*
X137156704Y-85805787D01*
X137170993Y-85828021D01*
X137188295Y-85847989D01*
X137190582Y-85858503D01*
X137194478Y-85864565D01*
X137199501Y-85899500D01*
X137199501Y-85964363D01*
X137214953Y-86081753D01*
X137214957Y-86081765D01*
X137223566Y-86102550D01*
X137231033Y-86172019D01*
X137223566Y-86197450D01*
X137214957Y-86218234D01*
X137214955Y-86218239D01*
X137199500Y-86335638D01*
X137199500Y-86400500D01*
X137179815Y-86467539D01*
X137127011Y-86513294D01*
X137075500Y-86524500D01*
X136544057Y-86524500D01*
X136385943Y-86524500D01*
X136233215Y-86565423D01*
X136233214Y-86565423D01*
X136233212Y-86565424D01*
X136233209Y-86565425D01*
X136183096Y-86594359D01*
X136183095Y-86594360D01*
X136148452Y-86614361D01*
X136096285Y-86644479D01*
X136096282Y-86644481D01*
X135662181Y-87078583D01*
X135600858Y-87112068D01*
X135531166Y-87107084D01*
X135475233Y-87065212D01*
X135450816Y-86999748D01*
X135450500Y-86990902D01*
X135450500Y-86843713D01*
X135449018Y-86834356D01*
X135417246Y-86633757D01*
X135403506Y-86591473D01*
X135401512Y-86521635D01*
X135433755Y-86465478D01*
X136087416Y-85811819D01*
X136148739Y-85778334D01*
X136175097Y-85775500D01*
X137075501Y-85775500D01*
X137084186Y-85778050D01*
G37*
%TD.AperFunction*%
%TA.AperFunction,Conductor*%
G36*
X147341942Y-86445185D02*
G01*
X147362584Y-86461819D01*
X147366241Y-86465476D01*
X147399726Y-86526799D01*
X147396492Y-86591473D01*
X147382753Y-86633757D01*
X147349500Y-86843713D01*
X147349500Y-86975500D01*
X147329815Y-87042539D01*
X147277011Y-87088294D01*
X147225500Y-87099500D01*
X145523598Y-87099500D01*
X145492542Y-87090381D01*
X145461110Y-87082604D01*
X145459210Y-87080593D01*
X145456559Y-87079815D01*
X145435368Y-87055359D01*
X145413125Y-87031818D01*
X145412267Y-87028699D01*
X145410804Y-87027011D01*
X145401733Y-86998413D01*
X145368859Y-86823567D01*
X145371108Y-86801092D01*
X145368694Y-86778637D01*
X145375765Y-86754554D01*
X145375817Y-86754044D01*
X145375973Y-86753846D01*
X145376164Y-86753199D01*
X145385044Y-86731762D01*
X145400500Y-86614361D01*
X145400500Y-86549500D01*
X145420185Y-86482461D01*
X145472989Y-86436706D01*
X145524500Y-86425500D01*
X147274903Y-86425500D01*
X147341942Y-86445185D01*
G37*
%TD.AperFunction*%
%TA.AperFunction,Conductor*%
G36*
X129766442Y-82519685D02*
G01*
X129787082Y-82536317D01*
X132141284Y-84890520D01*
X132141286Y-84890521D01*
X132141290Y-84890524D01*
X132278209Y-84969573D01*
X132278216Y-84969577D01*
X132430943Y-85010501D01*
X132430945Y-85010501D01*
X132596654Y-85010501D01*
X132596670Y-85010500D01*
X132625501Y-85010500D01*
X132692540Y-85030185D01*
X132738295Y-85082989D01*
X132749501Y-85134500D01*
X132749501Y-85307876D01*
X132755908Y-85367483D01*
X132806202Y-85502328D01*
X132806206Y-85502335D01*
X132892452Y-85617544D01*
X132892455Y-85617547D01*
X133007664Y-85703793D01*
X133007671Y-85703797D01*
X133139082Y-85752810D01*
X133195016Y-85794681D01*
X133219433Y-85860145D01*
X133204582Y-85928418D01*
X133183431Y-85956673D01*
X133069889Y-86070215D01*
X132944948Y-86242184D01*
X132944947Y-86242185D01*
X132924765Y-86281795D01*
X132876791Y-86332591D01*
X132814281Y-86349500D01*
X129723091Y-86349500D01*
X129656052Y-86329815D01*
X129610297Y-86277011D01*
X129600353Y-86207853D01*
X129629378Y-86144297D01*
X129657994Y-86119961D01*
X129743345Y-86067315D01*
X129867315Y-85943345D01*
X129959356Y-85794124D01*
X129959358Y-85794119D01*
X130014505Y-85627697D01*
X130014506Y-85627690D01*
X130024999Y-85524986D01*
X130025000Y-85524973D01*
X130025000Y-85250000D01*
X129061500Y-85250000D01*
X128994461Y-85230315D01*
X128948706Y-85177511D01*
X128937500Y-85126000D01*
X128937500Y-85000000D01*
X128811500Y-85000000D01*
X128744461Y-84980315D01*
X128698706Y-84927511D01*
X128687500Y-84876000D01*
X128687500Y-84080000D01*
X128574000Y-84080000D01*
X128506961Y-84060315D01*
X128461206Y-84007511D01*
X128450000Y-83956000D01*
X128450000Y-83645000D01*
X128950000Y-83645000D01*
X129063500Y-83645000D01*
X129130539Y-83664685D01*
X129176294Y-83717489D01*
X129187500Y-83769000D01*
X129187500Y-84750000D01*
X130024999Y-84750000D01*
X130024999Y-84475028D01*
X130024998Y-84475013D01*
X130014505Y-84372302D01*
X129959358Y-84205880D01*
X129959356Y-84205875D01*
X129867315Y-84056654D01*
X129743344Y-83932683D01*
X129743340Y-83932680D01*
X129663455Y-83883406D01*
X129616730Y-83831458D01*
X129605509Y-83762496D01*
X129631887Y-83701783D01*
X129631140Y-83701198D01*
X129635766Y-83695292D01*
X129720256Y-83555529D01*
X129768841Y-83399610D01*
X129775000Y-83331846D01*
X129775000Y-83000000D01*
X128950000Y-83000000D01*
X128950000Y-83645000D01*
X128450000Y-83645000D01*
X128450000Y-82874000D01*
X128469685Y-82806961D01*
X128522489Y-82761206D01*
X128574000Y-82750000D01*
X128700000Y-82750000D01*
X128700000Y-82624000D01*
X128719685Y-82556961D01*
X128772489Y-82511206D01*
X128824000Y-82500000D01*
X129699403Y-82500000D01*
X129766442Y-82519685D01*
G37*
%TD.AperFunction*%
%TA.AperFunction,Conductor*%
G36*
X140743232Y-82492331D02*
G01*
X140744417Y-82492184D01*
X140774915Y-82506800D01*
X140805703Y-82520861D01*
X140806700Y-82522034D01*
X140807424Y-82522381D01*
X140830039Y-82549478D01*
X140845615Y-82574732D01*
X140857288Y-82593656D01*
X140981344Y-82717712D01*
X141130666Y-82809814D01*
X141214505Y-82837595D01*
X141271948Y-82877366D01*
X141298772Y-82941882D01*
X141299500Y-82955300D01*
X141299500Y-85600500D01*
X141279815Y-85667539D01*
X141227011Y-85713294D01*
X141175500Y-85724500D01*
X140663088Y-85724500D01*
X140596049Y-85704815D01*
X140550294Y-85652011D01*
X140540350Y-85582853D01*
X140555700Y-85538502D01*
X140559574Y-85531790D01*
X140559573Y-85531790D01*
X140559577Y-85531785D01*
X140600500Y-85379057D01*
X140600500Y-85220943D01*
X140600500Y-82614574D01*
X140600836Y-82613429D01*
X140600521Y-82612278D01*
X140610658Y-82579978D01*
X140620185Y-82547535D01*
X140621086Y-82546754D01*
X140621444Y-82545614D01*
X140647450Y-82523909D01*
X140672989Y-82501780D01*
X140674168Y-82501610D01*
X140675086Y-82500845D01*
X140708667Y-82496649D01*
X140742147Y-82491836D01*
X140743232Y-82492331D01*
G37*
%TD.AperFunction*%
%TA.AperFunction,Conductor*%
G36*
X145218834Y-77532915D02*
G01*
X145274767Y-77574787D01*
X145299184Y-77640251D01*
X145299500Y-77649097D01*
X145299500Y-82899902D01*
X145279815Y-82966941D01*
X145263181Y-82987583D01*
X145088920Y-83161844D01*
X145027597Y-83195329D01*
X144964934Y-83190847D01*
X144964610Y-83192059D01*
X144958325Y-83190375D01*
X144957905Y-83190345D01*
X144957247Y-83190086D01*
X144956762Y-83189956D01*
X144839370Y-83174501D01*
X144839367Y-83174500D01*
X144839361Y-83174500D01*
X144839354Y-83174500D01*
X143485636Y-83174500D01*
X143368246Y-83189953D01*
X143368237Y-83189956D01*
X143222160Y-83250463D01*
X143096718Y-83346718D01*
X143000463Y-83472160D01*
X142939956Y-83618237D01*
X142939955Y-83618239D01*
X142924500Y-83735638D01*
X142924500Y-84014363D01*
X142939953Y-84131753D01*
X142939957Y-84131765D01*
X142948566Y-84152550D01*
X142956033Y-84222019D01*
X142948566Y-84247450D01*
X142939957Y-84268234D01*
X142939955Y-84268239D01*
X142924500Y-84385638D01*
X142924500Y-84664363D01*
X142939953Y-84781753D01*
X142939957Y-84781765D01*
X142948566Y-84802550D01*
X142956033Y-84872019D01*
X142948566Y-84897450D01*
X142939957Y-84918234D01*
X142939955Y-84918239D01*
X142924500Y-85035638D01*
X142924500Y-85314363D01*
X142939953Y-85431753D01*
X142939957Y-85431765D01*
X142948566Y-85452550D01*
X142956033Y-85522019D01*
X142954783Y-85528080D01*
X142952471Y-85538023D01*
X142939956Y-85568238D01*
X142932787Y-85622690D01*
X142931418Y-85628580D01*
X142917095Y-85653945D01*
X142905312Y-85680582D01*
X142900121Y-85684005D01*
X142897064Y-85689420D01*
X142871303Y-85703014D01*
X142846987Y-85719053D01*
X142838499Y-85720324D01*
X142835270Y-85722029D01*
X142830093Y-85721584D01*
X142810639Y-85724500D01*
X142624500Y-85724500D01*
X142557461Y-85704815D01*
X142511706Y-85652011D01*
X142500500Y-85600500D01*
X142500500Y-82920908D01*
X142520185Y-82853869D01*
X142564271Y-82815363D01*
X142563187Y-82813605D01*
X142569332Y-82809814D01*
X142569334Y-82809814D01*
X142718656Y-82717712D01*
X142842712Y-82593656D01*
X142934814Y-82444334D01*
X142989999Y-82277797D01*
X143000500Y-82175009D01*
X143000499Y-80824992D01*
X142989999Y-80722203D01*
X142934814Y-80555666D01*
X142842712Y-80406344D01*
X142718656Y-80282288D01*
X142718655Y-80282287D01*
X142634598Y-80230441D01*
X142587873Y-80178493D01*
X142576650Y-80109531D01*
X142604493Y-80045448D01*
X142612002Y-80037232D01*
X145087819Y-77561416D01*
X145149142Y-77527931D01*
X145218834Y-77532915D01*
G37*
%TD.AperFunction*%
%TA.AperFunction,Conductor*%
G36*
X136453813Y-80553275D02*
G01*
X136467146Y-80551359D01*
X136487289Y-80560558D01*
X136508926Y-80565265D01*
X136526651Y-80578533D01*
X136530702Y-80580384D01*
X136537180Y-80586416D01*
X136631284Y-80680520D01*
X136631286Y-80680521D01*
X136631290Y-80680524D01*
X136727554Y-80736101D01*
X136768216Y-80759577D01*
X136920943Y-80800501D01*
X136920945Y-80800501D01*
X137086654Y-80800501D01*
X137086670Y-80800500D01*
X137475500Y-80800500D01*
X137542539Y-80820185D01*
X137588294Y-80872989D01*
X137599500Y-80924500D01*
X137599500Y-82175001D01*
X137599501Y-82175018D01*
X137610000Y-82277796D01*
X137610001Y-82277799D01*
X137648079Y-82392710D01*
X137665186Y-82444334D01*
X137757288Y-82593656D01*
X137881344Y-82717712D01*
X138030666Y-82809814D01*
X138197203Y-82864999D01*
X138299991Y-82875500D01*
X139200008Y-82875499D01*
X139262899Y-82869074D01*
X139277971Y-82871876D01*
X139293147Y-82869694D01*
X139311622Y-82878131D01*
X139331590Y-82881843D01*
X139342756Y-82892349D01*
X139356703Y-82898719D01*
X139367683Y-82915804D01*
X139382475Y-82929723D01*
X139386751Y-82945476D01*
X139394477Y-82957497D01*
X139399500Y-82992432D01*
X139399500Y-83073856D01*
X139379815Y-83140895D01*
X139327011Y-83186650D01*
X139257853Y-83196594D01*
X139239729Y-83191623D01*
X139239613Y-83192060D01*
X139231760Y-83189955D01*
X139114370Y-83174501D01*
X139114367Y-83174500D01*
X139114361Y-83174500D01*
X139114354Y-83174500D01*
X137760636Y-83174500D01*
X137643246Y-83189953D01*
X137643234Y-83189957D01*
X137497163Y-83250461D01*
X137490124Y-83254526D01*
X137489117Y-83252783D01*
X137477912Y-83257115D01*
X137458678Y-83269477D01*
X137438405Y-83272391D01*
X137434068Y-83274069D01*
X137423743Y-83274500D01*
X137375097Y-83274500D01*
X137308058Y-83254815D01*
X137287416Y-83238181D01*
X136291186Y-82241951D01*
X136257701Y-82180628D01*
X136261160Y-82115269D01*
X136314999Y-81952797D01*
X136325500Y-81850009D01*
X136325499Y-80674096D01*
X136331737Y-80652851D01*
X136333317Y-80630763D01*
X136341389Y-80619979D01*
X136345184Y-80607058D01*
X136361917Y-80592557D01*
X136375189Y-80574830D01*
X136387808Y-80570123D01*
X136397987Y-80561303D01*
X136419905Y-80558151D01*
X136440653Y-80550413D01*
X136453813Y-80553275D01*
G37*
%TD.AperFunction*%
%TA.AperFunction,Conductor*%
G36*
X146879381Y-66520185D02*
G01*
X146925136Y-66572989D01*
X146929127Y-66595573D01*
X147570591Y-67237037D01*
X147507007Y-67254075D01*
X147392993Y-67319901D01*
X147299901Y-67412993D01*
X147234075Y-67527007D01*
X147217037Y-67590591D01*
X146584728Y-66958282D01*
X146584727Y-66958282D01*
X146545380Y-67012439D01*
X146448904Y-67201782D01*
X146383242Y-67403869D01*
X146383242Y-67403872D01*
X146350000Y-67613753D01*
X146350000Y-67826246D01*
X146383242Y-68036127D01*
X146383242Y-68036130D01*
X146448904Y-68238217D01*
X146545375Y-68427550D01*
X146584728Y-68481716D01*
X147217037Y-67849408D01*
X147234075Y-67912993D01*
X147299901Y-68027007D01*
X147392993Y-68120099D01*
X147507007Y-68185925D01*
X147570590Y-68202962D01*
X146938282Y-68835269D01*
X146938282Y-68835270D01*
X146992452Y-68874626D01*
X146992451Y-68874626D01*
X147001495Y-68879234D01*
X147052292Y-68927208D01*
X147069087Y-68995029D01*
X147046550Y-69061164D01*
X147001499Y-69100202D01*
X146992182Y-69104949D01*
X146820213Y-69229890D01*
X146669890Y-69380213D01*
X146544951Y-69552179D01*
X146448444Y-69741585D01*
X146382753Y-69943760D01*
X146354681Y-70121000D01*
X146349500Y-70153713D01*
X146349500Y-70366287D01*
X146360383Y-70435000D01*
X146382754Y-70576244D01*
X146382754Y-70576247D01*
X146396491Y-70618523D01*
X146398486Y-70688364D01*
X146366241Y-70744522D01*
X145936681Y-71174083D01*
X145875358Y-71207568D01*
X145805667Y-71202584D01*
X145749733Y-71160713D01*
X145725316Y-71095248D01*
X145725000Y-71086402D01*
X145725000Y-70915000D01*
X144475000Y-70915000D01*
X144475000Y-71915000D01*
X145175499Y-71915000D01*
X145184184Y-71917550D01*
X145193145Y-71916262D01*
X145217186Y-71927240D01*
X145242538Y-71934685D01*
X145248464Y-71941524D01*
X145256701Y-71945286D01*
X145270991Y-71967521D01*
X145288293Y-71987489D01*
X145290580Y-71998001D01*
X145294476Y-72004064D01*
X145299498Y-72038997D01*
X145299499Y-72038999D01*
X145299499Y-72139057D01*
X145299499Y-72139059D01*
X145299500Y-72149053D01*
X145299500Y-74382152D01*
X145279815Y-74449191D01*
X145227011Y-74494946D01*
X145199692Y-74503769D01*
X145066508Y-74530261D01*
X145066498Y-74530264D01*
X144920827Y-74590602D01*
X144920814Y-74590609D01*
X144789711Y-74678210D01*
X144789707Y-74678213D01*
X144678213Y-74789707D01*
X144678210Y-74789711D01*
X144590609Y-74920814D01*
X144590602Y-74920827D01*
X144530264Y-75066498D01*
X144530261Y-75066510D01*
X144499500Y-75221153D01*
X144499500Y-75378846D01*
X144530261Y-75533489D01*
X144530264Y-75533501D01*
X144590602Y-75679172D01*
X144590609Y-75679185D01*
X144678602Y-75810874D01*
X144699480Y-75877551D01*
X144699500Y-75879765D01*
X144699500Y-76199903D01*
X144679815Y-76266942D01*
X144663181Y-76287584D01*
X144212181Y-76738584D01*
X144150858Y-76772069D01*
X144081166Y-76767085D01*
X144025233Y-76725213D01*
X144000816Y-76659749D01*
X144000500Y-76650903D01*
X144000500Y-75038732D01*
X144020185Y-74971693D01*
X144072989Y-74925938D01*
X144085495Y-74921026D01*
X144119334Y-74909814D01*
X144268656Y-74817712D01*
X144392712Y-74693656D01*
X144484814Y-74544334D01*
X144539999Y-74377797D01*
X144550500Y-74275009D01*
X144550499Y-72924992D01*
X144539999Y-72822203D01*
X144484814Y-72655666D01*
X144392712Y-72506344D01*
X144268656Y-72382288D01*
X144137011Y-72301089D01*
X144119336Y-72290187D01*
X144119331Y-72290185D01*
X144093378Y-72281585D01*
X143952797Y-72235001D01*
X143952795Y-72235000D01*
X143850016Y-72224500D01*
X143850009Y-72224500D01*
X143825099Y-72224500D01*
X143795666Y-72215857D01*
X143765677Y-72209335D01*
X143760657Y-72205577D01*
X143758060Y-72204815D01*
X143737422Y-72188185D01*
X143725900Y-72176664D01*
X143718716Y-72169480D01*
X143718713Y-72169478D01*
X143581319Y-72032084D01*
X143547834Y-71970761D01*
X143545000Y-71944403D01*
X143545000Y-71094618D01*
X143595446Y-71145064D01*
X143669555Y-71187851D01*
X143752213Y-71210000D01*
X143837787Y-71210000D01*
X143920445Y-71187851D01*
X143994554Y-71145064D01*
X144055064Y-71084554D01*
X144097851Y-71010445D01*
X144120000Y-70927787D01*
X144120000Y-70442213D01*
X144112708Y-70415000D01*
X144475000Y-70415000D01*
X145725000Y-70415000D01*
X145725000Y-69863851D01*
X145725694Y-69863851D01*
X145730827Y-69830281D01*
X145729314Y-69829924D01*
X145731098Y-69822372D01*
X145737499Y-69762844D01*
X145737500Y-69762827D01*
X145737500Y-69615000D01*
X144475000Y-69615000D01*
X144475000Y-70415000D01*
X144112708Y-70415000D01*
X144097851Y-70359555D01*
X144055064Y-70285446D01*
X143994554Y-70224936D01*
X143920445Y-70182149D01*
X143865074Y-70167312D01*
X143855000Y-70121000D01*
X143855000Y-68179975D01*
X143890095Y-68215070D01*
X143969905Y-68261148D01*
X144058922Y-68285000D01*
X144151078Y-68285000D01*
X144240095Y-68261148D01*
X144319905Y-68215070D01*
X144355000Y-68179975D01*
X144355000Y-68385000D01*
X144451000Y-68385000D01*
X144518039Y-68404685D01*
X144563794Y-68457489D01*
X144575000Y-68509000D01*
X144575000Y-69115000D01*
X145737500Y-69115000D01*
X145737500Y-68967172D01*
X145737499Y-68967155D01*
X145731098Y-68907627D01*
X145731096Y-68907620D01*
X145680854Y-68772913D01*
X145680850Y-68772906D01*
X145594690Y-68657812D01*
X145594687Y-68657809D01*
X145479593Y-68571649D01*
X145479586Y-68571645D01*
X145360667Y-68527291D01*
X145304733Y-68485419D01*
X145280316Y-68419955D01*
X145280000Y-68411109D01*
X145280000Y-67935000D01*
X144455000Y-67935000D01*
X144455000Y-67435000D01*
X145280000Y-67435000D01*
X145280000Y-67417526D01*
X145251066Y-67234852D01*
X145193916Y-67058959D01*
X145193915Y-67058956D01*
X145109947Y-66894162D01*
X145001245Y-66744545D01*
X145001241Y-66744540D01*
X144968882Y-66712181D01*
X144935397Y-66650858D01*
X144940381Y-66581166D01*
X144982253Y-66525233D01*
X145047717Y-66500816D01*
X145056563Y-66500500D01*
X146812342Y-66500500D01*
X146879381Y-66520185D01*
G37*
%TD.AperFunction*%
%TA.AperFunction,Conductor*%
G36*
X132619702Y-66520185D02*
G01*
X132665457Y-66572989D01*
X132675401Y-66642147D01*
X132668845Y-66667833D01*
X132655908Y-66702517D01*
X132651390Y-66744545D01*
X132649501Y-66762123D01*
X132649500Y-66762135D01*
X132649500Y-68557870D01*
X132649501Y-68557876D01*
X132655908Y-68617483D01*
X132706202Y-68752328D01*
X132706206Y-68752335D01*
X132792452Y-68867544D01*
X132792455Y-68867547D01*
X132907664Y-68953793D01*
X132907671Y-68953797D01*
X133039082Y-69002810D01*
X133095016Y-69044681D01*
X133119433Y-69110145D01*
X133104582Y-69178418D01*
X133083431Y-69206673D01*
X132969889Y-69320215D01*
X132844951Y-69492179D01*
X132748444Y-69681585D01*
X132682753Y-69883760D01*
X132673250Y-69943760D01*
X132649500Y-70093713D01*
X132649500Y-70306287D01*
X132650603Y-70313250D01*
X132682735Y-70516127D01*
X132682754Y-70516243D01*
X132739468Y-70690791D01*
X132748444Y-70718414D01*
X132844951Y-70907820D01*
X132969890Y-71079786D01*
X133120213Y-71230109D01*
X133292182Y-71355050D01*
X133300946Y-71359516D01*
X133351742Y-71407491D01*
X133368536Y-71475312D01*
X133345998Y-71541447D01*
X133300946Y-71580484D01*
X133292182Y-71584949D01*
X133120213Y-71709890D01*
X132969890Y-71860213D01*
X132844951Y-72032179D01*
X132748444Y-72221585D01*
X132682753Y-72423760D01*
X132649500Y-72633713D01*
X132649500Y-72846286D01*
X132682753Y-73056239D01*
X132682753Y-73056241D01*
X132682754Y-73056243D01*
X132745709Y-73249999D01*
X132748444Y-73258414D01*
X132844951Y-73447820D01*
X132969890Y-73619786D01*
X133120213Y-73770109D01*
X133292182Y-73895050D01*
X133300946Y-73899516D01*
X133351742Y-73947491D01*
X133368536Y-74015312D01*
X133345998Y-74081447D01*
X133300946Y-74120484D01*
X133292182Y-74124949D01*
X133120213Y-74249890D01*
X132969890Y-74400213D01*
X132844951Y-74572179D01*
X132748444Y-74761585D01*
X132682753Y-74963760D01*
X132649500Y-75173713D01*
X132649500Y-75386286D01*
X132682753Y-75596239D01*
X132682753Y-75596241D01*
X132682754Y-75596243D01*
X132742871Y-75781264D01*
X132748444Y-75798414D01*
X132809990Y-75919205D01*
X132822886Y-75987874D01*
X132796610Y-76052615D01*
X132739503Y-76092872D01*
X132699505Y-76099500D01*
X132120097Y-76099500D01*
X132053058Y-76079815D01*
X132032416Y-76063181D01*
X131786818Y-75817583D01*
X131753333Y-75756260D01*
X131750499Y-75729902D01*
X131750499Y-74382129D01*
X131750498Y-74382123D01*
X131750497Y-74382116D01*
X131744091Y-74322517D01*
X131739381Y-74309890D01*
X131693797Y-74187671D01*
X131693793Y-74187664D01*
X131607547Y-74072455D01*
X131607544Y-74072452D01*
X131492335Y-73986206D01*
X131492328Y-73986202D01*
X131360917Y-73937189D01*
X131304983Y-73895318D01*
X131280566Y-73829853D01*
X131295418Y-73761580D01*
X131316563Y-73733332D01*
X131430104Y-73619792D01*
X131555051Y-73447816D01*
X131651557Y-73258412D01*
X131717246Y-73056243D01*
X131750500Y-72846287D01*
X131750500Y-72633713D01*
X131717246Y-72423757D01*
X131651557Y-72221588D01*
X131555051Y-72032184D01*
X131555049Y-72032181D01*
X131555048Y-72032179D01*
X131430109Y-71860213D01*
X131279786Y-71709890D01*
X131107817Y-71584949D01*
X131098504Y-71580204D01*
X131047707Y-71532230D01*
X131030912Y-71464409D01*
X131053449Y-71398274D01*
X131098507Y-71359232D01*
X131107555Y-71354622D01*
X131161716Y-71315270D01*
X131161717Y-71315270D01*
X130529408Y-70682962D01*
X130592993Y-70665925D01*
X130707007Y-70600099D01*
X130800099Y-70507007D01*
X130865925Y-70392993D01*
X130882962Y-70329408D01*
X131515270Y-70961717D01*
X131515270Y-70961716D01*
X131554622Y-70907554D01*
X131651095Y-70718217D01*
X131716757Y-70516130D01*
X131716757Y-70516127D01*
X131750000Y-70306246D01*
X131750000Y-70093753D01*
X131716757Y-69883872D01*
X131716757Y-69883869D01*
X131651095Y-69681782D01*
X131554624Y-69492449D01*
X131515270Y-69438282D01*
X131515269Y-69438282D01*
X130882962Y-70070590D01*
X130865925Y-70007007D01*
X130800099Y-69892993D01*
X130707007Y-69799901D01*
X130592993Y-69734075D01*
X130529409Y-69717037D01*
X131161716Y-69084728D01*
X131107550Y-69045375D01*
X131097954Y-69040486D01*
X131047157Y-68992512D01*
X131030361Y-68924692D01*
X131052897Y-68858556D01*
X131097954Y-68819514D01*
X131107554Y-68814622D01*
X131161716Y-68775270D01*
X131161717Y-68775270D01*
X130529408Y-68142962D01*
X130592993Y-68125925D01*
X130707007Y-68060099D01*
X130800099Y-67967007D01*
X130865925Y-67852993D01*
X130882962Y-67789408D01*
X131515270Y-68421717D01*
X131515270Y-68421716D01*
X131554622Y-68367554D01*
X131651095Y-68178217D01*
X131716757Y-67976130D01*
X131716757Y-67976127D01*
X131750000Y-67766246D01*
X131750000Y-67553753D01*
X131716757Y-67343872D01*
X131716757Y-67343869D01*
X131651095Y-67141782D01*
X131554624Y-66952449D01*
X131515270Y-66898282D01*
X131515269Y-66898282D01*
X130882962Y-67530590D01*
X130865925Y-67467007D01*
X130800099Y-67352993D01*
X130707007Y-67259901D01*
X130592993Y-67194075D01*
X130529409Y-67177037D01*
X131169626Y-66536819D01*
X131230949Y-66503334D01*
X131257307Y-66500500D01*
X132552663Y-66500500D01*
X132619702Y-66520185D01*
G37*
%TD.AperFunction*%
%TA.AperFunction,Conductor*%
G36*
X138072284Y-74646097D02*
G01*
X138103423Y-74648324D01*
X138106626Y-74650721D01*
X138110593Y-74651256D01*
X138134369Y-74671489D01*
X138159357Y-74690195D01*
X138161632Y-74694691D01*
X138163803Y-74696538D01*
X138178751Y-74728511D01*
X138180265Y-74733503D01*
X138240602Y-74879172D01*
X138240609Y-74879185D01*
X138328210Y-75010288D01*
X138328213Y-75010292D01*
X138439706Y-75121785D01*
X138439709Y-75121787D01*
X138439711Y-75121789D01*
X138494391Y-75158325D01*
X138539195Y-75211935D01*
X138549500Y-75261426D01*
X138549500Y-75725500D01*
X138529815Y-75792539D01*
X138477011Y-75838294D01*
X138425500Y-75849500D01*
X137924500Y-75849500D01*
X137857461Y-75829815D01*
X137811706Y-75777011D01*
X137800500Y-75725500D01*
X137800500Y-74900097D01*
X137820185Y-74833058D01*
X137836813Y-74812421D01*
X137972412Y-74676822D01*
X137975921Y-74674906D01*
X137978054Y-74671522D01*
X138006325Y-74658304D01*
X138033731Y-74643340D01*
X138037723Y-74643625D01*
X138041348Y-74641931D01*
X138072284Y-74646097D01*
G37*
%TD.AperFunction*%
%TA.AperFunction,Conductor*%
G36*
X121611922Y-66520185D02*
G01*
X121657677Y-66572989D01*
X121667621Y-66642147D01*
X121662589Y-66663501D01*
X121637456Y-66739350D01*
X121610001Y-66822203D01*
X121610000Y-66822204D01*
X121599500Y-66924983D01*
X121599500Y-68275001D01*
X121599501Y-68275018D01*
X121610000Y-68377796D01*
X121610001Y-68377799D01*
X121657320Y-68520596D01*
X121665186Y-68544334D01*
X121757288Y-68693656D01*
X121881344Y-68817712D01*
X122030666Y-68909814D01*
X122197203Y-68964999D01*
X122299991Y-68975500D01*
X123200008Y-68975499D01*
X123200016Y-68975498D01*
X123200019Y-68975498D01*
X123309533Y-68964311D01*
X123309769Y-68966622D01*
X123368645Y-68971010D01*
X123412646Y-68999381D01*
X123890273Y-69477008D01*
X123923758Y-69538331D01*
X123918774Y-69608021D01*
X123905909Y-69642514D01*
X123905908Y-69642516D01*
X123899501Y-69702116D01*
X123899501Y-69702123D01*
X123899500Y-69702135D01*
X123899500Y-70797870D01*
X123899501Y-70797876D01*
X123905908Y-70857483D01*
X123956202Y-70992328D01*
X123956206Y-70992335D01*
X124042452Y-71107544D01*
X124042453Y-71107544D01*
X124042454Y-71107546D01*
X124056623Y-71118153D01*
X124100145Y-71150734D01*
X124142015Y-71206668D01*
X124146999Y-71276360D01*
X124113513Y-71337683D01*
X124100145Y-71349266D01*
X124042452Y-71392455D01*
X123956206Y-71507664D01*
X123956202Y-71507671D01*
X123905908Y-71642517D01*
X123899501Y-71702116D01*
X123899500Y-71702135D01*
X123899500Y-72797870D01*
X123899501Y-72797876D01*
X123905908Y-72857483D01*
X123956202Y-72992328D01*
X123956206Y-72992335D01*
X124042452Y-73107544D01*
X124042453Y-73107544D01*
X124042454Y-73107546D01*
X124054072Y-73116243D01*
X124100145Y-73150734D01*
X124142015Y-73206668D01*
X124146999Y-73276360D01*
X124113513Y-73337683D01*
X124100145Y-73349266D01*
X124042452Y-73392455D01*
X123956206Y-73507664D01*
X123956202Y-73507671D01*
X123933391Y-73568833D01*
X123891520Y-73624767D01*
X123826056Y-73649184D01*
X123817209Y-73649500D01*
X123399170Y-73649500D01*
X123399154Y-73649499D01*
X123391558Y-73649499D01*
X123233443Y-73649499D01*
X123157079Y-73669961D01*
X123080714Y-73690423D01*
X123080709Y-73690426D01*
X122943790Y-73769475D01*
X122943782Y-73769481D01*
X121116141Y-75597122D01*
X121099547Y-75606182D01*
X121085943Y-75619312D01*
X121056430Y-75629726D01*
X121054818Y-75630607D01*
X121052660Y-75631057D01*
X121048700Y-75631845D01*
X120979108Y-75625622D01*
X120923928Y-75582763D01*
X120900678Y-75516875D01*
X120900500Y-75510229D01*
X120900500Y-71239770D01*
X120920185Y-71172731D01*
X120972989Y-71126976D01*
X121042147Y-71117032D01*
X121048682Y-71118151D01*
X121093047Y-71126976D01*
X121211306Y-71150500D01*
X121211309Y-71150500D01*
X121388693Y-71150500D01*
X121388694Y-71150499D01*
X121446682Y-71138964D01*
X121562658Y-71115896D01*
X121562661Y-71115894D01*
X121562666Y-71115894D01*
X121726547Y-71048013D01*
X121874035Y-70949464D01*
X121999464Y-70824035D01*
X122098013Y-70676547D01*
X122165894Y-70512666D01*
X122166962Y-70507301D01*
X122200499Y-70338695D01*
X122200500Y-70338693D01*
X122200500Y-70161306D01*
X122200499Y-70161304D01*
X122165896Y-69987341D01*
X122165893Y-69987332D01*
X122098016Y-69823459D01*
X122098009Y-69823446D01*
X121999464Y-69675965D01*
X121999461Y-69675961D01*
X121874038Y-69550538D01*
X121874034Y-69550535D01*
X121726553Y-69451990D01*
X121726540Y-69451983D01*
X121562667Y-69384106D01*
X121562658Y-69384103D01*
X121388694Y-69349500D01*
X121388691Y-69349500D01*
X121211309Y-69349500D01*
X121211304Y-69349500D01*
X121048691Y-69381846D01*
X120979100Y-69375619D01*
X120923922Y-69332756D01*
X120900678Y-69266866D01*
X120900500Y-69260229D01*
X120900500Y-66624500D01*
X120920185Y-66557461D01*
X120972989Y-66511706D01*
X121024500Y-66500500D01*
X121544883Y-66500500D01*
X121611922Y-66520185D01*
G37*
%TD.AperFunction*%
%TA.AperFunction,Conductor*%
G36*
X137714682Y-66506738D02*
G01*
X137736771Y-66508318D01*
X137747554Y-66516390D01*
X137760476Y-66520185D01*
X137774975Y-66536918D01*
X137792704Y-66550190D01*
X137797411Y-66562810D01*
X137806231Y-66572989D01*
X137809382Y-66594906D01*
X137817121Y-66615654D01*
X137814258Y-66628814D01*
X137816175Y-66642147D01*
X137806975Y-66662290D01*
X137802269Y-66683927D01*
X137789000Y-66701652D01*
X137787150Y-66705703D01*
X137781118Y-66712181D01*
X137748758Y-66744540D01*
X137748754Y-66744545D01*
X137640052Y-66894162D01*
X137556084Y-67058956D01*
X137556083Y-67058959D01*
X137498933Y-67234852D01*
X137470000Y-67417526D01*
X137470000Y-67435000D01*
X138295000Y-67435000D01*
X138295000Y-67935000D01*
X137450000Y-67935000D01*
X137450000Y-68400869D01*
X137430315Y-68467908D01*
X137377511Y-68513663D01*
X137357283Y-68520596D01*
X137220413Y-68571645D01*
X137220406Y-68571649D01*
X137105312Y-68657809D01*
X137105309Y-68657812D01*
X137019149Y-68772906D01*
X137019145Y-68772913D01*
X136968903Y-68907620D01*
X136968901Y-68907627D01*
X136962500Y-68967155D01*
X136962500Y-69115000D01*
X138375000Y-69115000D01*
X138375000Y-68739000D01*
X138394685Y-68671961D01*
X138447489Y-68626206D01*
X138499000Y-68615000D01*
X138751000Y-68615000D01*
X138818039Y-68634685D01*
X138863794Y-68687489D01*
X138875000Y-68739000D01*
X138875000Y-70121000D01*
X138859392Y-70174153D01*
X138829555Y-70182149D01*
X138755446Y-70224936D01*
X138735382Y-70245000D01*
X138725000Y-70245000D01*
X138725000Y-70255382D01*
X138694936Y-70285446D01*
X138652149Y-70359555D01*
X138630000Y-70442213D01*
X138630000Y-70927787D01*
X138652149Y-71010445D01*
X138694936Y-71084554D01*
X138755446Y-71145064D01*
X138829555Y-71187851D01*
X138912213Y-71210000D01*
X138997787Y-71210000D01*
X139080445Y-71187851D01*
X139154554Y-71145064D01*
X139205000Y-71094618D01*
X139205000Y-71935000D01*
X139522828Y-71935000D01*
X139522844Y-71934999D01*
X139582372Y-71928598D01*
X139582376Y-71928597D01*
X139692836Y-71887398D01*
X139762528Y-71882414D01*
X139764685Y-71882903D01*
X139767628Y-71883598D01*
X139827155Y-71889999D01*
X139827172Y-71890000D01*
X139875000Y-71890000D01*
X139875000Y-71729435D01*
X139881708Y-71706587D01*
X139884067Y-71682891D01*
X139891372Y-71673676D01*
X139894685Y-71662396D01*
X139912677Y-71646804D01*
X139927475Y-71628142D01*
X139938604Y-71624339D01*
X139947489Y-71616641D01*
X139971057Y-71613252D01*
X139993593Y-71605553D01*
X140005008Y-71608370D01*
X140016647Y-71606697D01*
X140038307Y-71616588D01*
X140061427Y-71622295D01*
X140072596Y-71632248D01*
X140080203Y-71635722D01*
X140089083Y-71644223D01*
X140093988Y-71649408D01*
X140167454Y-71747546D01*
X140233803Y-71797214D01*
X140241083Y-71804911D01*
X140252342Y-71826966D01*
X140267182Y-71846789D01*
X140269761Y-71861086D01*
X140272852Y-71867140D01*
X140272141Y-71874279D01*
X140274972Y-71889972D01*
X140275000Y-71890000D01*
X140322828Y-71890000D01*
X140322839Y-71889999D01*
X140384395Y-71883380D01*
X140410909Y-71883380D01*
X140417514Y-71884090D01*
X140417517Y-71884091D01*
X140477127Y-71890500D01*
X140650500Y-71890499D01*
X140659185Y-71893049D01*
X140668147Y-71891761D01*
X140692184Y-71902738D01*
X140717539Y-71910183D01*
X140723467Y-71917025D01*
X140731703Y-71920786D01*
X140745989Y-71943017D01*
X140763294Y-71962987D01*
X140765581Y-71973502D01*
X140769477Y-71979564D01*
X140774500Y-72014499D01*
X140774500Y-72100500D01*
X140754815Y-72167539D01*
X140702011Y-72213294D01*
X140650500Y-72224500D01*
X139849998Y-72224500D01*
X139849980Y-72224501D01*
X139747203Y-72235000D01*
X139747200Y-72235001D01*
X139580668Y-72290185D01*
X139580663Y-72290187D01*
X139431342Y-72382289D01*
X139307289Y-72506342D01*
X139215187Y-72655663D01*
X139215185Y-72655668D01*
X139160001Y-72822204D01*
X139160000Y-72822205D01*
X139153268Y-72888103D01*
X139126871Y-72952795D01*
X139069690Y-72992946D01*
X139029910Y-72999500D01*
X138286670Y-72999500D01*
X138286654Y-72999499D01*
X138279058Y-72999499D01*
X138120943Y-72999499D01*
X138044579Y-73019961D01*
X137968214Y-73040423D01*
X137968209Y-73040426D01*
X137831290Y-73119475D01*
X137831282Y-73119481D01*
X136719481Y-74231282D01*
X136719477Y-74231287D01*
X136694237Y-74275007D01*
X136694235Y-74275011D01*
X136661569Y-74331588D01*
X136611001Y-74379803D01*
X136542394Y-74393024D01*
X136477530Y-74367055D01*
X136466502Y-74357267D01*
X135333757Y-73224522D01*
X135300272Y-73163199D01*
X135303507Y-73098523D01*
X135317246Y-73056243D01*
X135350500Y-72846287D01*
X135350500Y-72633713D01*
X135317246Y-72423757D01*
X135251557Y-72221588D01*
X135155051Y-72032184D01*
X135155049Y-72032181D01*
X135155048Y-72032179D01*
X135030109Y-71860213D01*
X134879786Y-71709890D01*
X134707820Y-71584951D01*
X134707115Y-71584591D01*
X134699054Y-71580485D01*
X134648259Y-71532512D01*
X134635958Y-71482844D01*
X136975000Y-71482844D01*
X136981401Y-71542372D01*
X136981403Y-71542379D01*
X137031645Y-71677086D01*
X137031649Y-71677093D01*
X137117809Y-71792187D01*
X137117812Y-71792190D01*
X137232906Y-71878350D01*
X137232913Y-71878354D01*
X137367620Y-71928596D01*
X137367627Y-71928598D01*
X137427155Y-71934999D01*
X137427172Y-71935000D01*
X138225000Y-71935000D01*
X138225000Y-70935000D01*
X136975000Y-70935000D01*
X136975000Y-71482844D01*
X134635958Y-71482844D01*
X134631463Y-71464692D01*
X134653999Y-71398556D01*
X134699054Y-71359515D01*
X134707816Y-71355051D01*
X134797209Y-71290104D01*
X134879786Y-71230109D01*
X134879788Y-71230106D01*
X134879792Y-71230104D01*
X135030104Y-71079792D01*
X135030106Y-71079788D01*
X135030109Y-71079786D01*
X135089158Y-70998511D01*
X135155051Y-70907816D01*
X135251557Y-70718412D01*
X135317246Y-70516243D01*
X135350500Y-70306287D01*
X135350500Y-70093713D01*
X135317246Y-69883757D01*
X135277959Y-69762844D01*
X136962500Y-69762844D01*
X136968902Y-69822377D01*
X136970687Y-69829933D01*
X136969812Y-69830139D01*
X136975911Y-69878689D01*
X136975000Y-69887165D01*
X136975000Y-70435000D01*
X138225000Y-70435000D01*
X138225000Y-69615000D01*
X136962500Y-69615000D01*
X136962500Y-69762844D01*
X135277959Y-69762844D01*
X135251557Y-69681588D01*
X135155051Y-69492184D01*
X135155049Y-69492181D01*
X135155048Y-69492179D01*
X135030109Y-69320213D01*
X134916569Y-69206673D01*
X134883084Y-69145350D01*
X134888068Y-69075658D01*
X134929940Y-69019725D01*
X134960915Y-69002810D01*
X135092331Y-68953796D01*
X135207546Y-68867546D01*
X135293796Y-68752331D01*
X135344091Y-68617483D01*
X135350500Y-68557873D01*
X135350499Y-66762128D01*
X135345130Y-66712181D01*
X135344091Y-66702516D01*
X135331155Y-66667833D01*
X135326171Y-66598141D01*
X135359656Y-66536818D01*
X135420980Y-66503334D01*
X135447337Y-66500500D01*
X137693437Y-66500500D01*
X137714682Y-66506738D01*
G37*
%TD.AperFunction*%
%TA.AperFunction,Conductor*%
G36*
X142278039Y-67184685D02*
G01*
X142323794Y-67237489D01*
X142335000Y-67289000D01*
X142335000Y-67541000D01*
X142315315Y-67608039D01*
X142262511Y-67653794D01*
X142211000Y-67665000D01*
X140539000Y-67665000D01*
X140471961Y-67645315D01*
X140426206Y-67592511D01*
X140415000Y-67541000D01*
X140415000Y-67289000D01*
X140434685Y-67221961D01*
X140487489Y-67176206D01*
X140539000Y-67165000D01*
X142211000Y-67165000D01*
X142278039Y-67184685D01*
G37*
%TD.AperFunction*%
%TD*%
M02*
