%TF.GenerationSoftware,KiCad,Pcbnew,9.0.6*%
%TF.CreationDate,2026-06-22T13:10:47-07:00*%
%TF.ProjectId,STM32 Dev Board,53544d33-3220-4446-9576-20426f617264,rev?*%
%TF.SameCoordinates,Original*%
%TF.FileFunction,Other,User*%
%FSLAX46Y46*%
G04 Gerber Fmt 4.6, Leading zero omitted, Abs format (unit mm)*
G04 Created by KiCad (PCBNEW 9.0.6) date 2026-06-22 13:10:47*
%MOMM*%
%LPD*%
G01*
G04 APERTURE LIST*
%ADD10C,0.050000*%
G04 APERTURE END LIST*
D10*
%TO.C,C8*%
X139116667Y-91520000D02*
X141416667Y-91520000D01*
X139116667Y-96480000D02*
X139116667Y-91520000D01*
X141416667Y-91520000D02*
X141416667Y-96480000D01*
X141416667Y-96480000D02*
X139116667Y-96480000D01*
%TO.C,U2*%
X137450000Y-83420000D02*
X138850000Y-83420000D01*
X137450000Y-90180000D02*
X137450000Y-83420000D01*
X138850000Y-83300000D02*
X143750000Y-83300000D01*
X138850000Y-83420000D02*
X138850000Y-83300000D01*
X138850000Y-90180000D02*
X137450000Y-90180000D01*
X138850000Y-90300000D02*
X138850000Y-90180000D01*
X143750000Y-83300000D02*
X143750000Y-83420000D01*
X143750000Y-83420000D02*
X145150000Y-83420000D01*
X143750000Y-90180000D02*
X143750000Y-90300000D01*
X143750000Y-90300000D02*
X138850000Y-90300000D01*
X145150000Y-83420000D02*
X145150000Y-90180000D01*
X145150000Y-90180000D02*
X143750000Y-90180000D01*
%TO.C,J2*%
X132330000Y-82640000D02*
X132330000Y-96340000D01*
X132330000Y-96340000D02*
X135870000Y-96340000D01*
X135870000Y-82640000D02*
X132330000Y-82640000D01*
X135870000Y-96340000D02*
X135870000Y-82640000D01*
%TO.C,R1*%
X131120000Y-80000000D02*
X136080000Y-80000000D01*
X131120000Y-82300000D02*
X131120000Y-80000000D01*
X136080000Y-80000000D02*
X136080000Y-82300000D01*
X136080000Y-82300000D02*
X131120000Y-82300000D01*
%TO.C,U1*%
X137575000Y-76095000D02*
X137925000Y-76095000D01*
X137575000Y-78855000D02*
X137575000Y-76095000D01*
X137925000Y-75225000D02*
X138795000Y-75225000D01*
X137925000Y-76095000D02*
X137925000Y-75225000D01*
X137925000Y-78855000D02*
X137575000Y-78855000D01*
X137925000Y-79725000D02*
X137925000Y-78855000D01*
X138795000Y-74875000D02*
X141555000Y-74875000D01*
X138795000Y-75225000D02*
X138795000Y-74875000D01*
X138795000Y-79725000D02*
X137925000Y-79725000D01*
X138795000Y-80075000D02*
X138795000Y-79725000D01*
X141555000Y-74875000D02*
X141555000Y-75225000D01*
X141555000Y-75225000D02*
X142425000Y-75225000D01*
X141555000Y-79725000D02*
X141555000Y-80075000D01*
X141555000Y-80075000D02*
X138795000Y-80075000D01*
X142425000Y-75225000D02*
X142425000Y-76095000D01*
X142425000Y-76095000D02*
X142775000Y-76095000D01*
X142425000Y-78855000D02*
X142425000Y-79725000D01*
X142425000Y-79725000D02*
X141555000Y-79725000D01*
X142775000Y-76095000D02*
X142775000Y-78855000D01*
X142775000Y-78855000D02*
X142425000Y-78855000D01*
%TO.C,R7*%
X152470000Y-82800000D02*
X154730000Y-82800000D01*
X152470000Y-87700000D02*
X152470000Y-82800000D01*
X154730000Y-82800000D02*
X154730000Y-87700000D01*
X154730000Y-87700000D02*
X152470000Y-87700000D01*
%TO.C,R3*%
X139400000Y-72470000D02*
X144300000Y-72470000D01*
X139400000Y-74730000D02*
X139400000Y-72470000D01*
X144300000Y-72470000D02*
X144300000Y-74730000D01*
X144300000Y-74730000D02*
X139400000Y-74730000D01*
%TO.C,R2*%
X131120000Y-77550000D02*
X136080000Y-77550000D01*
X131120000Y-79850000D02*
X131120000Y-77550000D01*
X136080000Y-77550000D02*
X136080000Y-79850000D01*
X136080000Y-79850000D02*
X131120000Y-79850000D01*
%TO.C,D3*%
X154850000Y-81650000D02*
X158350000Y-81650000D01*
X154850000Y-86650000D02*
X154850000Y-81650000D01*
X158350000Y-81650000D02*
X158350000Y-86650000D01*
X158350000Y-86650000D02*
X154850000Y-86650000D01*
%TO.C,C6*%
X144050000Y-91500000D02*
X146350000Y-91500000D01*
X144050000Y-96460000D02*
X144050000Y-91500000D01*
X146350000Y-91500000D02*
X146350000Y-96460000D01*
X146350000Y-96460000D02*
X144050000Y-96460000D01*
%TO.C,C4*%
X126020000Y-77420000D02*
X129780000Y-77420000D01*
X126020000Y-79380000D02*
X126020000Y-77420000D01*
X129780000Y-77420000D02*
X129780000Y-79380000D01*
X129780000Y-79380000D02*
X126020000Y-79380000D01*
%TO.C,C9*%
X136650000Y-91500000D02*
X138950000Y-91500000D01*
X136650000Y-96460000D02*
X136650000Y-91500000D01*
X138950000Y-91500000D02*
X138950000Y-96460000D01*
X138950000Y-96460000D02*
X136650000Y-96460000D01*
%TO.C,R9*%
X121850000Y-66470000D02*
X126750000Y-66470000D01*
X121850000Y-68730000D02*
X121850000Y-66470000D01*
X126750000Y-66470000D02*
X126750000Y-68730000D01*
X126750000Y-68730000D02*
X121850000Y-68730000D01*
%TO.C,J7*%
X132230000Y-65890000D02*
X132230000Y-77050000D01*
X132230000Y-77050000D02*
X135770000Y-77050000D01*
X135770000Y-65890000D02*
X132230000Y-65890000D01*
X135770000Y-77050000D02*
X135770000Y-65890000D01*
%TO.C,J6*%
X137210000Y-65220000D02*
X137210000Y-71680000D01*
X137210000Y-65220000D02*
X145480000Y-65220000D01*
X145480000Y-71680000D02*
X137210000Y-71680000D01*
X145480000Y-71680000D02*
X145480000Y-65220000D01*
%TO.C,C7*%
X141583333Y-91520000D02*
X143883333Y-91520000D01*
X141583333Y-96480000D02*
X141583333Y-91520000D01*
X143883333Y-91520000D02*
X143883333Y-96480000D01*
X143883333Y-96480000D02*
X141583333Y-96480000D01*
%TO.C,R6*%
X137850000Y-80370000D02*
X142750000Y-80370000D01*
X137850000Y-82630000D02*
X137850000Y-80370000D01*
X142750000Y-80370000D02*
X142750000Y-82630000D01*
X142750000Y-82630000D02*
X137850000Y-82630000D01*
%TO.C,J4*%
X146930000Y-82640000D02*
X146930000Y-96340000D01*
X146930000Y-96340000D02*
X150470000Y-96340000D01*
X150470000Y-82640000D02*
X146930000Y-82640000D01*
X150470000Y-96340000D02*
X150470000Y-82640000D01*
%TO.C,C3*%
X126020000Y-84020000D02*
X129780000Y-84020000D01*
X126020000Y-85980000D02*
X126020000Y-84020000D01*
X129780000Y-84020000D02*
X129780000Y-85980000D01*
X129780000Y-85980000D02*
X126020000Y-85980000D01*
%TO.C,J1*%
X145930000Y-65950000D02*
X145930000Y-79650000D01*
X145930000Y-79650000D02*
X149470000Y-79650000D01*
X149470000Y-65950000D02*
X145930000Y-65950000D01*
X149470000Y-79650000D02*
X149470000Y-65950000D01*
%TO.C,J3*%
X128630000Y-65890000D02*
X128630000Y-77050000D01*
X128630000Y-77050000D02*
X132170000Y-77050000D01*
X132170000Y-65890000D02*
X128630000Y-65890000D01*
X132170000Y-77050000D02*
X132170000Y-65890000D01*
%TD*%
M02*
