%TF.GenerationSoftware,KiCad,Pcbnew,9.0.6*%
%TF.CreationDate,2026-06-22T12:24:53-07:00*%
%TF.ProjectId,STM32 Dev Board,53544d33-3220-4446-9576-20426f617264,rev?*%
%TF.SameCoordinates,Original*%
%TF.FileFunction,Soldermask,Bot*%
%TF.FilePolarity,Negative*%
%FSLAX46Y46*%
G04 Gerber Fmt 4.6, Leading zero omitted, Abs format (unit mm)*
G04 Created by KiCad (PCBNEW 9.0.6) date 2026-06-22 12:24:53*
%MOMM*%
%LPD*%
G01*
G04 APERTURE LIST*
G04 Aperture macros list*
%AMRoundRect*
0 Rectangle with rounded corners*
0 $1 Rounding radius*
0 $2 $3 $4 $5 $6 $7 $8 $9 X,Y pos of 4 corners*
0 Add a 4 corners polygon primitive as box body*
4,1,4,$2,$3,$4,$5,$6,$7,$8,$9,$2,$3,0*
0 Add four circle primitives for the rounded corners*
1,1,$1+$1,$2,$3*
1,1,$1+$1,$4,$5*
1,1,$1+$1,$6,$7*
1,1,$1+$1,$8,$9*
0 Add four rect primitives between the rounded corners*
20,1,$1+$1,$2,$3,$4,$5,0*
20,1,$1+$1,$4,$5,$6,$7,0*
20,1,$1+$1,$6,$7,$8,$9,0*
20,1,$1+$1,$8,$9,$2,$3,0*%
G04 Aperture macros list end*
%ADD10R,1.700000X1.700000*%
%ADD11C,1.700000*%
%ADD12O,1.350000X1.700000*%
%ADD13O,1.100000X1.500000*%
%ADD14C,0.800000*%
%ADD15RoundRect,0.250001X-0.624999X0.462499X-0.624999X-0.462499X0.624999X-0.462499X0.624999X0.462499X0*%
%ADD16RoundRect,0.250000X-0.500000X-1.050000X0.500000X-1.050000X0.500000X1.050000X-0.500000X1.050000X0*%
%ADD17O,0.300000X0.975000*%
%ADD18O,0.300000X1.075000*%
%ADD19O,2.480000X1.550000*%
%ADD20RoundRect,0.150000X0.587500X0.150000X-0.587500X0.150000X-0.587500X-0.150000X0.587500X-0.150000X0*%
%ADD21RoundRect,0.250000X0.450000X-0.400000X0.450000X0.400000X-0.450000X0.400000X-0.450000X-0.400000X0*%
%ADD22R,2.350000X0.850000*%
%ADD23RoundRect,0.250000X0.412500X0.650000X-0.412500X0.650000X-0.412500X-0.650000X0.412500X-0.650000X0*%
%ADD24RoundRect,0.250000X-0.625000X0.400000X-0.625000X-0.400000X0.625000X-0.400000X0.625000X0.400000X0*%
%ADD25RoundRect,0.375000X0.625000X0.375000X-0.625000X0.375000X-0.625000X-0.375000X0.625000X-0.375000X0*%
%ADD26RoundRect,0.500000X0.500000X1.400000X-0.500000X1.400000X-0.500000X-1.400000X0.500000X-1.400000X0*%
%ADD27RoundRect,0.250000X-0.650000X0.412500X-0.650000X-0.412500X0.650000X-0.412500X0.650000X0.412500X0*%
%ADD28RoundRect,0.250000X-0.400000X-0.625000X0.400000X-0.625000X0.400000X0.625000X-0.400000X0.625000X0*%
G04 APERTURE END LIST*
D10*
%TO.C,J2*%
X134100000Y-84410000D03*
D11*
X134100000Y-86950000D03*
X134100000Y-89490000D03*
X134100000Y-92030000D03*
X134100000Y-94570000D03*
%TD*%
D10*
%TO.C,J7*%
X134000000Y-67660000D03*
D11*
X134000000Y-70200000D03*
X134000000Y-72740000D03*
X134000000Y-75280000D03*
%TD*%
D12*
%TO.C,J6*%
X144105000Y-67685000D03*
D13*
X143795000Y-70685000D03*
X138955000Y-70685000D03*
D12*
X138645000Y-67685000D03*
%TD*%
D10*
%TO.C,J4*%
X148700000Y-94570000D03*
D11*
X148700000Y-92030000D03*
X148700000Y-89490000D03*
X148700000Y-86950000D03*
X148700000Y-84410000D03*
%TD*%
D10*
%TO.C,J1*%
X147700000Y-77880000D03*
D11*
X147700000Y-75340000D03*
X147700000Y-72800000D03*
X147700000Y-70260000D03*
X147700000Y-67720000D03*
%TD*%
D10*
%TO.C,J3*%
X130400000Y-75280000D03*
D11*
X130400000Y-72740000D03*
X130400000Y-70200000D03*
X130400000Y-67660000D03*
%TD*%
D14*
%TO.C,SW2*%
X121300000Y-70250000D03*
X121300000Y-76500000D03*
%TD*%
D15*
%TO.C,R8*%
X151300000Y-78575000D03*
X151300000Y-81550000D03*
%TD*%
D16*
%TO.C,D1*%
X151300000Y-69162500D03*
X154300000Y-69162500D03*
%TD*%
D17*
%TO.C,U4*%
X152800000Y-75875000D03*
X152300000Y-75875000D03*
X151800000Y-75875000D03*
X151300000Y-75875000D03*
X150800000Y-75875000D03*
D18*
X150800000Y-72400000D03*
X151300000Y-72400000D03*
X151800000Y-72400000D03*
X152300000Y-72400000D03*
X152800000Y-72400000D03*
D19*
X151800000Y-74162500D03*
%TD*%
D20*
%TO.C,Q1*%
X146662500Y-81300000D03*
X148537500Y-80350000D03*
X148537500Y-82250000D03*
%TD*%
D21*
%TO.C,D2*%
X142300000Y-81150000D03*
X142300000Y-78250000D03*
%TD*%
D22*
%TO.C,J5*%
X154150000Y-87100000D03*
X156500000Y-89100000D03*
%TD*%
D21*
%TO.C,D4*%
X151300000Y-86512500D03*
X151300000Y-83612500D03*
%TD*%
D23*
%TO.C,C1*%
X129862500Y-83500000D03*
X126737500Y-83500000D03*
%TD*%
D24*
%TO.C,R4*%
X155600000Y-74362500D03*
X155600000Y-77462500D03*
%TD*%
D25*
%TO.C,U3*%
X131450000Y-86400000D03*
X131450000Y-88700000D03*
D26*
X125150000Y-88700000D03*
D25*
X131450000Y-91000000D03*
%TD*%
D27*
%TO.C,C2*%
X131500000Y-93237500D03*
X131500000Y-96362500D03*
%TD*%
D28*
%TO.C,R5*%
X154500000Y-72262500D03*
X157600000Y-72262500D03*
%TD*%
M02*
