%TF.GenerationSoftware,KiCad,Pcbnew,9.0.6*%
%TF.CreationDate,2026-06-22T12:24:53-07:00*%
%TF.ProjectId,STM32 Dev Board,53544d33-3220-4446-9576-20426f617264,rev?*%
%TF.SameCoordinates,Original*%
%TF.FileFunction,Soldermask,Top*%
%TF.FilePolarity,Negative*%
%FSLAX46Y46*%
G04 Gerber Fmt 4.6, Leading zero omitted, Abs format (unit mm)*
G04 Created by KiCad (PCBNEW 9.0.6) date 2026-06-22 12:24:53*
%MOMM*%
%LPD*%
G01*
G04 APERTURE LIST*
G04 Aperture macros list*
%AMRoundRect*
0 Rectangle with rounded corners*
0 $1 Rounding radius*
0 $2 $3 $4 $5 $6 $7 $8 $9 X,Y pos of 4 corners*
0 Add a 4 corners polygon primitive as box body*
4,1,4,$2,$3,$4,$5,$6,$7,$8,$9,$2,$3,0*
0 Add four circle primitives for the rounded corners*
1,1,$1+$1,$2,$3*
1,1,$1+$1,$4,$5*
1,1,$1+$1,$6,$7*
1,1,$1+$1,$8,$9*
0 Add four rect primitives between the rounded corners*
20,1,$1+$1,$2,$3,$4,$5,0*
20,1,$1+$1,$4,$5,$6,$7,0*
20,1,$1+$1,$6,$7,$8,$9,0*
20,1,$1+$1,$8,$9,$2,$3,0*%
G04 Aperture macros list end*
%ADD10RoundRect,0.250000X-0.650000X0.412500X-0.650000X-0.412500X0.650000X-0.412500X0.650000X0.412500X0*%
%ADD11RoundRect,0.100000X-0.637500X-0.100000X0.637500X-0.100000X0.637500X0.100000X-0.637500X0.100000X0*%
%ADD12R,1.700000X1.700000*%
%ADD13C,1.700000*%
%ADD14RoundRect,0.250000X-0.412500X-0.650000X0.412500X-0.650000X0.412500X0.650000X-0.412500X0.650000X0*%
%ADD15RoundRect,0.075000X-0.337500X-0.075000X0.337500X-0.075000X0.337500X0.075000X-0.337500X0.075000X0*%
%ADD16RoundRect,0.075000X-0.075000X-0.337500X0.075000X-0.337500X0.075000X0.337500X-0.075000X0.337500X0*%
%ADD17R,2.500000X2.500000*%
%ADD18RoundRect,0.250000X-0.625000X0.400000X-0.625000X-0.400000X0.625000X-0.400000X0.625000X0.400000X0*%
%ADD19RoundRect,0.250000X0.400000X0.625000X-0.400000X0.625000X-0.400000X-0.625000X0.400000X-0.625000X0*%
%ADD20RoundRect,0.250000X0.412500X0.650000X-0.412500X0.650000X-0.412500X-0.650000X0.412500X-0.650000X0*%
%ADD21RoundRect,0.250000X-1.050000X0.500000X-1.050000X-0.500000X1.050000X-0.500000X1.050000X0.500000X0*%
%ADD22O,1.590000X3.872500*%
%ADD23O,1.590000X3.877500*%
%ADD24RoundRect,0.250000X-0.337500X-0.475000X0.337500X-0.475000X0.337500X0.475000X-0.337500X0.475000X0*%
%ADD25RoundRect,0.172500X0.402500X-0.527500X0.402500X0.527500X-0.402500X0.527500X-0.402500X-0.527500X0*%
%ADD26RoundRect,0.250000X-0.400000X-0.625000X0.400000X-0.625000X0.400000X0.625000X-0.400000X0.625000X0*%
%ADD27R,0.400000X1.650000*%
%ADD28R,1.825000X0.700000*%
%ADD29R,2.000000X1.500000*%
%ADD30R,1.350000X2.000000*%
%ADD31O,1.350000X1.700000*%
%ADD32O,1.100000X1.500000*%
%ADD33R,1.430000X2.500000*%
%ADD34R,2.700000X1.000000*%
%ADD35C,0.800000*%
G04 APERTURE END LIST*
D10*
%TO.C,C8*%
X140266667Y-92437500D03*
X140266667Y-95562500D03*
%TD*%
D11*
%TO.C,U2*%
X138437500Y-83875000D03*
X138437500Y-84525000D03*
X138437500Y-85175000D03*
X138437500Y-85825000D03*
X138437500Y-86475000D03*
X138437500Y-87125000D03*
X138437500Y-87775000D03*
X138437500Y-88425000D03*
X138437500Y-89075000D03*
X138437500Y-89725000D03*
X144162500Y-89725000D03*
X144162500Y-89075000D03*
X144162500Y-88425000D03*
X144162500Y-87775000D03*
X144162500Y-87125000D03*
X144162500Y-86475000D03*
X144162500Y-85825000D03*
X144162500Y-85175000D03*
X144162500Y-84525000D03*
X144162500Y-83875000D03*
%TD*%
D12*
%TO.C,J2*%
X134100000Y-84410000D03*
D13*
X134100000Y-86950000D03*
X134100000Y-89490000D03*
X134100000Y-92030000D03*
X134100000Y-94570000D03*
%TD*%
D14*
%TO.C,R1*%
X132037500Y-81150000D03*
X135162500Y-81150000D03*
%TD*%
D15*
%TO.C,U1*%
X138237500Y-76500000D03*
X138237500Y-77150000D03*
X138237500Y-77800000D03*
X138237500Y-78450000D03*
D16*
X139200000Y-79412500D03*
X139850000Y-79412500D03*
X140500000Y-79412500D03*
X141150000Y-79412500D03*
D15*
X142112500Y-78450000D03*
X142112500Y-77800000D03*
X142112500Y-77150000D03*
X142112500Y-76500000D03*
D16*
X141150000Y-75537500D03*
X140500000Y-75537500D03*
X139850000Y-75537500D03*
X139200000Y-75537500D03*
D17*
X140175000Y-77475000D03*
%TD*%
D18*
%TO.C,R7*%
X153600000Y-83700000D03*
X153600000Y-86800000D03*
%TD*%
D19*
%TO.C,R3*%
X143400000Y-73600000D03*
X140300000Y-73600000D03*
%TD*%
D20*
%TO.C,R2*%
X135162500Y-78700000D03*
X132037500Y-78700000D03*
%TD*%
D21*
%TO.C,D3*%
X156600000Y-85650000D03*
X156600000Y-82650000D03*
%TD*%
D10*
%TO.C,C6*%
X145200000Y-92417500D03*
X145200000Y-95542500D03*
%TD*%
D22*
%TO.C,SW1*%
X157360000Y-68868750D03*
D23*
X157360000Y-78328750D03*
D22*
X153360000Y-68868750D03*
X153360000Y-78331250D03*
%TD*%
D24*
%TO.C,C4*%
X126862500Y-78400000D03*
X128937500Y-78400000D03*
%TD*%
D25*
%TO.C,X1*%
X127100000Y-82750000D03*
X127100000Y-80550000D03*
X128700000Y-80550000D03*
X128700000Y-82750000D03*
%TD*%
D10*
%TO.C,C9*%
X137800000Y-92417500D03*
X137800000Y-95542500D03*
%TD*%
D26*
%TO.C,R9*%
X122750000Y-67600000D03*
X125850000Y-67600000D03*
%TD*%
D12*
%TO.C,J7*%
X134000000Y-67660000D03*
D13*
X134000000Y-70200000D03*
X134000000Y-72740000D03*
X134000000Y-75280000D03*
%TD*%
D27*
%TO.C,J6*%
X142675000Y-70565000D03*
X142025000Y-70565000D03*
X141375000Y-70565000D03*
X140725000Y-70565000D03*
X140075000Y-70565000D03*
D28*
X144325000Y-69365000D03*
D29*
X144225000Y-70665000D03*
D30*
X144105000Y-68615000D03*
D31*
X144105000Y-67685000D03*
D32*
X143795000Y-70685000D03*
D33*
X142335000Y-67415000D03*
X140415000Y-67415000D03*
D32*
X138955000Y-70685000D03*
D31*
X138645000Y-67685000D03*
D30*
X138625000Y-68615000D03*
D29*
X138475000Y-70685000D03*
D28*
X138375000Y-69365000D03*
%TD*%
D10*
%TO.C,C7*%
X142733333Y-92437500D03*
X142733333Y-95562500D03*
%TD*%
D19*
%TO.C,R6*%
X141850000Y-81500000D03*
X138750000Y-81500000D03*
%TD*%
D12*
%TO.C,J4*%
X148700000Y-94570000D03*
D13*
X148700000Y-92030000D03*
X148700000Y-89490000D03*
X148700000Y-86950000D03*
X148700000Y-84410000D03*
%TD*%
D24*
%TO.C,C3*%
X126862500Y-85000000D03*
X128937500Y-85000000D03*
%TD*%
D12*
%TO.C,J1*%
X147700000Y-77880000D03*
D13*
X147700000Y-75340000D03*
X147700000Y-72800000D03*
X147700000Y-70260000D03*
X147700000Y-67720000D03*
%TD*%
D12*
%TO.C,J3*%
X130400000Y-75280000D03*
D13*
X130400000Y-72740000D03*
X130400000Y-70200000D03*
X130400000Y-67660000D03*
%TD*%
D34*
%TO.C,SW2*%
X125750000Y-70250000D03*
X125750000Y-72250000D03*
X125750000Y-74250000D03*
D35*
X121300000Y-70250000D03*
X121300000Y-76500000D03*
%TD*%
M02*
